<?xml version="1.0" encoding="UTF-8" standalone="no"?>
<!DOCTYPE svg PUBLIC "-//W3C//DTD SVG 1.1//EN"
 "http://www.w3.org/Graphics/SVG/1.1/DTD/svg11.dtd">
<!-- Generated by graphviz version 2.49.3 (20211023.0002)
 -->
<!-- Title: Ucu.Poo.Locations.Client.LocationApiClient.GetDistanceAsync Pages: 1 -->
<svg width="573pt" height="88pt"
 viewBox="0.00 0.00 573.00 88.00" xmlns="http://www.w3.org/2000/svg" xmlns:xlink="http://www.w3.org/1999/xlink">
<g id="graph0" class="graph" transform="scale(1 1) rotate(0) translate(4 84)">
<title>Ucu.Poo.Locations.Client.LocationApiClient.GetDistanceAsync</title>
<polygon fill="white" stroke="transparent" points="-4,4 -4,-84 569,-84 569,4 -4,4"/>
<!-- Node1 -->
<g id="node1" class="node">
<title>Node1</title>
<g id="a_node1"><a xlink:title="Obtiene la distancia entre dos coordenadas.">
<polygon fill="#bfbfbf" stroke="black" points="388,-24.5 388,-54.5 565,-54.5 565,-24.5 388,-24.5"/>
<text text-anchor="start" x="396" y="-42.5" font-family="Helvetica,sans-Serif" font-size="10.00">Ucu.Poo.Locations.Client.</text>
<text text-anchor="middle" x="476.5" y="-31.5" font-family="Helvetica,sans-Serif" font-size="10.00">LocationApiClient.GetDistanceAsync</text>
</a>
</g>
</g>
<!-- Node2 -->
<g id="node2" class="node">
<title>Node2</title>
<g id="a_node2"><a xlink:href="classUcu_1_1Poo_1_1Locations_1_1Client_1_1LocationApiClient.html#a445836871e817e09d0a941a489326d91" target="_top" xlink:title=" ">
<polygon fill="white" stroke="black" points="203,-24.5 203,-54.5 352,-54.5 352,-24.5 203,-24.5"/>
<text text-anchor="start" x="211" y="-42.5" font-family="Helvetica,sans-Serif" font-size="10.00">Ucu.Poo.Locations.Client.</text>
<text text-anchor="middle" x="277.5" y="-31.5" font-family="Helvetica,sans-Serif" font-size="10.00">LocationApiClient.GetDistance</text>
</a>
</g>
</g>
<!-- Node1&#45;&gt;Node2 -->
<g id="edge1" class="edge">
<title>Node1&#45;&gt;Node2</title>
<path fill="none" stroke="midnightblue" d="M377.85,-39.5C369.24,-39.5 360.61,-39.5 352.25,-39.5"/>
<polygon fill="midnightblue" stroke="midnightblue" points="377.95,-43 387.95,-39.5 377.95,-36 377.95,-43"/>
</g>
<!-- Node3 -->
<g id="node3" class="node">
<title>Node3</title>
<g id="a_node3"><a xlink:href="classProyecto__Final_1_1UserEmprendedorTests.html#aacbda5e4eaab3f2dd780bcf555d57b7b" target="_top" xlink:title="Test para revisar si la clase es capaz de buscar ofertas mediante la ubicacion de 2 objetos,...">
<polygon fill="white" stroke="black" points="0,-49.5 0,-79.5 167,-79.5 167,-49.5 0,-49.5"/>
<text text-anchor="start" x="8" y="-67.5" font-family="Helvetica,sans-Serif" font-size="10.00">Proyecto_Final.UserEmprendedor</text>
<text text-anchor="middle" x="83.5" y="-56.5" font-family="Helvetica,sans-Serif" font-size="10.00">Tests.VerOfertasUbicacionFailTest</text>
</a>
</g>
</g>
<!-- Node2&#45;&gt;Node3 -->
<g id="edge2" class="edge">
<title>Node2&#45;&gt;Node3</title>
<path fill="none" stroke="midnightblue" d="M192.63,-50.42C184.21,-51.52 175.67,-52.63 167.27,-53.72"/>
<polygon fill="midnightblue" stroke="midnightblue" points="193.35,-53.86 202.82,-49.09 192.45,-46.91 193.35,-53.86"/>
</g>
<!-- Node4 -->
<g id="node4" class="node">
<title>Node4</title>
<g id="a_node4"><a xlink:href="classProyecto__Final_1_1UserEmprendedorTests.html#a00f07f4def05997a507104006f084308" target="_top" xlink:title="Test para revisar si la clase es capaz de buscar ofertas mediante la ubicacion de 2 objetos,...">
<polygon fill="white" stroke="black" points="2,-0.5 2,-30.5 165,-30.5 165,-0.5 2,-0.5"/>
<text text-anchor="start" x="10" y="-18.5" font-family="Helvetica,sans-Serif" font-size="10.00">Proyecto_Final.UserEmprendedor</text>
<text text-anchor="middle" x="83.5" y="-7.5" font-family="Helvetica,sans-Serif" font-size="10.00">Tests.VerOfertasUbicacionTest</text>
</a>
</g>
</g>
<!-- Node2&#45;&gt;Node4 -->
<g id="edge3" class="edge">
<title>Node2&#45;&gt;Node4</title>
<path fill="none" stroke="midnightblue" d="M192.86,-29.05C183.62,-27.89 174.22,-26.71 165.01,-25.56"/>
<polygon fill="midnightblue" stroke="midnightblue" points="192.46,-32.52 202.82,-30.29 193.33,-25.58 192.46,-32.52"/>
</g>
</g>
</svg>
