<?xml version="1.0" encoding="UTF-8" standalone="no"?>
<!DOCTYPE svg PUBLIC "-//W3C//DTD SVG 1.1//EN"
 "http://www.w3.org/Graphics/SVG/1.1/DTD/svg11.dtd">
<!-- Generated by graphviz version 2.49.3 (20211023.0002)
 -->
<!-- Title: Ucu.Poo.Locations.Client.LocationApiClient.DownloadMap Pages: 1 -->
<svg width="384pt" height="39pt"
 viewBox="0.00 0.00 384.00 39.00" xmlns="http://www.w3.org/2000/svg" xmlns:xlink="http://www.w3.org/1999/xlink">
<g id="graph0" class="graph" transform="scale(1 1) rotate(0) translate(4 35)">
<title>Ucu.Poo.Locations.Client.LocationApiClient.DownloadMap</title>
<polygon fill="white" stroke="transparent" points="-4,4 -4,-35 380,-35 380,4 -4,4"/>
<!-- Node1 -->
<g id="node1" class="node">
<title>Node1</title>
<g id="a_node1"><a xlink:title=" ">
<polygon fill="#bfbfbf" stroke="black" points="0,-0.5 0,-30.5 156,-30.5 156,-0.5 0,-0.5"/>
<text text-anchor="start" x="8" y="-18.5" font-family="Helvetica,sans-Serif" font-size="10.00">Ucu.Poo.Locations.Client.</text>
<text text-anchor="middle" x="78" y="-7.5" font-family="Helvetica,sans-Serif" font-size="10.00">LocationApiClient.DownloadMap</text>
</a>
</g>
</g>
<!-- Node2 -->
<g id="node2" class="node">
<title>Node2</title>
<g id="a_node2"><a xlink:href="classUcu_1_1Poo_1_1Locations_1_1Client_1_1LocationApiClient.html#a21e183b7fb6a9752ef6dc64da5164f0e" target="_top" xlink:title="Descarga una mapa de una coordenada.">
<polygon fill="white" stroke="black" points="192,-0.5 192,-30.5 376,-30.5 376,-0.5 192,-0.5"/>
<text text-anchor="start" x="200" y="-18.5" font-family="Helvetica,sans-Serif" font-size="10.00">Ucu.Poo.Locations.Client.</text>
<text text-anchor="middle" x="284" y="-7.5" font-family="Helvetica,sans-Serif" font-size="10.00">LocationApiClient.DownloadMapAsync</text>
</a>
</g>
</g>
<!-- Node1&#45;&gt;Node2 -->
<g id="edge1" class="edge">
<title>Node1&#45;&gt;Node2</title>
<path fill="none" stroke="midnightblue" d="M156.12,-15.5C164.48,-15.5 173.07,-15.5 181.65,-15.5"/>
<polygon fill="midnightblue" stroke="midnightblue" points="181.71,-19 191.71,-15.5 181.71,-12 181.71,-19"/>
</g>
</g>
</svg>
