<?xml version="1.0" encoding="UTF-8" standalone="no"?>
<!DOCTYPE svg PUBLIC "-//W3C//DTD SVG 1.1//EN"
 "http://www.w3.org/Graphics/SVG/1.1/DTD/svg11.dtd">
<!-- Generated by graphviz version 2.49.3 (20211023.0002)
 -->
<!-- Title: Proyecto_Final.UserEmpresa.CrearMsjClave Pages: 1 -->
<svg width="527pt" height="88pt"
 viewBox="0.00 0.00 527.00 88.00" xmlns="http://www.w3.org/2000/svg" xmlns:xlink="http://www.w3.org/1999/xlink">
<g id="graph0" class="graph" transform="scale(1 1) rotate(0) translate(4 84)">
<title>Proyecto_Final.UserEmpresa.CrearMsjClave</title>
<polygon fill="white" stroke="transparent" points="-4,4 -4,-84 523,-84 523,4 -4,4"/>
<!-- Node1 -->
<g id="node1" class="node">
<title>Node1</title>
<g id="a_node1"><a xlink:title="Como empresa, quiero indicar un conjunto de palabras claves asociadas a la publicación de los materia...">
<polygon fill="#bfbfbf" stroke="black" points="372,-24.5 372,-54.5 519,-54.5 519,-24.5 372,-24.5"/>
<text text-anchor="start" x="380" y="-42.5" font-family="Helvetica,sans-Serif" font-size="10.00">Proyecto_Final.UserEmpresa.</text>
<text text-anchor="middle" x="445.5" y="-31.5" font-family="Helvetica,sans-Serif" font-size="10.00">CrearMsjClave</text>
</a>
</g>
</g>
<!-- Node2 -->
<g id="node2" class="node">
<title>Node2</title>
<g id="a_node2"><a xlink:href="classProyecto__Final_1_1UserEmpresa.html#a281d3324e4fc157b938dc1d4a0a1f006" target="_top" xlink:title="Como empresa, quiero publicar una oferta de materiales reciclables o residuos, para que de esa forma ...">
<polygon fill="white" stroke="black" points="189,-49.5 189,-79.5 336,-79.5 336,-49.5 189,-49.5"/>
<text text-anchor="start" x="197" y="-67.5" font-family="Helvetica,sans-Serif" font-size="10.00">Proyecto_Final.UserEmpresa.</text>
<text text-anchor="middle" x="262.5" y="-56.5" font-family="Helvetica,sans-Serif" font-size="10.00">CrearOferta</text>
</a>
</g>
</g>
<!-- Node1&#45;&gt;Node2 -->
<g id="edge1" class="edge">
<title>Node1&#45;&gt;Node2</title>
<path fill="none" stroke="midnightblue" d="M361.88,-50.91C353.28,-52.1 344.58,-53.3 336.09,-54.47"/>
<polygon fill="midnightblue" stroke="midnightblue" points="362.5,-54.36 371.92,-49.52 361.54,-47.43 362.5,-54.36"/>
</g>
<!-- Node4 -->
<g id="node4" class="node">
<title>Node4</title>
<g id="a_node4"><a xlink:href="classProyecto__Final_1_1AddKeyWordHandler.html#acb30378c0a9a39b0fd0b4d5dfc9886dc" target="_top" xlink:title="Procesa el mensaje &quot;/agregar_palabra&quot; y retorna true; retorna false en caso contrario.">
<polygon fill="white" stroke="black" points="191,-0.5 191,-30.5 334,-30.5 334,-0.5 191,-0.5"/>
<text text-anchor="start" x="199" y="-18.5" font-family="Helvetica,sans-Serif" font-size="10.00">Proyecto_Final.AddKeyWord</text>
<text text-anchor="middle" x="262.5" y="-7.5" font-family="Helvetica,sans-Serif" font-size="10.00">Handler.InternalHandle</text>
</a>
</g>
</g>
<!-- Node1&#45;&gt;Node4 -->
<g id="edge3" class="edge">
<title>Node1&#45;&gt;Node4</title>
<path fill="none" stroke="midnightblue" d="M361.89,-28.55C352.58,-27.31 343.16,-26.06 334.03,-24.85"/>
<polygon fill="midnightblue" stroke="midnightblue" points="361.55,-32.03 371.92,-29.88 362.47,-25.09 361.55,-32.03"/>
</g>
<!-- Node3 -->
<g id="node3" class="node">
<title>Node3</title>
<g id="a_node3"><a xlink:href="classProyecto__Final_1_1PublishHandler.html#aac8659f3d62aae4384be55fe0897f309" target="_top" xlink:title="Procesa el mensaje &quot;/publicar&quot; y retorna true; retorna false en caso contrario.">
<polygon fill="white" stroke="black" points="0,-49.5 0,-79.5 153,-79.5 153,-49.5 0,-49.5"/>
<text text-anchor="start" x="8" y="-67.5" font-family="Helvetica,sans-Serif" font-size="10.00">Proyecto_Final.PublishHandler.</text>
<text text-anchor="middle" x="76.5" y="-56.5" font-family="Helvetica,sans-Serif" font-size="10.00">InternalHandle</text>
</a>
</g>
</g>
<!-- Node2&#45;&gt;Node3 -->
<g id="edge2" class="edge">
<title>Node2&#45;&gt;Node3</title>
<path fill="none" stroke="midnightblue" d="M178.78,-64.5C170.2,-64.5 161.51,-64.5 153.02,-64.5"/>
<polygon fill="midnightblue" stroke="midnightblue" points="178.78,-68 188.78,-64.5 178.78,-61 178.78,-68"/>
</g>
</g>
</svg>
