<?xml version="1.0" encoding="UTF-8" standalone="no"?>
<!DOCTYPE svg PUBLIC "-//W3C//DTD SVG 1.1//EN"
 "http://www.w3.org/Graphics/SVG/1.1/DTD/svg11.dtd">
<!-- Generated by graphviz version 2.49.3 (20211023.0002)
 -->
<!-- Title: Proyecto_Final.UserEmpresaTests.InvitarEmpresaTest Pages: 1 -->
<svg width="498pt" height="39pt"
 viewBox="0.00 0.00 498.00 39.00" xmlns="http://www.w3.org/2000/svg" xmlns:xlink="http://www.w3.org/1999/xlink">
<g id="graph0" class="graph" transform="scale(1 1) rotate(0) translate(4 35)">
<title>Proyecto_Final.UserEmpresaTests.InvitarEmpresaTest</title>
<polygon fill="white" stroke="transparent" points="-4,4 -4,-35 494,-35 494,4 -4,4"/>
<!-- Node1 -->
<g id="node1" class="node">
<title>Node1</title>
<g id="a_node1"><a xlink:title="Test para revisar si se genera correctamente un código de 10 letras.">
<polygon fill="#bfbfbf" stroke="black" points="0,-0.5 0,-30.5 144,-30.5 144,-0.5 0,-0.5"/>
<text text-anchor="start" x="8" y="-18.5" font-family="Helvetica,sans-Serif" font-size="10.00">Proyecto_Final.UserEmpresa</text>
<text text-anchor="middle" x="72" y="-7.5" font-family="Helvetica,sans-Serif" font-size="10.00">Tests.InvitarEmpresaTest</text>
</a>
</g>
</g>
<!-- Node2 -->
<g id="node2" class="node">
<title>Node2</title>
<g id="a_node2"><a xlink:href="classProyecto__Final_1_1UserAdmin.html#a368b406a34b2a11014e52c49599c57b8" target="_top" xlink:title="Genera un token de invitacion para ser enviado y lo almacena para su verificacion.">
<polygon fill="white" stroke="black" points="180,-0.5 180,-30.5 316,-30.5 316,-0.5 180,-0.5"/>
<text text-anchor="start" x="188" y="-18.5" font-family="Helvetica,sans-Serif" font-size="10.00">Proyecto_Final.UserAdmin.</text>
<text text-anchor="middle" x="248" y="-7.5" font-family="Helvetica,sans-Serif" font-size="10.00">InvitarEmpresa</text>
</a>
</g>
</g>
<!-- Node1&#45;&gt;Node2 -->
<g id="edge1" class="edge">
<title>Node1&#45;&gt;Node2</title>
<path fill="none" stroke="midnightblue" d="M144.02,-15.5C152.53,-15.5 161.26,-15.5 169.85,-15.5"/>
<polygon fill="midnightblue" stroke="midnightblue" points="169.85,-19 179.85,-15.5 169.85,-12 169.85,-19"/>
</g>
<!-- Node3 -->
<g id="node3" class="node">
<title>Node3</title>
<g id="a_node3"><a xlink:href="classProyecto__Final_1_1IdGenerator.html#a55986a0a289859392a6ec41e192f3c1b" target="_top" xlink:title="Genera un token.">
<polygon fill="white" stroke="black" points="352,-0.5 352,-30.5 490,-30.5 490,-0.5 352,-0.5"/>
<text text-anchor="start" x="360" y="-18.5" font-family="Helvetica,sans-Serif" font-size="10.00">Proyecto_Final.IdGenerator.</text>
<text text-anchor="middle" x="421" y="-7.5" font-family="Helvetica,sans-Serif" font-size="10.00">GenerateToken</text>
</a>
</g>
</g>
<!-- Node2&#45;&gt;Node3 -->
<g id="edge2" class="edge">
<title>Node2&#45;&gt;Node3</title>
<path fill="none" stroke="midnightblue" d="M316.09,-15.5C324.57,-15.5 333.29,-15.5 341.92,-15.5"/>
<polygon fill="midnightblue" stroke="midnightblue" points="341.98,-19 351.98,-15.5 341.98,-12 341.98,-19"/>
</g>
</g>
</svg>
