<?xml version="1.0" encoding="UTF-8" standalone="no"?>
<!DOCTYPE svg PUBLIC "-//W3C//DTD SVG 1.1//EN"
 "http://www.w3.org/Graphics/SVG/1.1/DTD/svg11.dtd">
<!-- Generated by graphviz version 2.49.3 (20211023.0002)
 -->
<!-- Title: Proyecto_Final.UserEmprendedorTests.VerOfertasUbicacionTest Pages: 1 -->
<svg width="982pt" height="127pt"
 viewBox="0.00 0.00 982.00 127.00" xmlns="http://www.w3.org/2000/svg" xmlns:xlink="http://www.w3.org/1999/xlink">
<g id="graph0" class="graph" transform="scale(1 1) rotate(0) translate(4 123)">
<title>Proyecto_Final.UserEmprendedorTests.VerOfertasUbicacionTest</title>
<polygon fill="white" stroke="transparent" points="-4,4 -4,-123 978,-123 978,4 -4,4"/>
<!-- Node1 -->
<g id="node1" class="node">
<title>Node1</title>
<g id="a_node1"><a xlink:title="Test para revisar si la clase es capaz de buscar ofertas mediante la ubicacion de 2 objetos,...">
<polygon fill="#bfbfbf" stroke="black" points="0,-44.5 0,-74.5 163,-74.5 163,-44.5 0,-44.5"/>
<text text-anchor="start" x="8" y="-62.5" font-family="Helvetica,sans-Serif" font-size="10.00">Proyecto_Final.UserEmprendedor</text>
<text text-anchor="middle" x="81.5" y="-51.5" font-family="Helvetica,sans-Serif" font-size="10.00">Tests.VerOfertasUbicacionTest</text>
</a>
</g>
</g>
<!-- Node2 -->
<g id="node2" class="node">
<title>Node2</title>
<g id="a_node2"><a xlink:href="classUcu_1_1Poo_1_1Locations_1_1Client_1_1LocationApiClient.html#a445836871e817e09d0a941a489326d91" target="_top" xlink:title=" ">
<polygon fill="white" stroke="black" points="207.5,-88.5 207.5,-118.5 356.5,-118.5 356.5,-88.5 207.5,-88.5"/>
<text text-anchor="start" x="215.5" y="-106.5" font-family="Helvetica,sans-Serif" font-size="10.00">Ucu.Poo.Locations.Client.</text>
<text text-anchor="middle" x="282" y="-95.5" font-family="Helvetica,sans-Serif" font-size="10.00">LocationApiClient.GetDistance</text>
</a>
</g>
</g>
<!-- Node1&#45;&gt;Node2 -->
<g id="edge1" class="edge">
<title>Node1&#45;&gt;Node2</title>
<path fill="none" stroke="midnightblue" d="M150.26,-74.52C167.25,-78.29 185.62,-82.36 203.06,-86.22"/>
<polygon fill="midnightblue" stroke="midnightblue" points="202.69,-89.73 213.21,-88.47 204.21,-82.89 202.69,-89.73"/>
</g>
<!-- Node4 -->
<g id="node4" class="node">
<title>Node4</title>
<g id="a_node4"><a xlink:href="classUcu_1_1Poo_1_1Locations_1_1Client_1_1LocationApiClient.html#a420f94704f37c1aeed52761f6a650f9f" target="_top" xlink:title=" ">
<polygon fill="white" stroke="black" points="614,-22.5 614,-52.5 762,-52.5 762,-22.5 614,-22.5"/>
<text text-anchor="start" x="622" y="-40.5" font-family="Helvetica,sans-Serif" font-size="10.00">Ucu.Poo.Locations.Client.</text>
<text text-anchor="middle" x="688" y="-29.5" font-family="Helvetica,sans-Serif" font-size="10.00">LocationApiClient.GetLocation</text>
</a>
</g>
</g>
<!-- Node1&#45;&gt;Node4 -->
<g id="edge3" class="edge">
<title>Node1&#45;&gt;Node4</title>
<path fill="none" stroke="midnightblue" d="M163.09,-56.57C277.75,-52.39 486.97,-44.78 603.32,-40.55"/>
<polygon fill="midnightblue" stroke="midnightblue" points="603.72,-44.03 613.59,-40.17 603.47,-37.04 603.72,-44.03"/>
</g>
<!-- Node6 -->
<g id="node6" class="node">
<title>Node6</title>
<g id="a_node6"><a xlink:href="classProyecto__Final_1_1UserEmprendedor.html#a9a77d8df6165ee77ae68dc7ff3ce39bd" target="_top" xlink:title="En base a la ubicación del Emprendedor, retorna una lista con todas las ofertas que se encuentren a u...">
<polygon fill="white" stroke="black" points="199,-0.5 199,-30.5 365,-30.5 365,-0.5 199,-0.5"/>
<text text-anchor="start" x="207" y="-18.5" font-family="Helvetica,sans-Serif" font-size="10.00">Proyecto_Final.UserEmprendedor.</text>
<text text-anchor="middle" x="282" y="-7.5" font-family="Helvetica,sans-Serif" font-size="10.00">VerOfertasUbicacion</text>
</a>
</g>
</g>
<!-- Node1&#45;&gt;Node6 -->
<g id="edge5" class="edge">
<title>Node1&#45;&gt;Node6</title>
<path fill="none" stroke="midnightblue" d="M150.26,-44.48C167.25,-40.71 185.62,-36.64 203.06,-32.78"/>
<polygon fill="midnightblue" stroke="midnightblue" points="204.21,-36.11 213.21,-30.53 202.69,-29.27 204.21,-36.11"/>
</g>
<!-- Node3 -->
<g id="node3" class="node">
<title>Node3</title>
<g id="a_node3"><a xlink:href="classUcu_1_1Poo_1_1Locations_1_1Client_1_1LocationApiClient.html#a4bad7ac87beda04ecaa73353f14badd7" target="_top" xlink:title="Obtiene la distancia entre dos coordenadas.">
<polygon fill="white" stroke="black" points="401,-88.5 401,-118.5 578,-118.5 578,-88.5 401,-88.5"/>
<text text-anchor="start" x="409" y="-106.5" font-family="Helvetica,sans-Serif" font-size="10.00">Ucu.Poo.Locations.Client.</text>
<text text-anchor="middle" x="489.5" y="-95.5" font-family="Helvetica,sans-Serif" font-size="10.00">LocationApiClient.GetDistanceAsync</text>
</a>
</g>
</g>
<!-- Node2&#45;&gt;Node3 -->
<g id="edge2" class="edge">
<title>Node2&#45;&gt;Node3</title>
<path fill="none" stroke="midnightblue" d="M356.61,-103.5C367.66,-103.5 379.19,-103.5 390.64,-103.5"/>
<polygon fill="midnightblue" stroke="midnightblue" points="390.67,-107 400.67,-103.5 390.67,-100 390.67,-107"/>
</g>
<!-- Node5 -->
<g id="node5" class="node">
<title>Node5</title>
<g id="a_node5"><a xlink:href="classUcu_1_1Poo_1_1Locations_1_1Client_1_1LocationApiClient.html#a775052647014829c8b09dd91b0ff2762" target="_top" xlink:title="Obtiene las coordenadas de una dirección.">
<polygon fill="white" stroke="black" points="798,-22.5 798,-52.5 974,-52.5 974,-22.5 798,-22.5"/>
<text text-anchor="start" x="806" y="-40.5" font-family="Helvetica,sans-Serif" font-size="10.00">Ucu.Poo.Locations.Client.</text>
<text text-anchor="middle" x="886" y="-29.5" font-family="Helvetica,sans-Serif" font-size="10.00">LocationApiClient.GetLocationAsync</text>
</a>
</g>
</g>
<!-- Node4&#45;&gt;Node5 -->
<g id="edge4" class="edge">
<title>Node4&#45;&gt;Node5</title>
<path fill="none" stroke="midnightblue" d="M762.26,-37.5C770.62,-37.5 779.24,-37.5 787.85,-37.5"/>
<polygon fill="midnightblue" stroke="midnightblue" points="787.94,-41 797.94,-37.5 787.94,-34 787.94,-41"/>
</g>
<!-- Node7 -->
<g id="node7" class="node">
<title>Node7</title>
<g id="a_node7"><a xlink:href="classProyecto__Final_1_1Buscador.html#a2c74e8d41cf6f6307a4dcae5d247f79b" target="_top" xlink:title="/// En base a la ubicación del Emprendedor, retorna una lista con todas las ofertas que se encuentren...">
<polygon fill="white" stroke="black" points="425,-0.5 425,-30.5 554,-30.5 554,-0.5 425,-0.5"/>
<text text-anchor="start" x="433" y="-18.5" font-family="Helvetica,sans-Serif" font-size="10.00">Proyecto_Final.Buscador.</text>
<text text-anchor="middle" x="489.5" y="-7.5" font-family="Helvetica,sans-Serif" font-size="10.00">VerOfertasUbicacion</text>
</a>
</g>
</g>
<!-- Node6&#45;&gt;Node7 -->
<g id="edge6" class="edge">
<title>Node6&#45;&gt;Node7</title>
<path fill="none" stroke="midnightblue" d="M365.1,-15.5C381.43,-15.5 398.48,-15.5 414.51,-15.5"/>
<polygon fill="midnightblue" stroke="midnightblue" points="414.88,-19 424.88,-15.5 414.88,-12 414.88,-19"/>
</g>
<!-- Node7&#45;&gt;Node4 -->
<g id="edge7" class="edge">
<title>Node7&#45;&gt;Node4</title>
<path fill="none" stroke="midnightblue" d="M554.03,-22.61C569.81,-24.38 586.97,-26.3 603.55,-28.16"/>
<polygon fill="midnightblue" stroke="midnightblue" points="603.46,-31.67 613.79,-29.3 604.24,-24.71 603.46,-31.67"/>
</g>
</g>
</svg>
