<?xml version="1.0" encoding="UTF-8" standalone="no"?>
<!DOCTYPE svg PUBLIC "-//W3C//DTD SVG 1.1//EN"
 "http://www.w3.org/Graphics/SVG/1.1/DTD/svg11.dtd">
<!-- Generated by graphviz version 2.49.3 (20211023.0002)
 -->
<!-- Title: Proyecto_Final.Datos.LoadData Pages: 1 -->
<svg width="333pt" height="137pt"
 viewBox="0.00 0.00 333.00 137.00" xmlns="http://www.w3.org/2000/svg" xmlns:xlink="http://www.w3.org/1999/xlink">
<g id="graph0" class="graph" transform="scale(1 1) rotate(0) translate(4 133)">
<title>Proyecto_Final.Datos.LoadData</title>
<polygon fill="white" stroke="transparent" points="-4,4 -4,-133 329,-133 329,4 -4,4"/>
<!-- Node1 -->
<g id="node1" class="node">
<title>Node1</title>
<g id="a_node1"><a xlink:title="Al inicializar el programa se obtienen todos los datos de la DB.">
<polygon fill="#bfbfbf" stroke="black" points="0,-55 0,-74 155,-74 155,-55 0,-55"/>
<text text-anchor="middle" x="77.5" y="-62" font-family="Helvetica,sans-Serif" font-size="10.00">Proyecto_Final.Datos.LoadData</text>
</a>
</g>
</g>
<!-- Node2 -->
<g id="node2" class="node">
<title>Node2</title>
<g id="a_node2"><a xlink:href="classProyecto__Final_1_1Datos.html#aa742d8a592c4fe99fc03929aa03131fe" target="_top" xlink:title="Carga las publicaciones en base a los datos de las publicaciones almacenadas en todos los Usuarios Em...">
<polygon fill="white" stroke="black" points="191,-98.5 191,-128.5 325,-128.5 325,-98.5 191,-98.5"/>
<text text-anchor="start" x="199" y="-116.5" font-family="Helvetica,sans-Serif" font-size="10.00">Proyecto_Final.Datos.Load</text>
<text text-anchor="middle" x="258" y="-105.5" font-family="Helvetica,sans-Serif" font-size="10.00">Publications</text>
</a>
</g>
</g>
<!-- Node1&#45;&gt;Node2 -->
<g id="edge1" class="edge">
<title>Node1&#45;&gt;Node2</title>
<path fill="none" stroke="midnightblue" d="M113.34,-74.06C135.84,-80.24 165.8,-88.46 192.54,-95.8"/>
<polygon fill="midnightblue" stroke="midnightblue" points="191.65,-99.19 202.22,-98.46 193.51,-92.44 191.65,-99.19"/>
</g>
<!-- Node3 -->
<g id="node3" class="node">
<title>Node3</title>
<g id="a_node3"><a xlink:href="classProyecto__Final_1_1Datos.html#a4a9a373ee9141af45ef7ae13f9cd0a48" target="_top" xlink:title="Carga los datos de los Emprendedores en base a un archivo &quot;.json&quot;.">
<polygon fill="white" stroke="black" points="191,-49.5 191,-79.5 325,-79.5 325,-49.5 191,-49.5"/>
<text text-anchor="start" x="199" y="-67.5" font-family="Helvetica,sans-Serif" font-size="10.00">Proyecto_Final.Datos.Load</text>
<text text-anchor="middle" x="258" y="-56.5" font-family="Helvetica,sans-Serif" font-size="10.00">RegisteredEmprendedores</text>
</a>
</g>
</g>
<!-- Node1&#45;&gt;Node3 -->
<g id="edge2" class="edge">
<title>Node1&#45;&gt;Node3</title>
<path fill="none" stroke="midnightblue" d="M155.24,-64.5C163.7,-64.5 172.32,-64.5 180.78,-64.5"/>
<polygon fill="midnightblue" stroke="midnightblue" points="180.99,-68 190.99,-64.5 180.99,-61 180.99,-68"/>
</g>
<!-- Node4 -->
<g id="node4" class="node">
<title>Node4</title>
<g id="a_node4"><a xlink:href="classProyecto__Final_1_1Datos.html#a4ba66710d34c9ff639d6f75a2344a82a" target="_top" xlink:title="Carga los datos de una empresa en base al archivo &quot;.json&quot;">
<polygon fill="white" stroke="black" points="191,-0.5 191,-30.5 325,-30.5 325,-0.5 191,-0.5"/>
<text text-anchor="start" x="199" y="-18.5" font-family="Helvetica,sans-Serif" font-size="10.00">Proyecto_Final.Datos.Load</text>
<text text-anchor="middle" x="258" y="-7.5" font-family="Helvetica,sans-Serif" font-size="10.00">RegisteredEmpresas</text>
</a>
</g>
</g>
<!-- Node1&#45;&gt;Node4 -->
<g id="edge3" class="edge">
<title>Node1&#45;&gt;Node4</title>
<path fill="none" stroke="midnightblue" d="M113.34,-54.94C135.84,-48.76 165.8,-40.54 192.54,-33.2"/>
<polygon fill="midnightblue" stroke="midnightblue" points="193.51,-36.56 202.22,-30.54 191.65,-29.81 193.51,-36.56"/>
</g>
</g>
</svg>
