<?xml version="1.0" encoding="UTF-8" standalone="no"?>
<!DOCTYPE svg PUBLIC "-//W3C//DTD SVG 1.1//EN"
 "http://www.w3.org/Graphics/SVG/1.1/DTD/svg11.dtd">
<!-- Generated by graphviz version 2.49.3 (20211023.0002)
 -->
<!-- Title: Proyecto_Final.StatusManager.CheckStatus Pages: 1 -->
<svg width="352pt" height="39pt"
 viewBox="0.00 0.00 352.00 39.00" xmlns="http://www.w3.org/2000/svg" xmlns:xlink="http://www.w3.org/1999/xlink">
<g id="graph0" class="graph" transform="scale(1 1) rotate(0) translate(4 35)">
<title>Proyecto_Final.StatusManager.CheckStatus</title>
<polygon fill="white" stroke="transparent" points="-4,4 -4,-35 348,-35 348,4 -4,4"/>
<!-- Node1 -->
<g id="node1" class="node">
<title>Node1</title>
<g id="a_node1"><a xlink:title="Verifica el status actual de un usuario y lo devuelve. Si no tiene estado devuelve el status por defe...">
<polygon fill="#bfbfbf" stroke="black" points="0,-0.5 0,-30.5 154,-30.5 154,-0.5 0,-0.5"/>
<text text-anchor="start" x="8" y="-18.5" font-family="Helvetica,sans-Serif" font-size="10.00">Proyecto_Final.StatusManager.</text>
<text text-anchor="middle" x="77" y="-7.5" font-family="Helvetica,sans-Serif" font-size="10.00">CheckStatus</text>
</a>
</g>
</g>
<!-- Node2 -->
<g id="node2" class="node">
<title>Node2</title>
<g id="a_node2"><a xlink:href="classProyecto__Final_1_1StatusManager.html#abfcd5a9a3f538ddb0f7f7f818c06ff59" target="_top" xlink:title="Otorga un diccionario con los id de usuario como key y su estado como value.">
<polygon fill="white" stroke="black" points="190,-0.5 190,-30.5 344,-30.5 344,-0.5 190,-0.5"/>
<text text-anchor="start" x="198" y="-18.5" font-family="Helvetica,sans-Serif" font-size="10.00">Proyecto_Final.StatusManager.</text>
<text text-anchor="middle" x="267" y="-7.5" font-family="Helvetica,sans-Serif" font-size="10.00">ListaEstadoUsuario</text>
</a>
</g>
</g>
<!-- Node1&#45;&gt;Node2 -->
<g id="edge1" class="edge">
<title>Node1&#45;&gt;Node2</title>
<path fill="none" stroke="midnightblue" d="M154.2,-15.5C162.52,-15.5 171.03,-15.5 179.47,-15.5"/>
<polygon fill="midnightblue" stroke="midnightblue" points="179.7,-19 189.7,-15.5 179.7,-12 179.7,-19"/>
</g>
</g>
</svg>
