<?xml version="1.0" encoding="UTF-8" standalone="no"?>
<!DOCTYPE svg PUBLIC "-//W3C//DTD SVG 1.1//EN"
 "http://www.w3.org/Graphics/SVG/1.1/DTD/svg11.dtd">
<!-- Generated by graphviz version 2.49.3 (20211023.0002)
 -->
<!-- Title: Proyecto_Final.Datos.UpdateOfersData Pages: 1 -->
<svg width="332pt" height="88pt"
 viewBox="0.00 0.00 332.00 88.00" xmlns="http://www.w3.org/2000/svg" xmlns:xlink="http://www.w3.org/1999/xlink">
<g id="graph0" class="graph" transform="scale(1 1) rotate(0) translate(4 84)">
<title>Proyecto_Final.Datos.UpdateOfersData</title>
<polygon fill="white" stroke="transparent" points="-4,4 -4,-84 328,-84 328,4 -4,4"/>
<!-- Node1 -->
<g id="node1" class="node">
<title>Node1</title>
<g id="a_node1"><a xlink:title="Actualiza la informacion de las publicaciones.">
<polygon fill="#bfbfbf" stroke="black" points="0,-24.5 0,-54.5 144,-54.5 144,-24.5 0,-24.5"/>
<text text-anchor="start" x="8" y="-42.5" font-family="Helvetica,sans-Serif" font-size="10.00">Proyecto_Final.Datos.Update</text>
<text text-anchor="middle" x="72" y="-31.5" font-family="Helvetica,sans-Serif" font-size="10.00">OfersData</text>
</a>
</g>
</g>
<!-- Node2 -->
<g id="node2" class="node">
<title>Node2</title>
<g id="a_node2"><a xlink:href="classProyecto__Final_1_1Datos.html#aa742d8a592c4fe99fc03929aa03131fe" target="_top" xlink:title="Carga las publicaciones en base a los datos de las publicaciones almacenadas en todos los Usuarios Em...">
<polygon fill="white" stroke="black" points="185,-49.5 185,-79.5 319,-79.5 319,-49.5 185,-49.5"/>
<text text-anchor="start" x="193" y="-67.5" font-family="Helvetica,sans-Serif" font-size="10.00">Proyecto_Final.Datos.Load</text>
<text text-anchor="middle" x="252" y="-56.5" font-family="Helvetica,sans-Serif" font-size="10.00">Publications</text>
</a>
</g>
</g>
<!-- Node1&#45;&gt;Node2 -->
<g id="edge1" class="edge">
<title>Node1&#45;&gt;Node2</title>
<path fill="none" stroke="midnightblue" d="M144.12,-49.49C154.21,-50.91 164.63,-52.37 174.81,-53.8"/>
<polygon fill="midnightblue" stroke="midnightblue" points="174.52,-57.29 184.9,-55.22 175.49,-50.36 174.52,-57.29"/>
</g>
<!-- Node3 -->
<g id="node3" class="node">
<title>Node3</title>
<g id="a_node3"><a xlink:href="classProyecto__Final_1_1Datos.html#a36bd6929f8b22d7ff510ea5698712e81" target="_top" xlink:title="Actualiza los datos que se encuentran almacenados en el &quot;.json&quot;, para que sean iguales a los datos al...">
<polygon fill="white" stroke="black" points="180,-0.5 180,-30.5 324,-30.5 324,-0.5 180,-0.5"/>
<text text-anchor="start" x="188" y="-18.5" font-family="Helvetica,sans-Serif" font-size="10.00">Proyecto_Final.Datos.Update</text>
<text text-anchor="middle" x="252" y="-7.5" font-family="Helvetica,sans-Serif" font-size="10.00">EmpresasData</text>
</a>
</g>
</g>
<!-- Node1&#45;&gt;Node3 -->
<g id="edge2" class="edge">
<title>Node1&#45;&gt;Node3</title>
<path fill="none" stroke="midnightblue" d="M144.12,-29.91C152.61,-28.77 161.33,-27.59 169.94,-26.43"/>
<polygon fill="midnightblue" stroke="midnightblue" points="170.55,-29.88 180,-25.07 169.62,-22.94 170.55,-29.88"/>
</g>
</g>
</svg>
