<?xml version="1.0" encoding="UTF-8" standalone="no"?>
<!DOCTYPE svg PUBLIC "-//W3C//DTD SVG 1.1//EN"
 "http://www.w3.org/Graphics/SVG/1.1/DTD/svg11.dtd">
<!-- Generated by graphviz version 2.49.3 (20211023.0002)
 -->
<!-- Title: Proyecto_Final.BaseHandler.Cancel Pages: 1 -->
<svg width="330pt" height="88pt"
 viewBox="0.00 0.00 330.00 88.00" xmlns="http://www.w3.org/2000/svg" xmlns:xlink="http://www.w3.org/1999/xlink">
<g id="graph0" class="graph" transform="scale(1 1) rotate(0) translate(4 84)">
<title>Proyecto_Final.BaseHandler.Cancel</title>
<polygon fill="white" stroke="transparent" points="-4,4 -4,-84 326,-84 326,4 -4,4"/>
<!-- Node1 -->
<g id="node1" class="node">
<title>Node1</title>
<g id="a_node1"><a xlink:title="Retorna este &quot;handler&quot; al estado inicial. En los &quot;handler&quot; sin estado no hace nada....">
<polygon fill="#bfbfbf" stroke="black" points="0,-24.5 0,-54.5 143,-54.5 143,-24.5 0,-24.5"/>
<text text-anchor="start" x="8" y="-42.5" font-family="Helvetica,sans-Serif" font-size="10.00">Proyecto_Final.BaseHandler.</text>
<text text-anchor="middle" x="71.5" y="-31.5" font-family="Helvetica,sans-Serif" font-size="10.00">Cancel</text>
</a>
</g>
</g>
<!-- Node2 -->
<g id="node2" class="node">
<title>Node2</title>
<g id="a_node2"><a xlink:href="interfaceProyecto__Final_1_1IHandler.html#a8a0b8f3049153294caef7d925f6f89d5" target="_top" xlink:title="Retorna este &quot;handler&quot; al estado inicial y cancela el próximo &quot;handler&quot; si existe....">
<polygon fill="white" stroke="black" points="189,-49.5 189,-79.5 312,-79.5 312,-49.5 189,-49.5"/>
<text text-anchor="start" x="197" y="-67.5" font-family="Helvetica,sans-Serif" font-size="10.00">Proyecto_Final.IHandler.</text>
<text text-anchor="middle" x="250.5" y="-56.5" font-family="Helvetica,sans-Serif" font-size="10.00">Cancel</text>
</a>
</g>
</g>
<!-- Node1&#45;&gt;Node2 -->
<g id="edge1" class="edge">
<title>Node1&#45;&gt;Node2</title>
<path fill="none" stroke="midnightblue" d="M143.22,-49.49C154.91,-51.14 167.04,-52.85 178.73,-54.5"/>
<polygon fill="midnightblue" stroke="midnightblue" points="178.48,-58 188.87,-55.94 179.46,-51.07 178.48,-58"/>
</g>
<!-- Node3 -->
<g id="node3" class="node">
<title>Node3</title>
<g id="a_node3"><a xlink:href="classProyecto__Final_1_1BaseHandler.html#a257a1c6345d6e056b0d8d097ccaec03e" target="_top" xlink:title="Este método puede ser sobreescrito en las clases sucesores que procesan varios mensajes cambiando de ...">
<polygon fill="white" stroke="black" points="179,-0.5 179,-30.5 322,-30.5 322,-0.5 179,-0.5"/>
<text text-anchor="start" x="187" y="-18.5" font-family="Helvetica,sans-Serif" font-size="10.00">Proyecto_Final.BaseHandler.</text>
<text text-anchor="middle" x="250.5" y="-7.5" font-family="Helvetica,sans-Serif" font-size="10.00">InternalCancel</text>
</a>
</g>
</g>
<!-- Node1&#45;&gt;Node3 -->
<g id="edge2" class="edge">
<title>Node1&#45;&gt;Node3</title>
<path fill="none" stroke="midnightblue" d="M143.22,-29.91C151.66,-28.77 160.33,-27.59 168.9,-26.43"/>
<polygon fill="midnightblue" stroke="midnightblue" points="169.46,-29.89 178.89,-25.07 168.51,-22.95 169.46,-29.89"/>
</g>
</g>
</svg>
