<?xml version="1.0" encoding="UTF-8" standalone="no"?>
<!DOCTYPE svg PUBLIC "-//W3C//DTD SVG 1.1//EN"
 "http://www.w3.org/Graphics/SVG/1.1/DTD/svg11.dtd">
<!-- Generated by graphviz version 2.49.3 (20211023.0002)
 -->
<!-- Title: Proyecto_Final.Oferta.AgregarMsjClave Pages: 1 -->
<svg width="908pt" height="113pt"
 viewBox="0.00 0.00 908.00 113.00" xmlns="http://www.w3.org/2000/svg" xmlns:xlink="http://www.w3.org/1999/xlink">
<g id="graph0" class="graph" transform="scale(1 1) rotate(0) translate(4 109)">
<title>Proyecto_Final.Oferta.AgregarMsjClave</title>
<polygon fill="white" stroke="transparent" points="-4,4 -4,-109 904,-109 904,4 -4,4"/>
<!-- Node1 -->
<g id="node1" class="node">
<title>Node1</title>
<g id="a_node1"><a xlink:title="Agrega una palabra clave a la listas de palabras clave de la oferta.">
<polygon fill="#bfbfbf" stroke="black" points="752,-24.5 752,-54.5 900,-54.5 900,-24.5 752,-24.5"/>
<text text-anchor="start" x="760" y="-42.5" font-family="Helvetica,sans-Serif" font-size="10.00">Proyecto_Final.Oferta.Agregar</text>
<text text-anchor="middle" x="826" y="-31.5" font-family="Helvetica,sans-Serif" font-size="10.00">MsjClave</text>
</a>
</g>
</g>
<!-- Node2 -->
<g id="node2" class="node">
<title>Node2</title>
<g id="a_node2"><a xlink:href="classProyecto__Final_1_1Empresa.html#aa68dbd17274482d7958f0897c9887b5b" target="_top" xlink:title="Agrega una palabra clave a una publicacion determinada.">
<polygon fill="white" stroke="black" points="555,-49.5 555,-79.5 716,-79.5 716,-49.5 555,-49.5"/>
<text text-anchor="start" x="563" y="-67.5" font-family="Helvetica,sans-Serif" font-size="10.00">Proyecto_Final.Empresa.Agregar</text>
<text text-anchor="middle" x="635.5" y="-56.5" font-family="Helvetica,sans-Serif" font-size="10.00">MsjClave</text>
</a>
</g>
</g>
<!-- Node1&#45;&gt;Node2 -->
<g id="edge1" class="edge">
<title>Node1&#45;&gt;Node2</title>
<path fill="none" stroke="midnightblue" d="M741.89,-50.52C733.35,-51.66 724.68,-52.81 716.17,-53.93"/>
<polygon fill="midnightblue" stroke="midnightblue" points="742.4,-53.99 751.85,-49.2 741.48,-47.05 742.4,-53.99"/>
</g>
<!-- Node7 -->
<g id="node7" class="node">
<title>Node7</title>
<g id="a_node7"><a xlink:href="classProyecto__Final_1_1OfertaTest.html#ac2fe0d5392b4de65dd051b79f19ca5e8" target="_top" xlink:title="Testea si el método agrega una palabra clave a la oferta.">
<polygon fill="white" stroke="black" points="569,-0.5 569,-30.5 702,-30.5 702,-0.5 569,-0.5"/>
<text text-anchor="start" x="577" y="-18.5" font-family="Helvetica,sans-Serif" font-size="10.00">Proyecto_Final.OfertaTest.</text>
<text text-anchor="middle" x="635.5" y="-7.5" font-family="Helvetica,sans-Serif" font-size="10.00">AgregarMsjClaveTest</text>
</a>
</g>
</g>
<!-- Node1&#45;&gt;Node7 -->
<g id="edge6" class="edge">
<title>Node1&#45;&gt;Node7</title>
<path fill="none" stroke="midnightblue" d="M741.79,-28.91C728.54,-27.22 715,-25.49 702.23,-23.87"/>
<polygon fill="midnightblue" stroke="midnightblue" points="741.49,-32.4 751.85,-30.19 742.37,-25.45 741.49,-32.4"/>
</g>
<!-- Node3 -->
<g id="node3" class="node">
<title>Node3</title>
<g id="a_node3"><a xlink:href="classProyecto__Final_1_1UserEmpresa.html#a39d58c8a2fbc7b08395014dbebb891e6" target="_top" xlink:title="Como empresa, quiero indicar un conjunto de palabras claves asociadas a la publicación de los materia...">
<polygon fill="white" stroke="black" points="372,-49.5 372,-79.5 519,-79.5 519,-49.5 372,-49.5"/>
<text text-anchor="start" x="380" y="-67.5" font-family="Helvetica,sans-Serif" font-size="10.00">Proyecto_Final.UserEmpresa.</text>
<text text-anchor="middle" x="445.5" y="-56.5" font-family="Helvetica,sans-Serif" font-size="10.00">CrearMsjClave</text>
</a>
</g>
</g>
<!-- Node2&#45;&gt;Node3 -->
<g id="edge2" class="edge">
<title>Node2&#45;&gt;Node3</title>
<path fill="none" stroke="midnightblue" d="M544.75,-64.5C536.18,-64.5 527.57,-64.5 519.19,-64.5"/>
<polygon fill="midnightblue" stroke="midnightblue" points="544.77,-68 554.77,-64.5 544.77,-61 544.77,-68"/>
</g>
<!-- Node4 -->
<g id="node4" class="node">
<title>Node4</title>
<g id="a_node4"><a xlink:href="classProyecto__Final_1_1UserEmpresa.html#a281d3324e4fc157b938dc1d4a0a1f006" target="_top" xlink:title="Como empresa, quiero publicar una oferta de materiales reciclables o residuos, para que de esa forma ...">
<polygon fill="white" stroke="black" points="189,-74.5 189,-104.5 336,-104.5 336,-74.5 189,-74.5"/>
<text text-anchor="start" x="197" y="-92.5" font-family="Helvetica,sans-Serif" font-size="10.00">Proyecto_Final.UserEmpresa.</text>
<text text-anchor="middle" x="262.5" y="-81.5" font-family="Helvetica,sans-Serif" font-size="10.00">CrearOferta</text>
</a>
</g>
</g>
<!-- Node3&#45;&gt;Node4 -->
<g id="edge3" class="edge">
<title>Node3&#45;&gt;Node4</title>
<path fill="none" stroke="midnightblue" d="M361.88,-75.91C353.28,-77.1 344.58,-78.3 336.09,-79.47"/>
<polygon fill="midnightblue" stroke="midnightblue" points="362.5,-79.36 371.92,-74.52 361.54,-72.43 362.5,-79.36"/>
</g>
<!-- Node6 -->
<g id="node6" class="node">
<title>Node6</title>
<g id="a_node6"><a xlink:href="classProyecto__Final_1_1AddKeyWordHandler.html#acb30378c0a9a39b0fd0b4d5dfc9886dc" target="_top" xlink:title="Procesa el mensaje &quot;/agregar_palabra&quot; y retorna true; retorna false en caso contrario.">
<polygon fill="white" stroke="black" points="191,-25.5 191,-55.5 334,-55.5 334,-25.5 191,-25.5"/>
<text text-anchor="start" x="199" y="-43.5" font-family="Helvetica,sans-Serif" font-size="10.00">Proyecto_Final.AddKeyWord</text>
<text text-anchor="middle" x="262.5" y="-32.5" font-family="Helvetica,sans-Serif" font-size="10.00">Handler.InternalHandle</text>
</a>
</g>
</g>
<!-- Node3&#45;&gt;Node6 -->
<g id="edge5" class="edge">
<title>Node3&#45;&gt;Node6</title>
<path fill="none" stroke="midnightblue" d="M361.89,-53.55C352.58,-52.31 343.16,-51.06 334.03,-49.85"/>
<polygon fill="midnightblue" stroke="midnightblue" points="361.55,-57.03 371.92,-54.88 362.47,-50.09 361.55,-57.03"/>
</g>
<!-- Node5 -->
<g id="node5" class="node">
<title>Node5</title>
<g id="a_node5"><a xlink:href="classProyecto__Final_1_1PublishHandler.html#aac8659f3d62aae4384be55fe0897f309" target="_top" xlink:title="Procesa el mensaje &quot;/publicar&quot; y retorna true; retorna false en caso contrario.">
<polygon fill="white" stroke="black" points="0,-74.5 0,-104.5 153,-104.5 153,-74.5 0,-74.5"/>
<text text-anchor="start" x="8" y="-92.5" font-family="Helvetica,sans-Serif" font-size="10.00">Proyecto_Final.PublishHandler.</text>
<text text-anchor="middle" x="76.5" y="-81.5" font-family="Helvetica,sans-Serif" font-size="10.00">InternalHandle</text>
</a>
</g>
</g>
<!-- Node4&#45;&gt;Node5 -->
<g id="edge4" class="edge">
<title>Node4&#45;&gt;Node5</title>
<path fill="none" stroke="midnightblue" d="M178.78,-89.5C170.2,-89.5 161.51,-89.5 153.02,-89.5"/>
<polygon fill="midnightblue" stroke="midnightblue" points="178.78,-93 188.78,-89.5 178.78,-86 178.78,-93"/>
</g>
</g>
</svg>
