<?xml version="1.0" encoding="UTF-8" standalone="no"?>
<!DOCTYPE svg PUBLIC "-//W3C//DTD SVG 1.1//EN"
 "http://www.w3.org/Graphics/SVG/1.1/DTD/svg11.dtd">
<!-- Generated by graphviz version 2.49.3 (20211023.0002)
 -->
<!-- Title: Proyecto_Final.GoodByeHandler.InternalHandle Pages: 1 -->
<svg width="348pt" height="39pt"
 viewBox="0.00 0.00 348.00 39.00" xmlns="http://www.w3.org/2000/svg" xmlns:xlink="http://www.w3.org/1999/xlink">
<g id="graph0" class="graph" transform="scale(1 1) rotate(0) translate(4 35)">
<title>Proyecto_Final.GoodByeHandler.InternalHandle</title>
<polygon fill="white" stroke="transparent" points="-4,4 -4,-35 344,-35 344,4 -4,4"/>
<!-- Node1 -->
<g id="node1" class="node">
<title>Node1</title>
<g id="a_node1"><a xlink:title="Procesa los mensajes &quot;/chau&quot; y &quot;/adiós&quot; y retorna true; retorna false en caso contrario.">
<polygon fill="#bfbfbf" stroke="black" points="0,-0.5 0,-30.5 161,-30.5 161,-0.5 0,-0.5"/>
<text text-anchor="start" x="8" y="-18.5" font-family="Helvetica,sans-Serif" font-size="10.00">Proyecto_Final.GoodByeHandler.</text>
<text text-anchor="middle" x="80.5" y="-7.5" font-family="Helvetica,sans-Serif" font-size="10.00">InternalHandle</text>
</a>
</g>
</g>
<!-- Node2 -->
<g id="node2" class="node">
<title>Node2</title>
<g id="a_node2"><a xlink:href="classProyecto__Final_1_1BaseHandler.html#ad1e4feff8eb3219fdd3f19c8e76c4e81" target="_top" xlink:title="Determina si este &quot;handler&quot; puede procesar el mensaje. En la clase base se utiliza el array BaseHandl...">
<polygon fill="white" stroke="black" points="197,-0.5 197,-30.5 340,-30.5 340,-0.5 197,-0.5"/>
<text text-anchor="start" x="205" y="-18.5" font-family="Helvetica,sans-Serif" font-size="10.00">Proyecto_Final.BaseHandler.</text>
<text text-anchor="middle" x="268.5" y="-7.5" font-family="Helvetica,sans-Serif" font-size="10.00">CanHandle</text>
</a>
</g>
</g>
<!-- Node1&#45;&gt;Node2 -->
<g id="edge1" class="edge">
<title>Node1&#45;&gt;Node2</title>
<path fill="none" stroke="midnightblue" d="M161.19,-15.5C169.6,-15.5 178.16,-15.5 186.59,-15.5"/>
<polygon fill="midnightblue" stroke="midnightblue" points="186.78,-19 196.78,-15.5 186.78,-12 186.78,-19"/>
</g>
</g>
</svg>
