<?xml version="1.0" encoding="UTF-8" standalone="no"?>
<!DOCTYPE svg PUBLIC "-//W3C//DTD SVG 1.1//EN"
 "http://www.w3.org/Graphics/SVG/1.1/DTD/svg11.dtd">
<!-- Generated by graphviz version 2.49.3 (20211023.0002)
 -->
<!-- Title: Proyecto_Final.Emprendedor.VerificarConsumo Pages: 1 -->
<svg width="555pt" height="137pt"
 viewBox="0.00 0.00 555.00 137.00" xmlns="http://www.w3.org/2000/svg" xmlns:xlink="http://www.w3.org/1999/xlink">
<g id="graph0" class="graph" transform="scale(1 1) rotate(0) translate(4 133)">
<title>Proyecto_Final.Emprendedor.VerificarConsumo</title>
<polygon fill="white" stroke="transparent" points="-4,4 -4,-133 551,-133 551,4 -4,4"/>
<!-- Node1 -->
<g id="node1" class="node">
<title>Node1</title>
<g id="a_node1"><a xlink:title="Como emprendedor, quiero saber cuántos materiales o residuos consumí en un período de tiempo,...">
<polygon fill="#bfbfbf" stroke="black" points="401,-49.5 401,-79.5 547,-79.5 547,-49.5 401,-49.5"/>
<text text-anchor="start" x="409" y="-67.5" font-family="Helvetica,sans-Serif" font-size="10.00">Proyecto_Final.Emprendedor.</text>
<text text-anchor="middle" x="474" y="-56.5" font-family="Helvetica,sans-Serif" font-size="10.00">VerificarConsumo</text>
</a>
</g>
</g>
<!-- Node2 -->
<g id="node2" class="node">
<title>Node2</title>
<g id="a_node2"><a xlink:href="classProyecto__Final_1_1UserEmprendedor.html#a7df5a29374072534429f58061989da70" target="_top" xlink:title="Como emprendedor, quiero saber cuántos materiales o residuos consumí en un período de tiempo,...">
<polygon fill="white" stroke="black" points="199,-49.5 199,-79.5 365,-79.5 365,-49.5 199,-49.5"/>
<text text-anchor="start" x="207" y="-67.5" font-family="Helvetica,sans-Serif" font-size="10.00">Proyecto_Final.UserEmprendedor.</text>
<text text-anchor="middle" x="282" y="-56.5" font-family="Helvetica,sans-Serif" font-size="10.00">VerificarConsumo</text>
</a>
</g>
</g>
<!-- Node1&#45;&gt;Node2 -->
<g id="edge1" class="edge">
<title>Node1&#45;&gt;Node2</title>
<path fill="none" stroke="midnightblue" d="M390.69,-64.5C382.25,-64.5 373.67,-64.5 365.23,-64.5"/>
<polygon fill="midnightblue" stroke="midnightblue" points="390.9,-68 400.9,-64.5 390.9,-61 390.9,-68"/>
</g>
<!-- Node3 -->
<g id="node3" class="node">
<title>Node3</title>
<g id="a_node3"><a xlink:href="classProyecto__Final_1_1MaterialsConsumedHandler.html#ad4cded96eff06ffbf55af46918f996ef" target="_top" xlink:title="Procesa el mensaje &quot;/materiales_consumidos&quot; y retorna true; retorna false en caso contrario.">
<polygon fill="white" stroke="black" points="1,-98.5 1,-128.5 162,-128.5 162,-98.5 1,-98.5"/>
<text text-anchor="start" x="9" y="-116.5" font-family="Helvetica,sans-Serif" font-size="10.00">Proyecto_Final.Materials</text>
<text text-anchor="middle" x="81.5" y="-105.5" font-family="Helvetica,sans-Serif" font-size="10.00">ConsumedHandler.InternalHandle</text>
</a>
</g>
</g>
<!-- Node2&#45;&gt;Node3 -->
<g id="edge2" class="edge">
<title>Node2&#45;&gt;Node3</title>
<path fill="none" stroke="midnightblue" d="M210.2,-81.98C188.32,-87.38 164.43,-93.28 143.29,-98.49"/>
<polygon fill="midnightblue" stroke="midnightblue" points="211.22,-85.33 220.09,-79.53 209.55,-78.53 211.22,-85.33"/>
</g>
<!-- Node4 -->
<g id="node4" class="node">
<title>Node4</title>
<g id="a_node4"><a xlink:href="classProyecto__Final_1_1UserEmprendedorTests.html#a0c72be1f281f0f3100bb2252d72e1d64" target="_top" xlink:title="Test para revisar si la clase es capaz de verificar el consumo de un Emprendedor correctamente....">
<polygon fill="white" stroke="black" points="0,-49.5 0,-79.5 163,-79.5 163,-49.5 0,-49.5"/>
<text text-anchor="start" x="8" y="-67.5" font-family="Helvetica,sans-Serif" font-size="10.00">Proyecto_Final.UserEmprendedor</text>
<text text-anchor="middle" x="81.5" y="-56.5" font-family="Helvetica,sans-Serif" font-size="10.00">Tests.VerificarConsumoFailTest</text>
</a>
</g>
</g>
<!-- Node2&#45;&gt;Node4 -->
<g id="edge3" class="edge">
<title>Node2&#45;&gt;Node4</title>
<path fill="none" stroke="midnightblue" d="M188.78,-64.5C180.17,-64.5 171.5,-64.5 163.01,-64.5"/>
<polygon fill="midnightblue" stroke="midnightblue" points="188.83,-68 198.83,-64.5 188.83,-61 188.83,-68"/>
</g>
<!-- Node5 -->
<g id="node5" class="node">
<title>Node5</title>
<g id="a_node5"><a xlink:href="classProyecto__Final_1_1UserEmprendedorTests.html#a0770897e192892ccd3cd43f922e33c9e" target="_top" xlink:title="Test para revisar si la clase es capaz de verificar el consumo de un Emprendedor correctamente.">
<polygon fill="white" stroke="black" points="0,-0.5 0,-30.5 163,-30.5 163,-0.5 0,-0.5"/>
<text text-anchor="start" x="8" y="-18.5" font-family="Helvetica,sans-Serif" font-size="10.00">Proyecto_Final.UserEmprendedor</text>
<text text-anchor="middle" x="81.5" y="-7.5" font-family="Helvetica,sans-Serif" font-size="10.00">Tests.VerificarConsumoTest</text>
</a>
</g>
</g>
<!-- Node2&#45;&gt;Node5 -->
<g id="edge4" class="edge">
<title>Node2&#45;&gt;Node5</title>
<path fill="none" stroke="midnightblue" d="M210.2,-47.02C188.32,-41.62 164.43,-35.72 143.29,-30.51"/>
<polygon fill="midnightblue" stroke="midnightblue" points="209.55,-50.47 220.09,-49.47 211.22,-43.67 209.55,-50.47"/>
</g>
</g>
</svg>
