<?xml version="1.0" encoding="UTF-8" standalone="no"?>
<!DOCTYPE svg PUBLIC "-//W3C//DTD SVG 1.1//EN"
 "http://www.w3.org/Graphics/SVG/1.1/DTD/svg11.dtd">
<!-- Generated by graphviz version 2.49.3 (20211023.0002)
 -->
<!-- Title: Proyecto_Final.Datos.UpdateTokensData Pages: 1 -->
<svg width="337pt" height="88pt"
 viewBox="0.00 0.00 337.00 88.00" xmlns="http://www.w3.org/2000/svg" xmlns:xlink="http://www.w3.org/1999/xlink">
<g id="graph0" class="graph" transform="scale(1 1) rotate(0) translate(4 84)">
<title>Proyecto_Final.Datos.UpdateTokensData</title>
<polygon fill="white" stroke="transparent" points="-4,4 -4,-84 333,-84 333,4 -4,4"/>
<!-- Node1 -->
<g id="node1" class="node">
<title>Node1</title>
<g id="a_node1"><a xlink:title="Actualiza los datos almacenados en la listaTokens">
<polygon fill="#bfbfbf" stroke="black" points="185,-24.5 185,-54.5 329,-54.5 329,-24.5 185,-24.5"/>
<text text-anchor="start" x="193" y="-42.5" font-family="Helvetica,sans-Serif" font-size="10.00">Proyecto_Final.Datos.Update</text>
<text text-anchor="middle" x="257" y="-31.5" font-family="Helvetica,sans-Serif" font-size="10.00">TokensData</text>
</a>
</g>
</g>
<!-- Node2 -->
<g id="node2" class="node">
<title>Node2</title>
<g id="a_node2"><a xlink:href="classProyecto__Final_1_1Datos.html#aac1ea5bd9d7c5d2d9bdcc6957dc98097" target="_top" xlink:title="Agrega un token a la lista.">
<polygon fill="white" stroke="black" points="1,-49.5 1,-79.5 148,-79.5 148,-49.5 1,-49.5"/>
<text text-anchor="start" x="9" y="-67.5" font-family="Helvetica,sans-Serif" font-size="10.00">Proyecto_Final.Datos.Agregar</text>
<text text-anchor="middle" x="74.5" y="-56.5" font-family="Helvetica,sans-Serif" font-size="10.00">Token</text>
</a>
</g>
</g>
<!-- Node1&#45;&gt;Node2 -->
<g id="edge1" class="edge">
<title>Node1&#45;&gt;Node2</title>
<path fill="none" stroke="midnightblue" d="M174.96,-50.72C166.07,-51.96 157.07,-53.2 148.29,-54.42"/>
<polygon fill="midnightblue" stroke="midnightblue" points="175.5,-54.18 184.92,-49.34 174.54,-47.25 175.5,-54.18"/>
</g>
<!-- Node3 -->
<g id="node3" class="node">
<title>Node3</title>
<g id="a_node3"><a xlink:href="classProyecto__Final_1_1Datos.html#a6d1c23292409ebc0d046bb743dd9cbec" target="_top" xlink:title="Elimina un token de la lista.">
<polygon fill="white" stroke="black" points="0,-0.5 0,-30.5 149,-30.5 149,-0.5 0,-0.5"/>
<text text-anchor="start" x="8" y="-18.5" font-family="Helvetica,sans-Serif" font-size="10.00">Proyecto_Final.Datos.Eliminar</text>
<text text-anchor="middle" x="74.5" y="-7.5" font-family="Helvetica,sans-Serif" font-size="10.00">Token</text>
</a>
</g>
</g>
<!-- Node1&#45;&gt;Node3 -->
<g id="edge2" class="edge">
<title>Node1&#45;&gt;Node3</title>
<path fill="none" stroke="midnightblue" d="M174.93,-28.72C166.35,-27.58 157.67,-26.43 149.19,-25.3"/>
<polygon fill="midnightblue" stroke="midnightblue" points="174.55,-32.2 184.92,-30.05 175.47,-25.26 174.55,-32.2"/>
</g>
</g>
</svg>
