<?xml version="1.0" encoding="UTF-8" standalone="no"?>
<!DOCTYPE svg PUBLIC "-//W3C//DTD SVG 1.1//EN"
 "http://www.w3.org/Graphics/SVG/1.1/DTD/svg11.dtd">
<!-- Generated by graphviz version 2.49.3 (20211023.0002)
 -->
<!-- Title: Proyecto_Final.UserEmprendedorTests.VerificarConsumoFailTest Pages: 1 -->
<svg width="555pt" height="39pt"
 viewBox="0.00 0.00 555.00 39.00" xmlns="http://www.w3.org/2000/svg" xmlns:xlink="http://www.w3.org/1999/xlink">
<g id="graph0" class="graph" transform="scale(1 1) rotate(0) translate(4 35)">
<title>Proyecto_Final.UserEmprendedorTests.VerificarConsumoFailTest</title>
<polygon fill="white" stroke="transparent" points="-4,4 -4,-35 551,-35 551,4 -4,4"/>
<!-- Node1 -->
<g id="node1" class="node">
<title>Node1</title>
<g id="a_node1"><a xlink:title="Test para revisar si la clase es capaz de verificar el consumo de un Emprendedor correctamente....">
<polygon fill="#bfbfbf" stroke="black" points="0,-0.5 0,-30.5 163,-30.5 163,-0.5 0,-0.5"/>
<text text-anchor="start" x="8" y="-18.5" font-family="Helvetica,sans-Serif" font-size="10.00">Proyecto_Final.UserEmprendedor</text>
<text text-anchor="middle" x="81.5" y="-7.5" font-family="Helvetica,sans-Serif" font-size="10.00">Tests.VerificarConsumoFailTest</text>
</a>
</g>
</g>
<!-- Node2 -->
<g id="node2" class="node">
<title>Node2</title>
<g id="a_node2"><a xlink:href="classProyecto__Final_1_1UserEmprendedor.html#a7df5a29374072534429f58061989da70" target="_top" xlink:title="Como emprendedor, quiero saber cuántos materiales o residuos consumí en un período de tiempo,...">
<polygon fill="white" stroke="black" points="199,-0.5 199,-30.5 365,-30.5 365,-0.5 199,-0.5"/>
<text text-anchor="start" x="207" y="-18.5" font-family="Helvetica,sans-Serif" font-size="10.00">Proyecto_Final.UserEmprendedor.</text>
<text text-anchor="middle" x="282" y="-7.5" font-family="Helvetica,sans-Serif" font-size="10.00">VerificarConsumo</text>
</a>
</g>
</g>
<!-- Node1&#45;&gt;Node2 -->
<g id="edge1" class="edge">
<title>Node1&#45;&gt;Node2</title>
<path fill="none" stroke="midnightblue" d="M163.24,-15.5C171.56,-15.5 180.05,-15.5 188.49,-15.5"/>
<polygon fill="midnightblue" stroke="midnightblue" points="188.72,-19 198.72,-15.5 188.72,-12 188.72,-19"/>
</g>
<!-- Node3 -->
<g id="node3" class="node">
<title>Node3</title>
<g id="a_node3"><a xlink:href="classProyecto__Final_1_1Emprendedor.html#a1af2bebf0929cca05ae28ea88b8e7e3c" target="_top" xlink:title="Como emprendedor, quiero saber cuántos materiales o residuos consumí en un período de tiempo,...">
<polygon fill="white" stroke="black" points="401,-0.5 401,-30.5 547,-30.5 547,-0.5 401,-0.5"/>
<text text-anchor="start" x="409" y="-18.5" font-family="Helvetica,sans-Serif" font-size="10.00">Proyecto_Final.Emprendedor.</text>
<text text-anchor="middle" x="474" y="-7.5" font-family="Helvetica,sans-Serif" font-size="10.00">VerificarConsumo</text>
</a>
</g>
</g>
<!-- Node2&#45;&gt;Node3 -->
<g id="edge2" class="edge">
<title>Node2&#45;&gt;Node3</title>
<path fill="none" stroke="midnightblue" d="M365.23,-15.5C373.65,-15.5 382.19,-15.5 390.61,-15.5"/>
<polygon fill="midnightblue" stroke="midnightblue" points="390.79,-19 400.79,-15.5 390.79,-12 390.79,-19"/>
</g>
</g>
</svg>
