<?xml version="1.0" encoding="UTF-8" standalone="no"?>
<!DOCTYPE svg PUBLIC "-//W3C//DTD SVG 1.1//EN"
 "http://www.w3.org/Graphics/SVG/1.1/DTD/svg11.dtd">
<!-- Generated by graphviz version 2.49.3 (20211023.0002)
 -->
<!-- Title: Proyecto_Final.Buscador.VerOfertasUbicacion Pages: 1 -->
<svg width="542pt" height="137pt"
 viewBox="0.00 0.00 542.00 137.00" xmlns="http://www.w3.org/2000/svg" xmlns:xlink="http://www.w3.org/1999/xlink">
<g id="graph0" class="graph" transform="scale(1 1) rotate(0) translate(4 133)">
<title>Proyecto_Final.Buscador.VerOfertasUbicacion</title>
<polygon fill="white" stroke="transparent" points="-4,4 -4,-133 538,-133 538,4 -4,4"/>
<!-- Node1 -->
<g id="node1" class="node">
<title>Node1</title>
<g id="a_node1"><a xlink:title="/// En base a la ubicación del Emprendedor, retorna una lista con todas las ofertas que se encuentren...">
<polygon fill="#bfbfbf" stroke="black" points="405,-49.5 405,-79.5 534,-79.5 534,-49.5 405,-49.5"/>
<text text-anchor="start" x="413" y="-67.5" font-family="Helvetica,sans-Serif" font-size="10.00">Proyecto_Final.Buscador.</text>
<text text-anchor="middle" x="469.5" y="-56.5" font-family="Helvetica,sans-Serif" font-size="10.00">VerOfertasUbicacion</text>
</a>
</g>
</g>
<!-- Node2 -->
<g id="node2" class="node">
<title>Node2</title>
<g id="a_node2"><a xlink:href="classProyecto__Final_1_1UserEmprendedor.html#a9a77d8df6165ee77ae68dc7ff3ce39bd" target="_top" xlink:title="En base a la ubicación del Emprendedor, retorna una lista con todas las ofertas que se encuentren a u...">
<polygon fill="white" stroke="black" points="203,-49.5 203,-79.5 369,-79.5 369,-49.5 203,-49.5"/>
<text text-anchor="start" x="211" y="-67.5" font-family="Helvetica,sans-Serif" font-size="10.00">Proyecto_Final.UserEmprendedor.</text>
<text text-anchor="middle" x="286" y="-56.5" font-family="Helvetica,sans-Serif" font-size="10.00">VerOfertasUbicacion</text>
</a>
</g>
</g>
<!-- Node1&#45;&gt;Node2 -->
<g id="edge1" class="edge">
<title>Node1&#45;&gt;Node2</title>
<path fill="none" stroke="midnightblue" d="M394.62,-64.5C386.2,-64.5 377.58,-64.5 369.06,-64.5"/>
<polygon fill="midnightblue" stroke="midnightblue" points="394.77,-68 404.77,-64.5 394.77,-61 394.77,-68"/>
</g>
<!-- Node3 -->
<g id="node3" class="node">
<title>Node3</title>
<g id="a_node3"><a xlink:href="classProyecto__Final_1_1SearchZoneHandler.html#ab824ea9bce444a4cf868b5075d783c88" target="_top" xlink:title="Procesa el mensaje &quot;/buscar_zona&quot; y retorna true; retorna false en caso contrario.">
<polygon fill="white" stroke="black" points="15,-98.5 15,-128.5 152,-128.5 152,-98.5 15,-98.5"/>
<text text-anchor="start" x="23" y="-116.5" font-family="Helvetica,sans-Serif" font-size="10.00">Proyecto_Final.SearchZone</text>
<text text-anchor="middle" x="83.5" y="-105.5" font-family="Helvetica,sans-Serif" font-size="10.00">Handler.InternalHandle</text>
</a>
</g>
</g>
<!-- Node2&#45;&gt;Node3 -->
<g id="edge2" class="edge">
<title>Node2&#45;&gt;Node3</title>
<path fill="none" stroke="midnightblue" d="M213.49,-81.98C191.39,-87.38 167.26,-93.28 145.9,-98.49"/>
<polygon fill="midnightblue" stroke="midnightblue" points="214.6,-85.31 223.48,-79.53 212.94,-78.51 214.6,-85.31"/>
</g>
<!-- Node4 -->
<g id="node4" class="node">
<title>Node4</title>
<g id="a_node4"><a xlink:href="classProyecto__Final_1_1UserEmprendedorTests.html#aacbda5e4eaab3f2dd780bcf555d57b7b" target="_top" xlink:title="Test para revisar si la clase es capaz de buscar ofertas mediante la ubicacion de 2 objetos,...">
<polygon fill="white" stroke="black" points="0,-49.5 0,-79.5 167,-79.5 167,-49.5 0,-49.5"/>
<text text-anchor="start" x="8" y="-67.5" font-family="Helvetica,sans-Serif" font-size="10.00">Proyecto_Final.UserEmprendedor</text>
<text text-anchor="middle" x="83.5" y="-56.5" font-family="Helvetica,sans-Serif" font-size="10.00">Tests.VerOfertasUbicacionFailTest</text>
</a>
</g>
</g>
<!-- Node2&#45;&gt;Node4 -->
<g id="edge3" class="edge">
<title>Node2&#45;&gt;Node4</title>
<path fill="none" stroke="midnightblue" d="M192.86,-64.5C184.28,-64.5 175.63,-64.5 167.15,-64.5"/>
<polygon fill="midnightblue" stroke="midnightblue" points="192.87,-68 202.87,-64.5 192.87,-61 192.87,-68"/>
</g>
<!-- Node5 -->
<g id="node5" class="node">
<title>Node5</title>
<g id="a_node5"><a xlink:href="classProyecto__Final_1_1UserEmprendedorTests.html#a00f07f4def05997a507104006f084308" target="_top" xlink:title="Test para revisar si la clase es capaz de buscar ofertas mediante la ubicacion de 2 objetos,...">
<polygon fill="white" stroke="black" points="2,-0.5 2,-30.5 165,-30.5 165,-0.5 2,-0.5"/>
<text text-anchor="start" x="10" y="-18.5" font-family="Helvetica,sans-Serif" font-size="10.00">Proyecto_Final.UserEmprendedor</text>
<text text-anchor="middle" x="83.5" y="-7.5" font-family="Helvetica,sans-Serif" font-size="10.00">Tests.VerOfertasUbicacionTest</text>
</a>
</g>
</g>
<!-- Node2&#45;&gt;Node5 -->
<g id="edge4" class="edge">
<title>Node2&#45;&gt;Node5</title>
<path fill="none" stroke="midnightblue" d="M213.49,-47.02C191.39,-41.62 167.26,-35.72 145.9,-30.51"/>
<polygon fill="midnightblue" stroke="midnightblue" points="212.94,-50.49 223.48,-49.47 214.6,-43.69 212.94,-50.49"/>
</g>
</g>
</svg>
