<?xml version="1.0" encoding="UTF-8" standalone="no"?>
<!DOCTYPE svg PUBLIC "-//W3C//DTD SVG 1.1//EN"
 "http://www.w3.org/Graphics/SVG/1.1/DTD/svg11.dtd">
<!-- Generated by graphviz version 2.49.3 (20211023.0002)
 -->
<!-- Title: Proyecto_Final.UserEmpresa.CrearMsjClave Pages: 1 -->
<svg width="536pt" height="39pt"
 viewBox="0.00 0.00 536.00 39.00" xmlns="http://www.w3.org/2000/svg" xmlns:xlink="http://www.w3.org/1999/xlink">
<g id="graph0" class="graph" transform="scale(1 1) rotate(0) translate(4 35)">
<title>Proyecto_Final.UserEmpresa.CrearMsjClave</title>
<polygon fill="white" stroke="transparent" points="-4,4 -4,-35 532,-35 532,4 -4,4"/>
<!-- Node1 -->
<g id="node1" class="node">
<title>Node1</title>
<g id="a_node1"><a xlink:title="Como empresa, quiero indicar un conjunto de palabras claves asociadas a la publicación de los materia...">
<polygon fill="#bfbfbf" stroke="black" points="0,-0.5 0,-30.5 147,-30.5 147,-0.5 0,-0.5"/>
<text text-anchor="start" x="8" y="-18.5" font-family="Helvetica,sans-Serif" font-size="10.00">Proyecto_Final.UserEmpresa.</text>
<text text-anchor="middle" x="73.5" y="-7.5" font-family="Helvetica,sans-Serif" font-size="10.00">CrearMsjClave</text>
</a>
</g>
</g>
<!-- Node2 -->
<g id="node2" class="node">
<title>Node2</title>
<g id="a_node2"><a xlink:href="classProyecto__Final_1_1Empresa.html#aa68dbd17274482d7958f0897c9887b5b" target="_top" xlink:title="Agrega una palabra clave a una publicacion determinada.">
<polygon fill="white" stroke="black" points="183,-0.5 183,-30.5 344,-30.5 344,-0.5 183,-0.5"/>
<text text-anchor="start" x="191" y="-18.5" font-family="Helvetica,sans-Serif" font-size="10.00">Proyecto_Final.Empresa.Agregar</text>
<text text-anchor="middle" x="263.5" y="-7.5" font-family="Helvetica,sans-Serif" font-size="10.00">MsjClave</text>
</a>
</g>
</g>
<!-- Node1&#45;&gt;Node2 -->
<g id="edge1" class="edge">
<title>Node1&#45;&gt;Node2</title>
<path fill="none" stroke="midnightblue" d="M147.19,-15.5C155.58,-15.5 164.21,-15.5 172.79,-15.5"/>
<polygon fill="midnightblue" stroke="midnightblue" points="172.83,-19 182.83,-15.5 172.83,-12 172.83,-19"/>
</g>
<!-- Node3 -->
<g id="node3" class="node">
<title>Node3</title>
<g id="a_node3"><a xlink:href="classProyecto__Final_1_1Oferta.html#a21dcf683780c6862d89e5f3485d58d6f" target="_top" xlink:title="Agrega una palabra clave a la listas de palabras clave de la oferta.">
<polygon fill="white" stroke="black" points="380,-0.5 380,-30.5 528,-30.5 528,-0.5 380,-0.5"/>
<text text-anchor="start" x="388" y="-18.5" font-family="Helvetica,sans-Serif" font-size="10.00">Proyecto_Final.Oferta.Agregar</text>
<text text-anchor="middle" x="454" y="-7.5" font-family="Helvetica,sans-Serif" font-size="10.00">MsjClave</text>
</a>
</g>
</g>
<!-- Node2&#45;&gt;Node3 -->
<g id="edge2" class="edge">
<title>Node2&#45;&gt;Node3</title>
<path fill="none" stroke="midnightblue" d="M344.17,-15.5C352.6,-15.5 361.19,-15.5 369.66,-15.5"/>
<polygon fill="midnightblue" stroke="midnightblue" points="369.91,-19 379.91,-15.5 369.91,-12 369.91,-19"/>
</g>
</g>
</svg>
