<?xml version="1.0" encoding="UTF-8" standalone="no"?>
<!DOCTYPE svg PUBLIC "-//W3C//DTD SVG 1.1//EN"
 "http://www.w3.org/Graphics/SVG/1.1/DTD/svg11.dtd">
<!-- Generated by graphviz version 2.49.3 (20211023.0002)
 -->
<!-- Title: Proyecto_Final.BaseHandler.CanHandle Pages: 1 -->
<svg width="357pt" height="921pt"
 viewBox="0.00 0.00 357.00 921.00" xmlns="http://www.w3.org/2000/svg" xmlns:xlink="http://www.w3.org/1999/xlink">
<g id="graph0" class="graph" transform="scale(1 1) rotate(0) translate(4 917)">
<title>Proyecto_Final.BaseHandler.CanHandle</title>
<polygon fill="white" stroke="transparent" points="-4,4 -4,-917 353,-917 353,4 -4,4"/>
<!-- Node1 -->
<g id="node1" class="node">
<title>Node1</title>
<g id="a_node1"><a xlink:title="Determina si este &quot;handler&quot; puede procesar el mensaje. En la clase base se utiliza el array BaseHandl...">
<polygon fill="#bfbfbf" stroke="black" points="206,-441.5 206,-471.5 349,-471.5 349,-441.5 206,-441.5"/>
<text text-anchor="start" x="214" y="-459.5" font-family="Helvetica,sans-Serif" font-size="10.00">Proyecto_Final.BaseHandler.</text>
<text text-anchor="middle" x="277.5" y="-448.5" font-family="Helvetica,sans-Serif" font-size="10.00">CanHandle</text>
</a>
</g>
</g>
<!-- Node2 -->
<g id="node2" class="node">
<title>Node2</title>
<g id="a_node2"><a xlink:href="classProyecto__Final_1_1AddAuthorizationHandler.html#a0d72b7f3b0547c266fef8a59cff1f965" target="_top" xlink:title="Procesa el mensaje &quot;authorization&quot; y retorna true; retorna false en caso contrario.">
<polygon fill="white" stroke="black" points="5.5,-882.5 5.5,-912.5 164.5,-912.5 164.5,-882.5 5.5,-882.5"/>
<text text-anchor="start" x="13.5" y="-900.5" font-family="Helvetica,sans-Serif" font-size="10.00">Proyecto_Final.AddAuthorization</text>
<text text-anchor="middle" x="85" y="-889.5" font-family="Helvetica,sans-Serif" font-size="10.00">Handler.InternalHandle</text>
</a>
</g>
</g>
<!-- Node1&#45;&gt;Node2 -->
<g id="edge1" class="edge">
<title>Node1&#45;&gt;Node2</title>
<path fill="none" stroke="midnightblue" d="M273.33,-481.93C262.69,-563.44 225.71,-816.19 170,-873.5 166.72,-876.87 163.01,-879.78 159.01,-882.28"/>
<polygon fill="midnightblue" stroke="midnightblue" points="276.86,-481.97 274.66,-471.61 269.91,-481.08 276.86,-481.97"/>
</g>
<!-- Node3 -->
<g id="node3" class="node">
<title>Node3</title>
<g id="a_node3"><a xlink:href="classProyecto__Final_1_1AddKeyWordHandler.html#acb30378c0a9a39b0fd0b4d5dfc9886dc" target="_top" xlink:title="Procesa el mensaje &quot;/agregar_palabra&quot; y retorna true; retorna false en caso contrario.">
<polygon fill="white" stroke="black" points="13.5,-833.5 13.5,-863.5 156.5,-863.5 156.5,-833.5 13.5,-833.5"/>
<text text-anchor="start" x="21.5" y="-851.5" font-family="Helvetica,sans-Serif" font-size="10.00">Proyecto_Final.AddKeyWord</text>
<text text-anchor="middle" x="85" y="-840.5" font-family="Helvetica,sans-Serif" font-size="10.00">Handler.InternalHandle</text>
</a>
</g>
</g>
<!-- Node1&#45;&gt;Node3 -->
<g id="edge2" class="edge">
<title>Node1&#45;&gt;Node3</title>
<path fill="none" stroke="midnightblue" d="M277.01,-481.99C276.88,-548.3 267.08,-727.75 170,-824.5 166.03,-828.46 161.44,-831.78 156.52,-834.56"/>
<polygon fill="midnightblue" stroke="midnightblue" points="280.5,-481.63 276.95,-471.65 273.5,-481.67 280.5,-481.63"/>
</g>
<!-- Node4 -->
<g id="node4" class="node">
<title>Node4</title>
<g id="a_node4"><a xlink:href="classProyecto__Final_1_1CommandsHandler.html#a41a72de25cbc1a3b12f20404dab676da" target="_top" xlink:title="Procesa el mensaje &quot;/comandos&quot; y retorna true; retorna false en caso contrario.">
<polygon fill="white" stroke="black" points="0,-784.5 0,-814.5 170,-814.5 170,-784.5 0,-784.5"/>
<text text-anchor="start" x="8" y="-802.5" font-family="Helvetica,sans-Serif" font-size="10.00">Proyecto_Final.CommandsHandler.</text>
<text text-anchor="middle" x="85" y="-791.5" font-family="Helvetica,sans-Serif" font-size="10.00">InternalHandle</text>
</a>
</g>
</g>
<!-- Node1&#45;&gt;Node4 -->
<g id="edge3" class="edge">
<title>Node1&#45;&gt;Node4</title>
<path fill="none" stroke="midnightblue" d="M275.68,-481.85C272.32,-541.88 255.38,-693.79 170,-775.5 166.38,-778.96 162.3,-781.93 157.94,-784.47"/>
<polygon fill="midnightblue" stroke="midnightblue" points="279.18,-481.9 276.16,-471.75 272.19,-481.57 279.18,-481.9"/>
</g>
<!-- Node5 -->
<g id="node5" class="node">
<title>Node5</title>
<g id="a_node5"><a xlink:href="classProyecto__Final_1_1EndOfferHandler.html#a444126facbe1b62946c1911392c670c0" target="_top" xlink:title="Procesa el mensaje &quot;/concretar_publicacion&quot; y retorna true; retorna false en caso contrario.">
<polygon fill="white" stroke="black" points="6,-735.5 6,-765.5 164,-765.5 164,-735.5 6,-735.5"/>
<text text-anchor="start" x="14" y="-753.5" font-family="Helvetica,sans-Serif" font-size="10.00">Proyecto_Final.EndOfferHandler.</text>
<text text-anchor="middle" x="85" y="-742.5" font-family="Helvetica,sans-Serif" font-size="10.00">InternalHandle</text>
</a>
</g>
</g>
<!-- Node1&#45;&gt;Node5 -->
<g id="edge4" class="edge">
<title>Node1&#45;&gt;Node5</title>
<path fill="none" stroke="midnightblue" d="M273.94,-481.58C267.16,-534.78 243.85,-659.51 170,-726.5 166.18,-729.96 161.89,-732.93 157.33,-735.47"/>
<polygon fill="midnightblue" stroke="midnightblue" points="277.42,-481.99 275.12,-471.65 270.47,-481.17 277.42,-481.99"/>
</g>
<!-- Node6 -->
<g id="node6" class="node">
<title>Node6</title>
<g id="a_node6"><a xlink:href="classProyecto__Final_1_1ExitHandler.html#a3630d91e0ce6e25bdf47ba5f49b40fd0" target="_top" xlink:title="Procesa el mensaje &quot;/salir&quot; y retorna true; retorna false en caso contrario.">
<polygon fill="white" stroke="black" points="16,-686.5 16,-716.5 154,-716.5 154,-686.5 16,-686.5"/>
<text text-anchor="start" x="24" y="-704.5" font-family="Helvetica,sans-Serif" font-size="10.00">Proyecto_Final.ExitHandler.</text>
<text text-anchor="middle" x="85" y="-693.5" font-family="Helvetica,sans-Serif" font-size="10.00">InternalHandle</text>
</a>
</g>
</g>
<!-- Node1&#45;&gt;Node6 -->
<g id="edge5" class="edge">
<title>Node1&#45;&gt;Node6</title>
<path fill="none" stroke="midnightblue" d="M271.45,-481.75C260.93,-527.69 232.27,-625.05 170,-677.5 165.24,-681.51 159.86,-684.84 154.16,-687.63"/>
<polygon fill="midnightblue" stroke="midnightblue" points="274.92,-482.25 273.64,-471.74 268.08,-480.76 274.92,-482.25"/>
</g>
<!-- Node7 -->
<g id="node7" class="node">
<title>Node7</title>
<g id="a_node7"><a xlink:href="classProyecto__Final_1_1GoodByeHandler.html#a65cb180c2fb92e1e6212b1013b31f3fc" target="_top" xlink:title="Procesa los mensajes &quot;/chau&quot; y &quot;/adiós&quot; y retorna true; retorna false en caso contrario.">
<polygon fill="white" stroke="black" points="4.5,-637.5 4.5,-667.5 165.5,-667.5 165.5,-637.5 4.5,-637.5"/>
<text text-anchor="start" x="12.5" y="-655.5" font-family="Helvetica,sans-Serif" font-size="10.00">Proyecto_Final.GoodByeHandler.</text>
<text text-anchor="middle" x="85" y="-644.5" font-family="Helvetica,sans-Serif" font-size="10.00">InternalHandle</text>
</a>
</g>
</g>
<!-- Node1&#45;&gt;Node7 -->
<g id="edge6" class="edge">
<title>Node1&#45;&gt;Node7</title>
<path fill="none" stroke="midnightblue" d="M267.92,-481.14C253.6,-518.65 221.22,-589.78 170,-628.5 165.4,-631.98 160.32,-634.95 155,-637.49"/>
<polygon fill="midnightblue" stroke="midnightblue" points="271.3,-482.1 271.48,-471.51 264.73,-479.67 271.3,-482.1"/>
</g>
<!-- Node8 -->
<g id="node8" class="node">
<title>Node8</title>
<g id="a_node8"><a xlink:href="classProyecto__Final_1_1HelloHandler.html#a3cae0323a5cc45a232d41f8b96b5c0b3" target="_top" xlink:title="Procesa el mensaje &quot;/hola&quot; y retorna true; retorna false en caso contrario.">
<polygon fill="white" stroke="black" points="13.5,-588.5 13.5,-618.5 156.5,-618.5 156.5,-588.5 13.5,-588.5"/>
<text text-anchor="start" x="21.5" y="-606.5" font-family="Helvetica,sans-Serif" font-size="10.00">Proyecto_Final.HelloHandler.</text>
<text text-anchor="middle" x="85" y="-595.5" font-family="Helvetica,sans-Serif" font-size="10.00">InternalHandle</text>
</a>
</g>
</g>
<!-- Node1&#45;&gt;Node8 -->
<g id="edge7" class="edge">
<title>Node1&#45;&gt;Node8</title>
<path fill="none" stroke="midnightblue" d="M261.87,-480.61C243.73,-508.5 210.23,-553.85 170,-579.5 164.63,-582.93 158.76,-585.87 152.7,-588.41"/>
<polygon fill="midnightblue" stroke="midnightblue" points="265.02,-482.2 267.43,-471.88 259.11,-478.44 265.02,-482.2"/>
</g>
<!-- Node9 -->
<g id="node9" class="node">
<title>Node9</title>
<g id="a_node9"><a xlink:href="classProyecto__Final_1_1InviteHandler.html#ab3f0d667fac3ac6eed0ef74c68e1e4aa" target="_top" xlink:title="Procesa el mensaje &quot;/invitar&quot; y retorna true; retorna false en caso contrario.">
<polygon fill="white" stroke="black" points="13.5,-539.5 13.5,-569.5 156.5,-569.5 156.5,-539.5 13.5,-539.5"/>
<text text-anchor="start" x="21.5" y="-557.5" font-family="Helvetica,sans-Serif" font-size="10.00">Proyecto_Final.InviteHandler.</text>
<text text-anchor="middle" x="85" y="-546.5" font-family="Helvetica,sans-Serif" font-size="10.00">InternalHandle</text>
</a>
</g>
</g>
<!-- Node1&#45;&gt;Node9 -->
<g id="edge8" class="edge">
<title>Node1&#45;&gt;Node9</title>
<path fill="none" stroke="midnightblue" d="M250.82,-477.98C230.12,-494.36 199.68,-516.43 170,-530.5 163.01,-533.81 155.47,-536.76 147.88,-539.35"/>
<polygon fill="midnightblue" stroke="midnightblue" points="253.19,-480.56 258.79,-471.57 248.8,-475.11 253.19,-480.56"/>
</g>
<!-- Node10 -->
<g id="node10" class="node">
<title>Node10</title>
<g id="a_node10"><a xlink:href="classProyecto__Final_1_1MaterialsConsumedHandler.html#ad4cded96eff06ffbf55af46918f996ef" target="_top" xlink:title="Procesa el mensaje &quot;/materiales_consumidos&quot; y retorna true; retorna false en caso contrario.">
<polygon fill="white" stroke="black" points="4.5,-490.5 4.5,-520.5 165.5,-520.5 165.5,-490.5 4.5,-490.5"/>
<text text-anchor="start" x="12.5" y="-508.5" font-family="Helvetica,sans-Serif" font-size="10.00">Proyecto_Final.Materials</text>
<text text-anchor="middle" x="85" y="-497.5" font-family="Helvetica,sans-Serif" font-size="10.00">ConsumedHandler.InternalHandle</text>
</a>
</g>
</g>
<!-- Node1&#45;&gt;Node10 -->
<g id="edge9" class="edge">
<title>Node1&#45;&gt;Node10</title>
<path fill="none" stroke="midnightblue" d="M208.27,-474.05C187.35,-479.43 164.54,-485.3 144.34,-490.49"/>
<polygon fill="midnightblue" stroke="midnightblue" points="209.24,-477.42 218.05,-471.53 207.49,-470.64 209.24,-477.42"/>
</g>
<!-- Node11 -->
<g id="node11" class="node">
<title>Node11</title>
<g id="a_node11"><a xlink:href="classProyecto__Final_1_1PeriodOfTimeHandler.html#af680876ca9540867afdc31fcf18ba7c6" target="_top" xlink:title="Procesa el mensaje &quot;/ventas&quot; y retorna true; retorna false en caso contrario.">
<polygon fill="white" stroke="black" points="13.5,-441.5 13.5,-471.5 156.5,-471.5 156.5,-441.5 13.5,-441.5"/>
<text text-anchor="start" x="21.5" y="-459.5" font-family="Helvetica,sans-Serif" font-size="10.00">Proyecto_Final.PeriodOfTime</text>
<text text-anchor="middle" x="85" y="-448.5" font-family="Helvetica,sans-Serif" font-size="10.00">Handler.InternalHandle</text>
</a>
</g>
</g>
<!-- Node1&#45;&gt;Node11 -->
<g id="edge10" class="edge">
<title>Node1&#45;&gt;Node11</title>
<path fill="none" stroke="midnightblue" d="M195.54,-456.5C182.57,-456.5 169.25,-456.5 156.55,-456.5"/>
<polygon fill="midnightblue" stroke="midnightblue" points="195.84,-460 205.84,-456.5 195.84,-453 195.84,-460"/>
</g>
<!-- Node12 -->
<g id="node12" class="node">
<title>Node12</title>
<g id="a_node12"><a xlink:href="classProyecto__Final_1_1PhotoHandler.html#af45cc4e62e1c72fdb12b1d021a97ca5c" target="_top" xlink:title="Procesa el mensaje &quot;foto&quot; y retorna true; retorna false en caso contrario.">
<polygon fill="white" stroke="black" points="12,-392.5 12,-422.5 158,-422.5 158,-392.5 12,-392.5"/>
<text text-anchor="start" x="20" y="-410.5" font-family="Helvetica,sans-Serif" font-size="10.00">Proyecto_Final.PhotoHandler.</text>
<text text-anchor="middle" x="85" y="-399.5" font-family="Helvetica,sans-Serif" font-size="10.00">InternalHandle</text>
</a>
</g>
</g>
<!-- Node1&#45;&gt;Node12 -->
<g id="edge11" class="edge">
<title>Node1&#45;&gt;Node12</title>
<path fill="none" stroke="midnightblue" d="M208.27,-438.95C187.35,-433.57 164.54,-427.7 144.34,-422.51"/>
<polygon fill="midnightblue" stroke="midnightblue" points="207.49,-442.36 218.05,-441.47 209.24,-435.58 207.49,-442.36"/>
</g>
<!-- Node13 -->
<g id="node13" class="node">
<title>Node13</title>
<g id="a_node13"><a xlink:href="classProyecto__Final_1_1PublishHandler.html#aac8659f3d62aae4384be55fe0897f309" target="_top" xlink:title="Procesa el mensaje &quot;/publicar&quot; y retorna true; retorna false en caso contrario.">
<polygon fill="white" stroke="black" points="8.5,-343.5 8.5,-373.5 161.5,-373.5 161.5,-343.5 8.5,-343.5"/>
<text text-anchor="start" x="16.5" y="-361.5" font-family="Helvetica,sans-Serif" font-size="10.00">Proyecto_Final.PublishHandler.</text>
<text text-anchor="middle" x="85" y="-350.5" font-family="Helvetica,sans-Serif" font-size="10.00">InternalHandle</text>
</a>
</g>
</g>
<!-- Node1&#45;&gt;Node13 -->
<g id="edge12" class="edge">
<title>Node1&#45;&gt;Node13</title>
<path fill="none" stroke="midnightblue" d="M250.35,-435.13C229.62,-419.06 199.34,-397.5 170,-383.5 162.17,-379.77 153.67,-376.46 145.17,-373.56"/>
<polygon fill="midnightblue" stroke="midnightblue" points="248.33,-437.99 258.35,-441.42 252.66,-432.49 248.33,-437.99"/>
</g>
<!-- Node14 -->
<g id="node14" class="node">
<title>Node14</title>
<g id="a_node14"><a xlink:href="classProyecto__Final_1_1RegisterHandler.html#ad90776ffc6d56108123cff79976cf493" target="_top" xlink:title="Procesa el mensaje &quot;/registro&quot; y retorna true; retorna false en caso contrario.">
<polygon fill="white" stroke="black" points="6.5,-294.5 6.5,-324.5 163.5,-324.5 163.5,-294.5 6.5,-294.5"/>
<text text-anchor="start" x="14.5" y="-312.5" font-family="Helvetica,sans-Serif" font-size="10.00">Proyecto_Final.RegisterHandler.</text>
<text text-anchor="middle" x="85" y="-301.5" font-family="Helvetica,sans-Serif" font-size="10.00">InternalHandle</text>
</a>
</g>
</g>
<!-- Node1&#45;&gt;Node14 -->
<g id="edge13" class="edge">
<title>Node1&#45;&gt;Node14</title>
<path fill="none" stroke="midnightblue" d="M261.78,-432.66C243.54,-405.08 209.95,-360.17 170,-334.5 163.98,-330.63 157.35,-327.34 150.52,-324.55"/>
<polygon fill="midnightblue" stroke="midnightblue" points="258.99,-434.8 267.36,-441.3 264.87,-431 258.99,-434.8"/>
</g>
<!-- Node15 -->
<g id="node15" class="node">
<title>Node15</title>
<g id="a_node15"><a xlink:href="classProyecto__Final_1_1SearchCategoryHandler.html#aa4cc2dadd6b204a706599c28e1f1ea1a" target="_top" xlink:title="Procesa el mensaje &quot;/buscar_categoria&quot; y retorna true; retorna false en caso contrario.">
<polygon fill="white" stroke="black" points="7.5,-245.5 7.5,-275.5 162.5,-275.5 162.5,-245.5 7.5,-245.5"/>
<text text-anchor="start" x="15.5" y="-263.5" font-family="Helvetica,sans-Serif" font-size="10.00">Proyecto_Final.SearchCategory</text>
<text text-anchor="middle" x="85" y="-252.5" font-family="Helvetica,sans-Serif" font-size="10.00">Handler.InternalHandle</text>
</a>
</g>
</g>
<!-- Node1&#45;&gt;Node15 -->
<g id="edge14" class="edge">
<title>Node1&#45;&gt;Node15</title>
<path fill="none" stroke="midnightblue" d="M267.72,-431.79C253.22,-394.52 220.71,-324.17 170,-285.5 164.92,-281.62 159.24,-278.35 153.31,-275.58"/>
<polygon fill="midnightblue" stroke="midnightblue" points="264.53,-433.25 271.33,-441.37 271.08,-430.78 264.53,-433.25"/>
</g>
<!-- Node16 -->
<g id="node16" class="node">
<title>Node16</title>
<g id="a_node16"><a xlink:href="classProyecto__Final_1_1SearchKeyWordsHandler.html#a5248fdef3396dfed93aaffc5d23e832b" target="_top" xlink:title="Procesa el mensaje &quot;/buscar_palabra&quot; y retorna true; retorna false en caso contrario.">
<polygon fill="white" stroke="black" points="13.5,-196.5 13.5,-226.5 156.5,-226.5 156.5,-196.5 13.5,-196.5"/>
<text text-anchor="start" x="21.5" y="-214.5" font-family="Helvetica,sans-Serif" font-size="10.00">Proyecto_Final.SearchKey</text>
<text text-anchor="middle" x="85" y="-203.5" font-family="Helvetica,sans-Serif" font-size="10.00">WordsHandler.InternalHandle</text>
</a>
</g>
</g>
<!-- Node1&#45;&gt;Node16 -->
<g id="edge15" class="edge">
<title>Node1&#45;&gt;Node16</title>
<path fill="none" stroke="midnightblue" d="M271.36,-431.43C260.69,-385.8 231.8,-289.05 170,-236.5 165.48,-232.66 160.39,-229.4 155,-226.65"/>
<polygon fill="midnightblue" stroke="midnightblue" points="267.99,-432.38 273.58,-441.37 274.82,-430.85 267.99,-432.38"/>
</g>
<!-- Node17 -->
<g id="node17" class="node">
<title>Node17</title>
<g id="a_node17"><a xlink:href="classProyecto__Final_1_1RecurrenciaHandler.html#a4d57d42c1c7d6cbaa0b003905054bb9f" target="_top" xlink:title="Procesa el mensaje &quot;/buscar_recurrencia&quot; y retorna true; retorna false en caso contrario.">
<polygon fill="white" stroke="black" points="16.5,-147.5 16.5,-177.5 153.5,-177.5 153.5,-147.5 16.5,-147.5"/>
<text text-anchor="start" x="24.5" y="-165.5" font-family="Helvetica,sans-Serif" font-size="10.00">Proyecto_Final.Recurrencia</text>
<text text-anchor="middle" x="85" y="-154.5" font-family="Helvetica,sans-Serif" font-size="10.00">Handler.InternalHandle</text>
</a>
</g>
</g>
<!-- Node1&#45;&gt;Node17 -->
<g id="edge16" class="edge">
<title>Node1&#45;&gt;Node17</title>
<path fill="none" stroke="midnightblue" d="M273.81,-431.24C266.81,-378.17 243.14,-254.49 170,-187.5 165.18,-183.08 159.6,-179.44 153.67,-176.44"/>
<polygon fill="midnightblue" stroke="midnightblue" points="270.37,-431.95 275.07,-441.45 277.32,-431.09 270.37,-431.95"/>
</g>
<!-- Node18 -->
<g id="node18" class="node">
<title>Node18</title>
<g id="a_node18"><a xlink:href="classProyecto__Final_1_1SearchZoneHandler.html#ab824ea9bce444a4cf868b5075d783c88" target="_top" xlink:title="Procesa el mensaje &quot;/buscar_zona&quot; y retorna true; retorna false en caso contrario.">
<polygon fill="white" stroke="black" points="16.5,-98.5 16.5,-128.5 153.5,-128.5 153.5,-98.5 16.5,-98.5"/>
<text text-anchor="start" x="24.5" y="-116.5" font-family="Helvetica,sans-Serif" font-size="10.00">Proyecto_Final.SearchZone</text>
<text text-anchor="middle" x="85" y="-105.5" font-family="Helvetica,sans-Serif" font-size="10.00">Handler.InternalHandle</text>
</a>
</g>
</g>
<!-- Node1&#45;&gt;Node18 -->
<g id="edge17" class="edge">
<title>Node1&#45;&gt;Node18</title>
<path fill="none" stroke="midnightblue" d="M275.59,-431.29C272.05,-371.58 254.73,-220.4 170,-138.5 165.19,-133.85 159.55,-130.05 153.51,-126.97"/>
<polygon fill="midnightblue" stroke="midnightblue" points="272.1,-431.53 276.11,-441.34 279.09,-431.17 272.1,-431.53"/>
</g>
<!-- Node19 -->
<g id="node19" class="node">
<title>Node19</title>
<g id="a_node19"><a xlink:href="classProyecto__Final_1_1ShowInterestInOfferHandler.html#a5dfab69b6d7ba014128448e10ccc68d1" target="_top" xlink:title="Procesa el mensaje &quot;interes_oferta&quot; y retorna true; retorna false en caso contrario.">
<polygon fill="white" stroke="black" points="14,-49.5 14,-79.5 156,-79.5 156,-49.5 14,-49.5"/>
<text text-anchor="start" x="22" y="-67.5" font-family="Helvetica,sans-Serif" font-size="10.00">Proyecto_Final.ShowInterest</text>
<text text-anchor="middle" x="85" y="-56.5" font-family="Helvetica,sans-Serif" font-size="10.00">InOfferHandler.InternalHandle</text>
</a>
</g>
</g>
<!-- Node1&#45;&gt;Node19 -->
<g id="edge18" class="edge">
<title>Node1&#45;&gt;Node19</title>
<path fill="none" stroke="midnightblue" d="M276.92,-431.14C276.59,-365.15 266.34,-186.51 170,-89.5 165.93,-85.4 161.21,-81.96 156.13,-79.09"/>
<polygon fill="midnightblue" stroke="midnightblue" points="273.42,-431.42 276.89,-441.42 280.42,-431.43 273.42,-431.42"/>
</g>
<!-- Node20 -->
<g id="node20" class="node">
<title>Node20</title>
<g id="a_node20"><a xlink:href="classProyecto__Final_1_1StartHandler.html#a265c130117b028d19b4113bcd7cfc8aa" target="_top" xlink:title="Procesa el mensaje &quot;/start&quot; y retorna true; retorna false en caso contrario.">
<polygon fill="white" stroke="black" points="14,-0.5 14,-30.5 156,-30.5 156,-0.5 14,-0.5"/>
<text text-anchor="start" x="22" y="-18.5" font-family="Helvetica,sans-Serif" font-size="10.00">Proyecto_Final.StartHandler.</text>
<text text-anchor="middle" x="85" y="-7.5" font-family="Helvetica,sans-Serif" font-size="10.00">InternalHandle</text>
</a>
</g>
</g>
<!-- Node1&#45;&gt;Node20 -->
<g id="edge19" class="edge">
<title>Node1&#45;&gt;Node20</title>
<path fill="none" stroke="midnightblue" d="M273.3,-431.15C262.55,-349.91 225.29,-97.97 170,-40.5 165.99,-36.33 161.32,-32.85 156.28,-29.95"/>
<polygon fill="midnightblue" stroke="midnightblue" points="269.88,-431.98 274.64,-441.45 276.82,-431.08 269.88,-431.98"/>
</g>
</g>
</svg>
