<?xml version="1.0" encoding="UTF-8" standalone="no"?>
<!DOCTYPE svg PUBLIC "-//W3C//DTD SVG 1.1//EN"
 "http://www.w3.org/Graphics/SVG/1.1/DTD/svg11.dtd">
<!-- Generated by graphviz version 2.49.3 (20211023.0002)
 -->
<!-- Title: Proyecto_Final.UserEmprendedor Pages: 1 -->
<svg width="171pt" height="281pt"
 viewBox="0.00 0.00 171.00 281.00" xmlns="http://www.w3.org/2000/svg" xmlns:xlink="http://www.w3.org/1999/xlink">
<g id="graph0" class="graph" transform="scale(1 1) rotate(0) translate(4 277)">
<title>Proyecto_Final.UserEmprendedor</title>
<polygon fill="white" stroke="transparent" points="-4,4 -4,-277 167,-277 167,4 -4,4"/>
<!-- Node1 -->
<g id="node1" class="node">
<title>Node1</title>
<g id="a_node1"><a xlink:title="Esta clase representa a los usuarios emprendedores en el sistema. La función de esta clase es la de r...">
<polygon fill="#bfbfbf" stroke="black" points="0,-0.5 0,-178.5 163,-178.5 163,-0.5 0,-0.5"/>
<text text-anchor="middle" x="81.5" y="-166.5" font-family="Helvetica,sans-Serif" font-size="10.00">Proyecto_Final.UserEmprendedor</text>
<polyline fill="none" stroke="black" points="0,-159.5 163,-159.5 "/>
<text text-anchor="start" x="8" y="-147.5" font-family="Helvetica,sans-Serif" font-size="10.00">+ Id</text>
<text text-anchor="start" x="8" y="-136.5" font-family="Helvetica,sans-Serif" font-size="10.00">+ Nombre</text>
<text text-anchor="start" x="8" y="-125.5" font-family="Helvetica,sans-Serif" font-size="10.00">+ Emprendedor</text>
<polyline fill="none" stroke="black" points="0,-118.5 163,-118.5 "/>
<text text-anchor="start" x="8" y="-106.5" font-family="Helvetica,sans-Serif" font-size="10.00">+ UserEmprendedor()</text>
<text text-anchor="start" x="8" y="-95.5" font-family="Helvetica,sans-Serif" font-size="10.00">+ UserEmprendedor()</text>
<text text-anchor="start" x="8" y="-84.5" font-family="Helvetica,sans-Serif" font-size="10.00">+ AgregarHabilitacion()</text>
<text text-anchor="start" x="8" y="-73.5" font-family="Helvetica,sans-Serif" font-size="10.00">+ AgregarRubro()</text>
<text text-anchor="start" x="8" y="-62.5" font-family="Helvetica,sans-Serif" font-size="10.00">+ AgregarEspecializacion()</text>
<text text-anchor="start" x="8" y="-51.5" font-family="Helvetica,sans-Serif" font-size="10.00">+ EliminarEspecializacion()</text>
<text text-anchor="start" x="8" y="-40.5" font-family="Helvetica,sans-Serif" font-size="10.00">+ VerificarConsumo()</text>
<text text-anchor="start" x="8" y="-29.5" font-family="Helvetica,sans-Serif" font-size="10.00">+ VerOfertasPalabraClave()</text>
<text text-anchor="start" x="8" y="-18.5" font-family="Helvetica,sans-Serif" font-size="10.00">+ VerOfertasUbicacion()</text>
<text text-anchor="start" x="8" y="-7.5" font-family="Helvetica,sans-Serif" font-size="10.00">+ VerOfertasTipo()</text>
</a>
</g>
</g>
<!-- Node2 -->
<g id="node2" class="node">
<title>Node2</title>
<g id="a_node2"><a xlink:href="interfaceProyecto__Final_1_1IUser.html" target="_top" xlink:title="Esta interfaz se utiliza para agrupar todas las clases usuario dentro de un solo tipo,...">
<polygon fill="white" stroke="black" points="62,-215.5 62,-272.5 101,-272.5 101,-215.5 62,-215.5"/>
<text text-anchor="middle" x="81.5" y="-260.5" font-family="Helvetica,sans-Serif" font-size="10.00">IUser</text>
<polyline fill="none" stroke="black" points="62,-253.5 101,-253.5 "/>
<text text-anchor="start" x="70" y="-241.5" font-family="Helvetica,sans-Serif" font-size="10.00">+ Id</text>
<polyline fill="none" stroke="black" points="62,-234.5 101,-234.5 "/>
<text text-anchor="middle" x="81.5" y="-222.5" font-family="Helvetica,sans-Serif" font-size="10.00"> </text>
</a>
</g>
</g>
<!-- Node2&#45;&gt;Node1 -->
<g id="edge1" class="edge">
<title>Node2&#45;&gt;Node1</title>
<path fill="none" stroke="midnightblue" d="M81.5,-205.37C81.5,-197.09 81.5,-187.98 81.5,-178.62"/>
<polygon fill="none" stroke="midnightblue" points="78,-205.38 81.5,-215.38 85,-205.38 78,-205.38"/>
</g>
</g>
</svg>
