<?xml version="1.0" encoding="UTF-8" standalone="no"?>
<!DOCTYPE svg PUBLIC "-//W3C//DTD SVG 1.1//EN"
 "http://www.w3.org/Graphics/SVG/1.1/DTD/svg11.dtd">
<!-- Generated by graphviz version 2.49.3 (20211023.0002)
 -->
<!-- Title: Proyecto_Final.StatusManager.ListaEstadoUsuario Pages: 1 -->
<svg width="352pt" height="88pt"
 viewBox="0.00 0.00 352.00 88.00" xmlns="http://www.w3.org/2000/svg" xmlns:xlink="http://www.w3.org/1999/xlink">
<g id="graph0" class="graph" transform="scale(1 1) rotate(0) translate(4 84)">
<title>Proyecto_Final.StatusManager.ListaEstadoUsuario</title>
<polygon fill="white" stroke="transparent" points="-4,4 -4,-84 348,-84 348,4 -4,4"/>
<!-- Node1 -->
<g id="node1" class="node">
<title>Node1</title>
<g id="a_node1"><a xlink:title="Otorga un diccionario con los id de usuario como key y su estado como value.">
<polygon fill="#bfbfbf" stroke="black" points="190,-24.5 190,-54.5 344,-54.5 344,-24.5 190,-24.5"/>
<text text-anchor="start" x="198" y="-42.5" font-family="Helvetica,sans-Serif" font-size="10.00">Proyecto_Final.StatusManager.</text>
<text text-anchor="middle" x="267" y="-31.5" font-family="Helvetica,sans-Serif" font-size="10.00">ListaEstadoUsuario</text>
</a>
</g>
</g>
<!-- Node2 -->
<g id="node2" class="node">
<title>Node2</title>
<g id="a_node2"><a xlink:href="classProyecto__Final_1_1StatusManager.html#ad2b98fc66378c31a2bf4438653bef4f1" target="_top" xlink:title="Verifica el status actual de un usuario y lo devuelve. Si no tiene estado devuelve el status por defe...">
<polygon fill="white" stroke="black" points="0,-49.5 0,-79.5 154,-79.5 154,-49.5 0,-49.5"/>
<text text-anchor="start" x="8" y="-67.5" font-family="Helvetica,sans-Serif" font-size="10.00">Proyecto_Final.StatusManager.</text>
<text text-anchor="middle" x="77" y="-56.5" font-family="Helvetica,sans-Serif" font-size="10.00">CheckStatus</text>
</a>
</g>
</g>
<!-- Node1&#45;&gt;Node2 -->
<g id="edge1" class="edge">
<title>Node1&#45;&gt;Node2</title>
<path fill="none" stroke="midnightblue" d="M179.85,-50.96C171.33,-52.09 162.72,-53.23 154.3,-54.35"/>
<polygon fill="midnightblue" stroke="midnightblue" points="180.35,-54.42 189.8,-49.63 179.43,-47.48 180.35,-54.42"/>
</g>
<!-- Node3 -->
<g id="node3" class="node">
<title>Node3</title>
<g id="a_node3"><a xlink:href="classProyecto__Final_1_1StatusManager.html#a561c71b2fff41ede49025a9c47d13c7d" target="_top" xlink:title="Metodo que imprime en consola una lista con los usuarios y su estado actual.">
<polygon fill="white" stroke="black" points="0,-0.5 0,-30.5 154,-30.5 154,-0.5 0,-0.5"/>
<text text-anchor="start" x="8" y="-18.5" font-family="Helvetica,sans-Serif" font-size="10.00">Proyecto_Final.StatusManager.</text>
<text text-anchor="middle" x="77" y="-7.5" font-family="Helvetica,sans-Serif" font-size="10.00">PrintUserStatus</text>
</a>
</g>
</g>
<!-- Node1&#45;&gt;Node3 -->
<g id="edge2" class="edge">
<title>Node1&#45;&gt;Node3</title>
<path fill="none" stroke="midnightblue" d="M179.85,-28.5C171.33,-27.41 162.72,-26.32 154.3,-25.24"/>
<polygon fill="midnightblue" stroke="midnightblue" points="179.44,-31.98 189.8,-29.77 180.33,-25.03 179.44,-31.98"/>
</g>
</g>
</svg>
