<?xml version="1.0" encoding="UTF-8" standalone="no"?>
<!DOCTYPE svg PUBLIC "-//W3C//DTD SVG 1.1//EN"
 "http://www.w3.org/Graphics/SVG/1.1/DTD/svg11.dtd">
<!-- Generated by graphviz version 2.49.3 (20211023.0002)
 -->
<!-- Title: Proyecto_Final.UserEmpresa Pages: 1 -->
<svg width="152pt" height="281pt"
 viewBox="0.00 0.00 152.00 281.00" xmlns="http://www.w3.org/2000/svg" xmlns:xlink="http://www.w3.org/1999/xlink">
<g id="graph0" class="graph" transform="scale(1 1) rotate(0) translate(4 277)">
<title>Proyecto_Final.UserEmpresa</title>
<polygon fill="white" stroke="transparent" points="-4,4 -4,-277 148,-277 148,4 -4,4"/>
<!-- Node1 -->
<g id="node1" class="node">
<title>Node1</title>
<g id="a_node1"><a xlink:title="Esta clase representa al usuario de la Empresa. La función de esta clase es la de representar a un us...">
<polygon fill="#bfbfbf" stroke="black" points="0,-0.5 0,-178.5 144,-178.5 144,-0.5 0,-0.5"/>
<text text-anchor="middle" x="72" y="-166.5" font-family="Helvetica,sans-Serif" font-size="10.00">Proyecto_Final.UserEmpresa</text>
<polyline fill="none" stroke="black" points="0,-159.5 144,-159.5 "/>
<text text-anchor="start" x="8" y="-147.5" font-family="Helvetica,sans-Serif" font-size="10.00">+ Id</text>
<text text-anchor="start" x="8" y="-136.5" font-family="Helvetica,sans-Serif" font-size="10.00">+ Nombre</text>
<text text-anchor="start" x="8" y="-125.5" font-family="Helvetica,sans-Serif" font-size="10.00">+ Empresa</text>
<polyline fill="none" stroke="black" points="0,-118.5 144,-118.5 "/>
<text text-anchor="start" x="8" y="-106.5" font-family="Helvetica,sans-Serif" font-size="10.00">+ UserEmpresa()</text>
<text text-anchor="start" x="8" y="-95.5" font-family="Helvetica,sans-Serif" font-size="10.00">+ UserEmpresa()</text>
<text text-anchor="start" x="8" y="-84.5" font-family="Helvetica,sans-Serif" font-size="10.00">+ AgregarRubro()</text>
<text text-anchor="start" x="8" y="-73.5" font-family="Helvetica,sans-Serif" font-size="10.00">+ CrearEmpresa()</text>
<text text-anchor="start" x="8" y="-62.5" font-family="Helvetica,sans-Serif" font-size="10.00">+ CrearMsjClave()</text>
<text text-anchor="start" x="8" y="-51.5" font-family="Helvetica,sans-Serif" font-size="10.00">+ CrearOferta()</text>
<text text-anchor="start" x="8" y="-40.5" font-family="Helvetica,sans-Serif" font-size="10.00">+ CrearProducto()</text>
<text text-anchor="start" x="8" y="-29.5" font-family="Helvetica,sans-Serif" font-size="10.00">+ ConcretarOferta()</text>
<text text-anchor="start" x="8" y="-18.5" font-family="Helvetica,sans-Serif" font-size="10.00">+ VerificarVentas()</text>
<text text-anchor="start" x="8" y="-7.5" font-family="Helvetica,sans-Serif" font-size="10.00">+ CheckBuyers()</text>
</a>
</g>
</g>
<!-- Node2 -->
<g id="node2" class="node">
<title>Node2</title>
<g id="a_node2"><a xlink:href="interfaceProyecto__Final_1_1IUser.html" target="_top" xlink:title="Esta interfaz se utiliza para agrupar todas las clases usuario dentro de un solo tipo,...">
<polygon fill="white" stroke="black" points="52.5,-215.5 52.5,-272.5 91.5,-272.5 91.5,-215.5 52.5,-215.5"/>
<text text-anchor="middle" x="72" y="-260.5" font-family="Helvetica,sans-Serif" font-size="10.00">IUser</text>
<polyline fill="none" stroke="black" points="52.5,-253.5 91.5,-253.5 "/>
<text text-anchor="start" x="60.5" y="-241.5" font-family="Helvetica,sans-Serif" font-size="10.00">+ Id</text>
<polyline fill="none" stroke="black" points="52.5,-234.5 91.5,-234.5 "/>
<text text-anchor="middle" x="72" y="-222.5" font-family="Helvetica,sans-Serif" font-size="10.00"> </text>
</a>
</g>
</g>
<!-- Node2&#45;&gt;Node1 -->
<g id="edge1" class="edge">
<title>Node2&#45;&gt;Node1</title>
<path fill="none" stroke="midnightblue" d="M72,-205.37C72,-197.09 72,-187.98 72,-178.62"/>
<polygon fill="none" stroke="midnightblue" points="68.5,-205.38 72,-215.38 75.5,-205.38 68.5,-205.38"/>
</g>
</g>
</svg>
