<?xml version="1.0" encoding="UTF-8" standalone="no"?>
<!DOCTYPE svg PUBLIC "-//W3C//DTD SVG 1.1//EN"
 "http://www.w3.org/Graphics/SVG/1.1/DTD/svg11.dtd">
<!-- Generated by graphviz version 2.49.3 (20211023.0002)
 -->
<!-- Title: Proyecto_Final.UserEmprendedor.AgregarHabilitacion Pages: 1 -->
<svg width="373pt" height="88pt"
 viewBox="0.00 0.00 373.00 88.00" xmlns="http://www.w3.org/2000/svg" xmlns:xlink="http://www.w3.org/1999/xlink">
<g id="graph0" class="graph" transform="scale(1 1) rotate(0) translate(4 84)">
<title>Proyecto_Final.UserEmprendedor.AgregarHabilitacion</title>
<polygon fill="white" stroke="transparent" points="-4,4 -4,-84 369,-84 369,4 -4,4"/>
<!-- Node1 -->
<g id="node1" class="node">
<title>Node1</title>
<g id="a_node1"><a xlink:title="Agrega una habilitacion.">
<polygon fill="#bfbfbf" stroke="black" points="199,-24.5 199,-54.5 365,-54.5 365,-24.5 199,-24.5"/>
<text text-anchor="start" x="207" y="-42.5" font-family="Helvetica,sans-Serif" font-size="10.00">Proyecto_Final.UserEmprendedor.</text>
<text text-anchor="middle" x="282" y="-31.5" font-family="Helvetica,sans-Serif" font-size="10.00">AgregarHabilitacion</text>
</a>
</g>
</g>
<!-- Node2 -->
<g id="node2" class="node">
<title>Node2</title>
<g id="a_node2"><a xlink:href="classProyecto__Final_1_1UserEmprendedorTests.html#a0293ee3bd6ea8625f5393f4db6d73fdb" target="_top" xlink:title="Test para revisar si se agrega una habilitacion correctamente a los datos del emprendedor.">
<polygon fill="white" stroke="black" points="0,-49.5 0,-79.5 163,-79.5 163,-49.5 0,-49.5"/>
<text text-anchor="start" x="8" y="-67.5" font-family="Helvetica,sans-Serif" font-size="10.00">Proyecto_Final.UserEmprendedor</text>
<text text-anchor="middle" x="81.5" y="-56.5" font-family="Helvetica,sans-Serif" font-size="10.00">Tests.AgregarHabilitacionTest</text>
</a>
</g>
</g>
<!-- Node1&#45;&gt;Node2 -->
<g id="edge1" class="edge">
<title>Node1&#45;&gt;Node2</title>
<path fill="none" stroke="midnightblue" d="M188.78,-51.12C180.17,-52.2 171.5,-53.29 163.01,-54.36"/>
<polygon fill="midnightblue" stroke="midnightblue" points="189.35,-54.57 198.83,-49.85 188.47,-47.63 189.35,-54.57"/>
</g>
<!-- Node3 -->
<g id="node3" class="node">
<title>Node3</title>
<g id="a_node3"><a xlink:href="classProyecto__Final_1_1AddAuthorizationHandler.html#a0d72b7f3b0547c266fef8a59cff1f965" target="_top" xlink:title="Procesa el mensaje &quot;authorization&quot; y retorna true; retorna false en caso contrario.">
<polygon fill="white" stroke="black" points="2,-0.5 2,-30.5 161,-30.5 161,-0.5 2,-0.5"/>
<text text-anchor="start" x="10" y="-18.5" font-family="Helvetica,sans-Serif" font-size="10.00">Proyecto_Final.AddAuthorization</text>
<text text-anchor="middle" x="81.5" y="-7.5" font-family="Helvetica,sans-Serif" font-size="10.00">Handler.InternalHandle</text>
</a>
</g>
</g>
<!-- Node1&#45;&gt;Node3 -->
<g id="edge2" class="edge">
<title>Node1&#45;&gt;Node3</title>
<path fill="none" stroke="midnightblue" d="M188.82,-28.36C179.56,-27.23 170.21,-26.1 161.1,-25"/>
<polygon fill="midnightblue" stroke="midnightblue" points="188.48,-31.84 198.83,-29.57 189.32,-24.89 188.48,-31.84"/>
</g>
</g>
</svg>
