<?xml version="1.0" encoding="UTF-8" standalone="no"?>
<!DOCTYPE svg PUBLIC "-//W3C//DTD SVG 1.1//EN"
 "http://www.w3.org/Graphics/SVG/1.1/DTD/svg11.dtd">
<!-- Generated by graphviz version 2.49.3 (20211023.0002)
 -->
<!-- Title: Proyecto_Final.Buscador.VerOfertasUbicacion Pages: 1 -->
<svg width="533pt" height="39pt"
 viewBox="0.00 0.00 533.00 39.00" xmlns="http://www.w3.org/2000/svg" xmlns:xlink="http://www.w3.org/1999/xlink">
<g id="graph0" class="graph" transform="scale(1 1) rotate(0) translate(4 35)">
<title>Proyecto_Final.Buscador.VerOfertasUbicacion</title>
<polygon fill="white" stroke="transparent" points="-4,4 -4,-35 529,-35 529,4 -4,4"/>
<!-- Node1 -->
<g id="node1" class="node">
<title>Node1</title>
<g id="a_node1"><a xlink:title="/// En base a la ubicación del Emprendedor, retorna una lista con todas las ofertas que se encuentren...">
<polygon fill="#bfbfbf" stroke="black" points="0,-0.5 0,-30.5 129,-30.5 129,-0.5 0,-0.5"/>
<text text-anchor="start" x="8" y="-18.5" font-family="Helvetica,sans-Serif" font-size="10.00">Proyecto_Final.Buscador.</text>
<text text-anchor="middle" x="64.5" y="-7.5" font-family="Helvetica,sans-Serif" font-size="10.00">VerOfertasUbicacion</text>
</a>
</g>
</g>
<!-- Node2 -->
<g id="node2" class="node">
<title>Node2</title>
<g id="a_node2"><a xlink:href="classUcu_1_1Poo_1_1Locations_1_1Client_1_1LocationApiClient.html#a420f94704f37c1aeed52761f6a650f9f" target="_top" xlink:title=" ">
<polygon fill="white" stroke="black" points="165,-0.5 165,-30.5 313,-30.5 313,-0.5 165,-0.5"/>
<text text-anchor="start" x="173" y="-18.5" font-family="Helvetica,sans-Serif" font-size="10.00">Ucu.Poo.Locations.Client.</text>
<text text-anchor="middle" x="239" y="-7.5" font-family="Helvetica,sans-Serif" font-size="10.00">LocationApiClient.GetLocation</text>
</a>
</g>
</g>
<!-- Node1&#45;&gt;Node2 -->
<g id="edge1" class="edge">
<title>Node1&#45;&gt;Node2</title>
<path fill="none" stroke="midnightblue" d="M129.24,-15.5C137.59,-15.5 146.24,-15.5 154.85,-15.5"/>
<polygon fill="midnightblue" stroke="midnightblue" points="154.91,-19 164.91,-15.5 154.91,-12 154.91,-19"/>
</g>
<!-- Node3 -->
<g id="node3" class="node">
<title>Node3</title>
<g id="a_node3"><a xlink:href="classUcu_1_1Poo_1_1Locations_1_1Client_1_1LocationApiClient.html#a775052647014829c8b09dd91b0ff2762" target="_top" xlink:title="Obtiene las coordenadas de una dirección.">
<polygon fill="white" stroke="black" points="349,-0.5 349,-30.5 525,-30.5 525,-0.5 349,-0.5"/>
<text text-anchor="start" x="357" y="-18.5" font-family="Helvetica,sans-Serif" font-size="10.00">Ucu.Poo.Locations.Client.</text>
<text text-anchor="middle" x="437" y="-7.5" font-family="Helvetica,sans-Serif" font-size="10.00">LocationApiClient.GetLocationAsync</text>
</a>
</g>
</g>
<!-- Node2&#45;&gt;Node3 -->
<g id="edge2" class="edge">
<title>Node2&#45;&gt;Node3</title>
<path fill="none" stroke="midnightblue" d="M313.26,-15.5C321.62,-15.5 330.24,-15.5 338.85,-15.5"/>
<polygon fill="midnightblue" stroke="midnightblue" points="338.94,-19 348.94,-15.5 338.94,-12 338.94,-19"/>
</g>
</g>
</svg>
