<?xml version="1.0" encoding="UTF-8" standalone="no"?>
<!DOCTYPE svg PUBLIC "-//W3C//DTD SVG 1.1//EN"
 "http://www.w3.org/Graphics/SVG/1.1/DTD/svg11.dtd">
<!-- Generated by graphviz version 2.49.3 (20211023.0002)
 -->
<!-- Title: Proyecto_Final.Buscador.VerOfertasPalabraClave Pages: 1 -->
<svg width="556pt" height="88pt"
 viewBox="0.00 0.00 556.00 88.00" xmlns="http://www.w3.org/2000/svg" xmlns:xlink="http://www.w3.org/1999/xlink">
<g id="graph0" class="graph" transform="scale(1 1) rotate(0) translate(4 84)">
<title>Proyecto_Final.Buscador.VerOfertasPalabraClave</title>
<polygon fill="white" stroke="transparent" points="-4,4 -4,-84 552,-84 552,4 -4,4"/>
<!-- Node1 -->
<g id="node1" class="node">
<title>Node1</title>
<g id="a_node1"><a xlink:title="En base a una palabra clave recibida, otorga todas las ofertas que tengan la misma palabra clave">
<polygon fill="#bfbfbf" stroke="black" points="419,-24.5 419,-54.5 548,-54.5 548,-24.5 419,-24.5"/>
<text text-anchor="start" x="427" y="-42.5" font-family="Helvetica,sans-Serif" font-size="10.00">Proyecto_Final.Buscador.</text>
<text text-anchor="middle" x="483.5" y="-31.5" font-family="Helvetica,sans-Serif" font-size="10.00">VerOfertasPalabraClave</text>
</a>
</g>
</g>
<!-- Node2 -->
<g id="node2" class="node">
<title>Node2</title>
<g id="a_node2"><a xlink:href="classProyecto__Final_1_1UserEmprendedor.html#abc662bcf45f5bb4c5235c421620b97ba" target="_top" xlink:title="En base a una palabra clave, busca todas las ofertas que la contengan.">
<polygon fill="white" stroke="black" points="217,-24.5 217,-54.5 383,-54.5 383,-24.5 217,-24.5"/>
<text text-anchor="start" x="225" y="-42.5" font-family="Helvetica,sans-Serif" font-size="10.00">Proyecto_Final.UserEmprendedor.</text>
<text text-anchor="middle" x="300" y="-31.5" font-family="Helvetica,sans-Serif" font-size="10.00">VerOfertasPalabraClave</text>
</a>
</g>
</g>
<!-- Node1&#45;&gt;Node2 -->
<g id="edge1" class="edge">
<title>Node1&#45;&gt;Node2</title>
<path fill="none" stroke="midnightblue" d="M408.62,-39.5C400.2,-39.5 391.58,-39.5 383.06,-39.5"/>
<polygon fill="midnightblue" stroke="midnightblue" points="408.77,-43 418.77,-39.5 408.77,-36 408.77,-43"/>
</g>
<!-- Node3 -->
<g id="node3" class="node">
<title>Node3</title>
<g id="a_node3"><a xlink:href="classProyecto__Final_1_1UserEmprendedorTests.html#ae7d773bae1185f8c4703cb58edd4b5b2" target="_top" xlink:title="Test para revisar si la clase es capaz de buscar ofertas mediante una palabra clave ingresada que exi...">
<polygon fill="white" stroke="black" points="9,-49.5 9,-79.5 172,-79.5 172,-49.5 9,-49.5"/>
<text text-anchor="start" x="17" y="-67.5" font-family="Helvetica,sans-Serif" font-size="10.00">Proyecto_Final.UserEmprendedor</text>
<text text-anchor="middle" x="90.5" y="-56.5" font-family="Helvetica,sans-Serif" font-size="10.00">Tests.VerOfertasPalabraClave</text>
</a>
</g>
</g>
<!-- Node2&#45;&gt;Node3 -->
<g id="edge2" class="edge">
<title>Node2&#45;&gt;Node3</title>
<path fill="none" stroke="midnightblue" d="M206.9,-50.6C195.35,-51.99 183.6,-53.4 172.24,-54.77"/>
<polygon fill="midnightblue" stroke="midnightblue" points="207.48,-54.05 216.99,-49.38 206.64,-47.1 207.48,-54.05"/>
</g>
<!-- Node4 -->
<g id="node4" class="node">
<title>Node4</title>
<g id="a_node4"><a xlink:href="classProyecto__Final_1_1UserEmprendedorTests.html#a38bad9121e8fa373a73fbaec830878fd" target="_top" xlink:title="Test para revisar si la clase es capaz de buscar ofertas mediante una palabra clave ingresada que no ...">
<polygon fill="white" stroke="black" points="0,-0.5 0,-30.5 181,-30.5 181,-0.5 0,-0.5"/>
<text text-anchor="start" x="8" y="-18.5" font-family="Helvetica,sans-Serif" font-size="10.00">Proyecto_Final.UserEmprendedor</text>
<text text-anchor="middle" x="90.5" y="-7.5" font-family="Helvetica,sans-Serif" font-size="10.00">Tests.VerOfertasPalabraClaveFailTest</text>
</a>
</g>
</g>
<!-- Node2&#45;&gt;Node4 -->
<g id="edge3" class="edge">
<title>Node2&#45;&gt;Node4</title>
<path fill="none" stroke="midnightblue" d="M206.97,-28.86C198.38,-27.86 189.68,-26.86 181.12,-25.87"/>
<polygon fill="midnightblue" stroke="midnightblue" points="206.65,-32.34 216.99,-30.01 207.46,-25.39 206.65,-32.34"/>
</g>
</g>
</svg>
