<?xml version="1.0" encoding="UTF-8" standalone="no"?>
<!DOCTYPE svg PUBLIC "-//W3C//DTD SVG 1.1//EN"
 "http://www.w3.org/Graphics/SVG/1.1/DTD/svg11.dtd">
<!-- Generated by graphviz version 2.49.3 (20211023.0002)
 -->
<!-- Title: Proyecto_Final.Datos.LoadPublications Pages: 1 -->
<svg width="333pt" height="78pt"
 viewBox="0.00 0.00 333.00 77.50" xmlns="http://www.w3.org/2000/svg" xmlns:xlink="http://www.w3.org/1999/xlink">
<g id="graph0" class="graph" transform="scale(1 1) rotate(0) translate(4 73.5)">
<title>Proyecto_Final.Datos.LoadPublications</title>
<polygon fill="white" stroke="transparent" points="-4,4 -4,-73.5 329,-73.5 329,4 -4,4"/>
<!-- Node1 -->
<g id="node1" class="node">
<title>Node1</title>
<g id="a_node1"><a xlink:title="Carga las publicaciones en base a los datos de las publicaciones almacenadas en todos los Usuarios Em...">
<polygon fill="#bfbfbf" stroke="black" points="191,-22.5 191,-52.5 325,-52.5 325,-22.5 191,-22.5"/>
<text text-anchor="start" x="199" y="-40.5" font-family="Helvetica,sans-Serif" font-size="10.00">Proyecto_Final.Datos.Load</text>
<text text-anchor="middle" x="258" y="-29.5" font-family="Helvetica,sans-Serif" font-size="10.00">Publications</text>
</a>
</g>
</g>
<!-- Node2 -->
<g id="node2" class="node">
<title>Node2</title>
<g id="a_node2"><a xlink:href="classProyecto__Final_1_1Datos.html#a8c24cd44b6a4a31c4997e12aa37c44f5" target="_top" xlink:title="Al inicializar el programa se obtienen todos los datos de la DB.">
<polygon fill="white" stroke="black" points="0,-50 0,-69 155,-69 155,-50 0,-50"/>
<text text-anchor="middle" x="77.5" y="-57" font-family="Helvetica,sans-Serif" font-size="10.00">Proyecto_Final.Datos.LoadData</text>
</a>
</g>
</g>
<!-- Node1&#45;&gt;Node2 -->
<g id="edge1" class="edge">
<title>Node1&#45;&gt;Node2</title>
<path fill="none" stroke="midnightblue" d="M180.6,-46.92C172.17,-47.96 163.58,-49.01 155.15,-50.05"/>
<polygon fill="midnightblue" stroke="midnightblue" points="181.29,-50.36 190.79,-45.66 180.43,-43.41 181.29,-50.36"/>
</g>
<!-- Node3 -->
<g id="node3" class="node">
<title>Node3</title>
<g id="a_node3"><a xlink:href="classProyecto__Final_1_1Datos.html#a9c9266cfd3975bdd6fa1ff33f4a0a18f" target="_top" xlink:title="Actualiza la informacion de las publicaciones.">
<polygon fill="white" stroke="black" points="5.5,-0.5 5.5,-30.5 149.5,-30.5 149.5,-0.5 5.5,-0.5"/>
<text text-anchor="start" x="13.5" y="-18.5" font-family="Helvetica,sans-Serif" font-size="10.00">Proyecto_Final.Datos.Update</text>
<text text-anchor="middle" x="77.5" y="-7.5" font-family="Helvetica,sans-Serif" font-size="10.00">OfersData</text>
</a>
</g>
</g>
<!-- Node1&#45;&gt;Node3 -->
<g id="edge2" class="edge">
<title>Node1&#45;&gt;Node3</title>
<path fill="none" stroke="midnightblue" d="M180.62,-28.09C170.36,-26.82 159.87,-25.53 149.7,-24.28"/>
<polygon fill="midnightblue" stroke="midnightblue" points="180.43,-31.59 190.79,-29.34 181.29,-24.64 180.43,-31.59"/>
</g>
</g>
</svg>
