<?xml version="1.0" encoding="UTF-8" standalone="no"?>
<!DOCTYPE svg PUBLIC "-//W3C//DTD SVG 1.1//EN"
 "http://www.w3.org/Graphics/SVG/1.1/DTD/svg11.dtd">
<!-- Generated by graphviz version 2.49.3 (20211023.0002)
 -->
<!-- Title: Proyecto_Final.UserEmpresa.CrearOferta Pages: 1 -->
<svg width="719pt" height="88pt"
 viewBox="0.00 0.00 719.00 88.00" xmlns="http://www.w3.org/2000/svg" xmlns:xlink="http://www.w3.org/1999/xlink">
<g id="graph0" class="graph" transform="scale(1 1) rotate(0) translate(4 84)">
<title>Proyecto_Final.UserEmpresa.CrearOferta</title>
<polygon fill="white" stroke="transparent" points="-4,4 -4,-84 715,-84 715,4 -4,4"/>
<!-- Node1 -->
<g id="node1" class="node">
<title>Node1</title>
<g id="a_node1"><a xlink:title="Como empresa, quiero publicar una oferta de materiales reciclables o residuos, para que de esa forma ...">
<polygon fill="#bfbfbf" stroke="black" points="0,-24.5 0,-54.5 147,-54.5 147,-24.5 0,-24.5"/>
<text text-anchor="start" x="8" y="-42.5" font-family="Helvetica,sans-Serif" font-size="10.00">Proyecto_Final.UserEmpresa.</text>
<text text-anchor="middle" x="73.5" y="-31.5" font-family="Helvetica,sans-Serif" font-size="10.00">CrearOferta</text>
</a>
</g>
</g>
<!-- Node2 -->
<g id="node2" class="node">
<title>Node2</title>
<g id="a_node2"><a xlink:href="classProyecto__Final_1_1UserEmpresa.html#a39d58c8a2fbc7b08395014dbebb891e6" target="_top" xlink:title="Como empresa, quiero indicar un conjunto de palabras claves asociadas a la publicación de los materia...">
<polygon fill="white" stroke="black" points="183,-49.5 183,-79.5 330,-79.5 330,-49.5 183,-49.5"/>
<text text-anchor="start" x="191" y="-67.5" font-family="Helvetica,sans-Serif" font-size="10.00">Proyecto_Final.UserEmpresa.</text>
<text text-anchor="middle" x="256.5" y="-56.5" font-family="Helvetica,sans-Serif" font-size="10.00">CrearMsjClave</text>
</a>
</g>
</g>
<!-- Node1&#45;&gt;Node2 -->
<g id="edge1" class="edge">
<title>Node1&#45;&gt;Node2</title>
<path fill="none" stroke="midnightblue" d="M147.08,-49.52C155.56,-50.7 164.26,-51.9 172.87,-53.09"/>
<polygon fill="midnightblue" stroke="midnightblue" points="172.52,-56.57 182.91,-54.47 173.48,-49.64 172.52,-56.57"/>
</g>
<!-- Node5 -->
<g id="node5" class="node">
<title>Node5</title>
<g id="a_node5"><a xlink:href="classProyecto__Final_1_1UserEmpresa.html#ab2f62906e4c081e1618bceaf5b8e97e7" target="_top" xlink:title="Como empresa, quiero clasificar los materiales o residuos, indicar su cantidad y unidad,...">
<polygon fill="white" stroke="black" points="183,-0.5 183,-30.5 330,-30.5 330,-0.5 183,-0.5"/>
<text text-anchor="start" x="191" y="-18.5" font-family="Helvetica,sans-Serif" font-size="10.00">Proyecto_Final.UserEmpresa.</text>
<text text-anchor="middle" x="256.5" y="-7.5" font-family="Helvetica,sans-Serif" font-size="10.00">CrearProducto</text>
</a>
</g>
</g>
<!-- Node1&#45;&gt;Node5 -->
<g id="edge4" class="edge">
<title>Node1&#45;&gt;Node5</title>
<path fill="none" stroke="midnightblue" d="M147.08,-29.88C155.56,-28.75 164.26,-27.6 172.87,-26.46"/>
<polygon fill="midnightblue" stroke="midnightblue" points="173.45,-29.91 182.91,-25.13 172.53,-22.97 173.45,-29.91"/>
</g>
<!-- Node3 -->
<g id="node3" class="node">
<title>Node3</title>
<g id="a_node3"><a xlink:href="classProyecto__Final_1_1Empresa.html#aa68dbd17274482d7958f0897c9887b5b" target="_top" xlink:title="Agrega una palabra clave a una publicacion determinada.">
<polygon fill="white" stroke="black" points="366,-49.5 366,-79.5 527,-79.5 527,-49.5 366,-49.5"/>
<text text-anchor="start" x="374" y="-67.5" font-family="Helvetica,sans-Serif" font-size="10.00">Proyecto_Final.Empresa.Agregar</text>
<text text-anchor="middle" x="446.5" y="-56.5" font-family="Helvetica,sans-Serif" font-size="10.00">MsjClave</text>
</a>
</g>
</g>
<!-- Node2&#45;&gt;Node3 -->
<g id="edge2" class="edge">
<title>Node2&#45;&gt;Node3</title>
<path fill="none" stroke="midnightblue" d="M330.19,-64.5C338.58,-64.5 347.21,-64.5 355.79,-64.5"/>
<polygon fill="midnightblue" stroke="midnightblue" points="355.83,-68 365.83,-64.5 355.83,-61 355.83,-68"/>
</g>
<!-- Node4 -->
<g id="node4" class="node">
<title>Node4</title>
<g id="a_node4"><a xlink:href="classProyecto__Final_1_1Oferta.html#a21dcf683780c6862d89e5f3485d58d6f" target="_top" xlink:title="Agrega una palabra clave a la listas de palabras clave de la oferta.">
<polygon fill="white" stroke="black" points="563,-49.5 563,-79.5 711,-79.5 711,-49.5 563,-49.5"/>
<text text-anchor="start" x="571" y="-67.5" font-family="Helvetica,sans-Serif" font-size="10.00">Proyecto_Final.Oferta.Agregar</text>
<text text-anchor="middle" x="637" y="-56.5" font-family="Helvetica,sans-Serif" font-size="10.00">MsjClave</text>
</a>
</g>
</g>
<!-- Node3&#45;&gt;Node4 -->
<g id="edge3" class="edge">
<title>Node3&#45;&gt;Node4</title>
<path fill="none" stroke="midnightblue" d="M527.17,-64.5C535.6,-64.5 544.19,-64.5 552.66,-64.5"/>
<polygon fill="midnightblue" stroke="midnightblue" points="552.91,-68 562.91,-64.5 552.91,-61 552.91,-68"/>
</g>
</g>
</svg>
