<?xml version="1.0" encoding="UTF-8" standalone="no"?>
<!DOCTYPE svg PUBLIC "-//W3C//DTD SVG 1.1//EN"
 "http://www.w3.org/Graphics/SVG/1.1/DTD/svg11.dtd">
<!-- Generated by graphviz version 2.49.3 (20211023.0002)
 -->
<!-- Title: Proyecto_Final.UserEmprendedorTests.VerOfertasUbicacionFailTest Pages: 1 -->
<svg width="986pt" height="127pt"
 viewBox="0.00 0.00 986.00 127.00" xmlns="http://www.w3.org/2000/svg" xmlns:xlink="http://www.w3.org/1999/xlink">
<g id="graph0" class="graph" transform="scale(1 1) rotate(0) translate(4 123)">
<title>Proyecto_Final.UserEmprendedorTests.VerOfertasUbicacionFailTest</title>
<polygon fill="white" stroke="transparent" points="-4,4 -4,-123 982,-123 982,4 -4,4"/>
<!-- Node1 -->
<g id="node1" class="node">
<title>Node1</title>
<g id="a_node1"><a xlink:title="Test para revisar si la clase es capaz de buscar ofertas mediante la ubicacion de 2 objetos,...">
<polygon fill="#bfbfbf" stroke="black" points="0,-44.5 0,-74.5 167,-74.5 167,-44.5 0,-44.5"/>
<text text-anchor="start" x="8" y="-62.5" font-family="Helvetica,sans-Serif" font-size="10.00">Proyecto_Final.UserEmprendedor</text>
<text text-anchor="middle" x="83.5" y="-51.5" font-family="Helvetica,sans-Serif" font-size="10.00">Tests.VerOfertasUbicacionFailTest</text>
</a>
</g>
</g>
<!-- Node2 -->
<g id="node2" class="node">
<title>Node2</title>
<g id="a_node2"><a xlink:href="classUcu_1_1Poo_1_1Locations_1_1Client_1_1LocationApiClient.html#a445836871e817e09d0a941a489326d91" target="_top" xlink:title=" ">
<polygon fill="white" stroke="black" points="211.5,-88.5 211.5,-118.5 360.5,-118.5 360.5,-88.5 211.5,-88.5"/>
<text text-anchor="start" x="219.5" y="-106.5" font-family="Helvetica,sans-Serif" font-size="10.00">Ucu.Poo.Locations.Client.</text>
<text text-anchor="middle" x="286" y="-95.5" font-family="Helvetica,sans-Serif" font-size="10.00">LocationApiClient.GetDistance</text>
</a>
</g>
</g>
<!-- Node1&#45;&gt;Node2 -->
<g id="edge1" class="edge">
<title>Node1&#45;&gt;Node2</title>
<path fill="none" stroke="midnightblue" d="M152.94,-74.52C170.1,-78.29 188.66,-82.36 206.28,-86.22"/>
<polygon fill="midnightblue" stroke="midnightblue" points="206.01,-89.75 216.53,-88.47 207.51,-82.91 206.01,-89.75"/>
</g>
<!-- Node4 -->
<g id="node4" class="node">
<title>Node4</title>
<g id="a_node4"><a xlink:href="classUcu_1_1Poo_1_1Locations_1_1Client_1_1LocationApiClient.html#a420f94704f37c1aeed52761f6a650f9f" target="_top" xlink:title=" ">
<polygon fill="white" stroke="black" points="618,-22.5 618,-52.5 766,-52.5 766,-22.5 618,-22.5"/>
<text text-anchor="start" x="626" y="-40.5" font-family="Helvetica,sans-Serif" font-size="10.00">Ucu.Poo.Locations.Client.</text>
<text text-anchor="middle" x="692" y="-29.5" font-family="Helvetica,sans-Serif" font-size="10.00">LocationApiClient.GetLocation</text>
</a>
</g>
</g>
<!-- Node1&#45;&gt;Node4 -->
<g id="edge3" class="edge">
<title>Node1&#45;&gt;Node4</title>
<path fill="none" stroke="midnightblue" d="M167.24,-56.5C282.88,-52.3 491.64,-44.73 607.62,-40.52"/>
<polygon fill="midnightblue" stroke="midnightblue" points="607.99,-44.01 617.86,-40.15 607.74,-37.02 607.99,-44.01"/>
</g>
<!-- Node6 -->
<g id="node6" class="node">
<title>Node6</title>
<g id="a_node6"><a xlink:href="classProyecto__Final_1_1UserEmprendedor.html#a9a77d8df6165ee77ae68dc7ff3ce39bd" target="_top" xlink:title="En base a la ubicación del Emprendedor, retorna una lista con todas las ofertas que se encuentren a u...">
<polygon fill="white" stroke="black" points="203,-0.5 203,-30.5 369,-30.5 369,-0.5 203,-0.5"/>
<text text-anchor="start" x="211" y="-18.5" font-family="Helvetica,sans-Serif" font-size="10.00">Proyecto_Final.UserEmprendedor.</text>
<text text-anchor="middle" x="286" y="-7.5" font-family="Helvetica,sans-Serif" font-size="10.00">VerOfertasUbicacion</text>
</a>
</g>
</g>
<!-- Node1&#45;&gt;Node6 -->
<g id="edge5" class="edge">
<title>Node1&#45;&gt;Node6</title>
<path fill="none" stroke="midnightblue" d="M152.94,-44.48C170.1,-40.71 188.66,-36.64 206.28,-32.78"/>
<polygon fill="midnightblue" stroke="midnightblue" points="207.51,-36.09 216.53,-30.53 206.01,-29.25 207.51,-36.09"/>
</g>
<!-- Node3 -->
<g id="node3" class="node">
<title>Node3</title>
<g id="a_node3"><a xlink:href="classUcu_1_1Poo_1_1Locations_1_1Client_1_1LocationApiClient.html#a4bad7ac87beda04ecaa73353f14badd7" target="_top" xlink:title="Obtiene la distancia entre dos coordenadas.">
<polygon fill="white" stroke="black" points="405,-88.5 405,-118.5 582,-118.5 582,-88.5 405,-88.5"/>
<text text-anchor="start" x="413" y="-106.5" font-family="Helvetica,sans-Serif" font-size="10.00">Ucu.Poo.Locations.Client.</text>
<text text-anchor="middle" x="493.5" y="-95.5" font-family="Helvetica,sans-Serif" font-size="10.00">LocationApiClient.GetDistanceAsync</text>
</a>
</g>
</g>
<!-- Node2&#45;&gt;Node3 -->
<g id="edge2" class="edge">
<title>Node2&#45;&gt;Node3</title>
<path fill="none" stroke="midnightblue" d="M360.61,-103.5C371.66,-103.5 383.19,-103.5 394.64,-103.5"/>
<polygon fill="midnightblue" stroke="midnightblue" points="394.67,-107 404.67,-103.5 394.67,-100 394.67,-107"/>
</g>
<!-- Node5 -->
<g id="node5" class="node">
<title>Node5</title>
<g id="a_node5"><a xlink:href="classUcu_1_1Poo_1_1Locations_1_1Client_1_1LocationApiClient.html#a775052647014829c8b09dd91b0ff2762" target="_top" xlink:title="Obtiene las coordenadas de una dirección.">
<polygon fill="white" stroke="black" points="802,-22.5 802,-52.5 978,-52.5 978,-22.5 802,-22.5"/>
<text text-anchor="start" x="810" y="-40.5" font-family="Helvetica,sans-Serif" font-size="10.00">Ucu.Poo.Locations.Client.</text>
<text text-anchor="middle" x="890" y="-29.5" font-family="Helvetica,sans-Serif" font-size="10.00">LocationApiClient.GetLocationAsync</text>
</a>
</g>
</g>
<!-- Node4&#45;&gt;Node5 -->
<g id="edge4" class="edge">
<title>Node4&#45;&gt;Node5</title>
<path fill="none" stroke="midnightblue" d="M766.26,-37.5C774.62,-37.5 783.24,-37.5 791.85,-37.5"/>
<polygon fill="midnightblue" stroke="midnightblue" points="791.94,-41 801.94,-37.5 791.94,-34 791.94,-41"/>
</g>
<!-- Node7 -->
<g id="node7" class="node">
<title>Node7</title>
<g id="a_node7"><a xlink:href="classProyecto__Final_1_1Buscador.html#a2c74e8d41cf6f6307a4dcae5d247f79b" target="_top" xlink:title="/// En base a la ubicación del Emprendedor, retorna una lista con todas las ofertas que se encuentren...">
<polygon fill="white" stroke="black" points="429,-0.5 429,-30.5 558,-30.5 558,-0.5 429,-0.5"/>
<text text-anchor="start" x="437" y="-18.5" font-family="Helvetica,sans-Serif" font-size="10.00">Proyecto_Final.Buscador.</text>
<text text-anchor="middle" x="493.5" y="-7.5" font-family="Helvetica,sans-Serif" font-size="10.00">VerOfertasUbicacion</text>
</a>
</g>
</g>
<!-- Node6&#45;&gt;Node7 -->
<g id="edge6" class="edge">
<title>Node6&#45;&gt;Node7</title>
<path fill="none" stroke="midnightblue" d="M369.1,-15.5C385.43,-15.5 402.48,-15.5 418.51,-15.5"/>
<polygon fill="midnightblue" stroke="midnightblue" points="418.88,-19 428.88,-15.5 418.88,-12 418.88,-19"/>
</g>
<!-- Node7&#45;&gt;Node4 -->
<g id="edge7" class="edge">
<title>Node7&#45;&gt;Node4</title>
<path fill="none" stroke="midnightblue" d="M558.03,-22.61C573.81,-24.38 590.97,-26.3 607.55,-28.16"/>
<polygon fill="midnightblue" stroke="midnightblue" points="607.46,-31.67 617.79,-29.3 608.24,-24.71 607.46,-31.67"/>
</g>
</g>
</svg>
