<?xml version="1.0" encoding="UTF-8" standalone="no"?>
<!DOCTYPE svg PUBLIC "-//W3C//DTD SVG 1.1//EN"
 "http://www.w3.org/Graphics/SVG/1.1/DTD/svg11.dtd">
<!-- Generated by graphviz version 2.49.3 (20211023.0002)
 -->
<!-- Title: Proyecto_Final.CommandsHandler.InternalHandle Pages: 1 -->
<svg width="357pt" height="39pt"
 viewBox="0.00 0.00 357.00 39.00" xmlns="http://www.w3.org/2000/svg" xmlns:xlink="http://www.w3.org/1999/xlink">
<g id="graph0" class="graph" transform="scale(1 1) rotate(0) translate(4 35)">
<title>Proyecto_Final.CommandsHandler.InternalHandle</title>
<polygon fill="white" stroke="transparent" points="-4,4 -4,-35 353,-35 353,4 -4,4"/>
<!-- Node1 -->
<g id="node1" class="node">
<title>Node1</title>
<g id="a_node1"><a xlink:title="Procesa el mensaje &quot;/comandos&quot; y retorna true; retorna false en caso contrario.">
<polygon fill="#bfbfbf" stroke="black" points="0,-0.5 0,-30.5 170,-30.5 170,-0.5 0,-0.5"/>
<text text-anchor="start" x="8" y="-18.5" font-family="Helvetica,sans-Serif" font-size="10.00">Proyecto_Final.CommandsHandler.</text>
<text text-anchor="middle" x="85" y="-7.5" font-family="Helvetica,sans-Serif" font-size="10.00">InternalHandle</text>
</a>
</g>
</g>
<!-- Node2 -->
<g id="node2" class="node">
<title>Node2</title>
<g id="a_node2"><a xlink:href="classProyecto__Final_1_1BaseHandler.html#ad1e4feff8eb3219fdd3f19c8e76c4e81" target="_top" xlink:title="Determina si este &quot;handler&quot; puede procesar el mensaje. En la clase base se utiliza el array BaseHandl...">
<polygon fill="white" stroke="black" points="206,-0.5 206,-30.5 349,-30.5 349,-0.5 206,-0.5"/>
<text text-anchor="start" x="214" y="-18.5" font-family="Helvetica,sans-Serif" font-size="10.00">Proyecto_Final.BaseHandler.</text>
<text text-anchor="middle" x="277.5" y="-7.5" font-family="Helvetica,sans-Serif" font-size="10.00">CanHandle</text>
</a>
</g>
</g>
<!-- Node1&#45;&gt;Node2 -->
<g id="edge1" class="edge">
<title>Node1&#45;&gt;Node2</title>
<path fill="none" stroke="midnightblue" d="M170.11,-15.5C178.61,-15.5 187.24,-15.5 195.7,-15.5"/>
<polygon fill="midnightblue" stroke="midnightblue" points="195.94,-19 205.94,-15.5 195.94,-12 195.94,-19"/>
</g>
</g>
</svg>
