<?xml version="1.0" encoding="UTF-8" standalone="no"?>
<!DOCTYPE svg PUBLIC "-//W3C//DTD SVG 1.1//EN"
 "http://www.w3.org/Graphics/SVG/1.1/DTD/svg11.dtd">
<!-- Generated by graphviz version 2.49.3 (20211023.0002)
 -->
<!-- Title: Proyecto_Final.MaterialsConsumedHandler.InternalHandle Pages: 1 -->
<svg width="553pt" height="88pt"
 viewBox="0.00 0.00 553.00 88.00" xmlns="http://www.w3.org/2000/svg" xmlns:xlink="http://www.w3.org/1999/xlink">
<g id="graph0" class="graph" transform="scale(1 1) rotate(0) translate(4 84)">
<title>Proyecto_Final.MaterialsConsumedHandler.InternalHandle</title>
<polygon fill="white" stroke="transparent" points="-4,4 -4,-84 549,-84 549,4 -4,4"/>
<!-- Node1 -->
<g id="node1" class="node">
<title>Node1</title>
<g id="a_node1"><a xlink:title="Procesa el mensaje &quot;/materiales_consumidos&quot; y retorna true; retorna false en caso contrario.">
<polygon fill="#bfbfbf" stroke="black" points="0,-24.5 0,-54.5 161,-54.5 161,-24.5 0,-24.5"/>
<text text-anchor="start" x="8" y="-42.5" font-family="Helvetica,sans-Serif" font-size="10.00">Proyecto_Final.Materials</text>
<text text-anchor="middle" x="80.5" y="-31.5" font-family="Helvetica,sans-Serif" font-size="10.00">ConsumedHandler.InternalHandle</text>
</a>
</g>
</g>
<!-- Node2 -->
<g id="node2" class="node">
<title>Node2</title>
<g id="a_node2"><a xlink:href="classProyecto__Final_1_1BaseHandler.html#ad1e4feff8eb3219fdd3f19c8e76c4e81" target="_top" xlink:title="Determina si este &quot;handler&quot; puede procesar el mensaje. En la clase base se utiliza el array BaseHandl...">
<polygon fill="white" stroke="black" points="208.5,-49.5 208.5,-79.5 351.5,-79.5 351.5,-49.5 208.5,-49.5"/>
<text text-anchor="start" x="216.5" y="-67.5" font-family="Helvetica,sans-Serif" font-size="10.00">Proyecto_Final.BaseHandler.</text>
<text text-anchor="middle" x="280" y="-56.5" font-family="Helvetica,sans-Serif" font-size="10.00">CanHandle</text>
</a>
</g>
</g>
<!-- Node1&#45;&gt;Node2 -->
<g id="edge1" class="edge">
<title>Node1&#45;&gt;Node2</title>
<path fill="none" stroke="midnightblue" d="M161.26,-49.6C173.47,-51.14 186.09,-52.74 198.32,-54.29"/>
<polygon fill="midnightblue" stroke="midnightblue" points="198.12,-57.79 208.48,-55.57 199,-50.85 198.12,-57.79"/>
</g>
<!-- Node3 -->
<g id="node3" class="node">
<title>Node3</title>
<g id="a_node3"><a xlink:href="classProyecto__Final_1_1UserEmprendedor.html#a7df5a29374072534429f58061989da70" target="_top" xlink:title="Como emprendedor, quiero saber cuántos materiales o residuos consumí en un período de tiempo,...">
<polygon fill="white" stroke="black" points="197,-0.5 197,-30.5 363,-30.5 363,-0.5 197,-0.5"/>
<text text-anchor="start" x="205" y="-18.5" font-family="Helvetica,sans-Serif" font-size="10.00">Proyecto_Final.UserEmprendedor.</text>
<text text-anchor="middle" x="280" y="-7.5" font-family="Helvetica,sans-Serif" font-size="10.00">VerificarConsumo</text>
</a>
</g>
</g>
<!-- Node1&#45;&gt;Node3 -->
<g id="edge2" class="edge">
<title>Node1&#45;&gt;Node3</title>
<path fill="none" stroke="midnightblue" d="M161.26,-29.81C169.65,-28.79 178.23,-27.75 186.74,-26.71"/>
<polygon fill="midnightblue" stroke="midnightblue" points="187.18,-30.18 196.69,-25.5 186.34,-23.23 187.18,-30.18"/>
</g>
<!-- Node4 -->
<g id="node4" class="node">
<title>Node4</title>
<g id="a_node4"><a xlink:href="classProyecto__Final_1_1Emprendedor.html#a1af2bebf0929cca05ae28ea88b8e7e3c" target="_top" xlink:title="Como emprendedor, quiero saber cuántos materiales o residuos consumí en un período de tiempo,...">
<polygon fill="white" stroke="black" points="399,-0.5 399,-30.5 545,-30.5 545,-0.5 399,-0.5"/>
<text text-anchor="start" x="407" y="-18.5" font-family="Helvetica,sans-Serif" font-size="10.00">Proyecto_Final.Emprendedor.</text>
<text text-anchor="middle" x="472" y="-7.5" font-family="Helvetica,sans-Serif" font-size="10.00">VerificarConsumo</text>
</a>
</g>
</g>
<!-- Node3&#45;&gt;Node4 -->
<g id="edge3" class="edge">
<title>Node3&#45;&gt;Node4</title>
<path fill="none" stroke="midnightblue" d="M363.23,-15.5C371.65,-15.5 380.19,-15.5 388.61,-15.5"/>
<polygon fill="midnightblue" stroke="midnightblue" points="388.79,-19 398.79,-15.5 388.79,-12 388.79,-19"/>
</g>
</g>
</svg>
