<?xml version="1.0" encoding="UTF-8" standalone="no"?>
<!DOCTYPE svg PUBLIC "-//W3C//DTD SVG 1.1//EN"
 "http://www.w3.org/Graphics/SVG/1.1/DTD/svg11.dtd">
<!-- Generated by graphviz version 2.49.3 (20211023.0002)
 -->
<!-- Title: Proyecto_Final.Datos.UpdateEmpresasData Pages: 1 -->
<svg width="340pt" height="88pt"
 viewBox="0.00 0.00 340.00 88.00" xmlns="http://www.w3.org/2000/svg" xmlns:xlink="http://www.w3.org/1999/xlink">
<g id="graph0" class="graph" transform="scale(1 1) rotate(0) translate(4 84)">
<title>Proyecto_Final.Datos.UpdateEmpresasData</title>
<polygon fill="white" stroke="transparent" points="-4,4 -4,-84 336,-84 336,4 -4,4"/>
<!-- Node1 -->
<g id="node1" class="node">
<title>Node1</title>
<g id="a_node1"><a xlink:title="Actualiza los datos que se encuentran almacenados en el &quot;.json&quot;, para que sean iguales a los datos al...">
<polygon fill="#bfbfbf" stroke="black" points="188,-24.5 188,-54.5 332,-54.5 332,-24.5 188,-24.5"/>
<text text-anchor="start" x="196" y="-42.5" font-family="Helvetica,sans-Serif" font-size="10.00">Proyecto_Final.Datos.Update</text>
<text text-anchor="middle" x="260" y="-31.5" font-family="Helvetica,sans-Serif" font-size="10.00">EmpresasData</text>
</a>
</g>
</g>
<!-- Node2 -->
<g id="node2" class="node">
<title>Node2</title>
<g id="a_node2"><a xlink:href="classProyecto__Final_1_1Datos.html#a540f21f7268b4182721522f13ef5913b" target="_top" xlink:title="Agrega un usuario Empresa a la lista de usuarios y actualiza la lista para que al momento de guardar ...">
<polygon fill="white" stroke="black" points="0,-49.5 0,-79.5 152,-79.5 152,-49.5 0,-49.5"/>
<text text-anchor="start" x="8" y="-67.5" font-family="Helvetica,sans-Serif" font-size="10.00">Proyecto_Final.Datos.Registrar</text>
<text text-anchor="middle" x="76" y="-56.5" font-family="Helvetica,sans-Serif" font-size="10.00">UsuarioEmpresa</text>
</a>
</g>
</g>
<!-- Node1&#45;&gt;Node2 -->
<g id="edge1" class="edge">
<title>Node1&#45;&gt;Node2</title>
<path fill="none" stroke="midnightblue" d="M177.83,-50.65C169.24,-51.83 160.52,-53.03 152,-54.2"/>
<polygon fill="midnightblue" stroke="midnightblue" points="178.42,-54.1 187.85,-49.27 177.47,-47.17 178.42,-54.1"/>
</g>
<!-- Node3 -->
<g id="node3" class="node">
<title>Node3</title>
<g id="a_node3"><a xlink:href="classProyecto__Final_1_1Datos.html#a9c9266cfd3975bdd6fa1ff33f4a0a18f" target="_top" xlink:title="Actualiza la informacion de las publicaciones.">
<polygon fill="white" stroke="black" points="4,-0.5 4,-30.5 148,-30.5 148,-0.5 4,-0.5"/>
<text text-anchor="start" x="12" y="-18.5" font-family="Helvetica,sans-Serif" font-size="10.00">Proyecto_Final.Datos.Update</text>
<text text-anchor="middle" x="76" y="-7.5" font-family="Helvetica,sans-Serif" font-size="10.00">OfersData</text>
</a>
</g>
</g>
<!-- Node1&#45;&gt;Node3 -->
<g id="edge2" class="edge">
<title>Node1&#45;&gt;Node3</title>
<path fill="none" stroke="midnightblue" d="M177.66,-28.77C167.8,-27.47 157.79,-26.15 148.1,-24.88"/>
<polygon fill="midnightblue" stroke="midnightblue" points="177.48,-32.28 187.85,-30.12 178.4,-25.34 177.48,-32.28"/>
</g>
</g>
</svg>
