<?xml version="1.0" encoding="UTF-8" standalone="no"?>
<!DOCTYPE svg PUBLIC "-//W3C//DTD SVG 1.1//EN"
 "http://www.w3.org/Graphics/SVG/1.1/DTD/svg11.dtd">
<!-- Generated by graphviz version 2.49.3 (20211023.0002)
 -->
<!-- Title: Proyecto_Final.Buscador.VerOfertasTipo Pages: 1 -->
<svg width="538pt" height="88pt"
 viewBox="0.00 0.00 538.00 88.00" xmlns="http://www.w3.org/2000/svg" xmlns:xlink="http://www.w3.org/1999/xlink">
<g id="graph0" class="graph" transform="scale(1 1) rotate(0) translate(4 84)">
<title>Proyecto_Final.Buscador.VerOfertasTipo</title>
<polygon fill="white" stroke="transparent" points="-4,4 -4,-84 534,-84 534,4 -4,4"/>
<!-- Node1 -->
<g id="node1" class="node">
<title>Node1</title>
<g id="a_node1"><a xlink:title="En base a un tipo de producto recibido, otorga todas las ofertas que tengan el mismo tipo">
<polygon fill="#bfbfbf" stroke="black" points="401,-24.5 401,-54.5 530,-54.5 530,-24.5 401,-24.5"/>
<text text-anchor="start" x="409" y="-42.5" font-family="Helvetica,sans-Serif" font-size="10.00">Proyecto_Final.Buscador.</text>
<text text-anchor="middle" x="465.5" y="-31.5" font-family="Helvetica,sans-Serif" font-size="10.00">VerOfertasTipo</text>
</a>
</g>
</g>
<!-- Node2 -->
<g id="node2" class="node">
<title>Node2</title>
<g id="a_node2"><a xlink:href="classProyecto__Final_1_1UserEmprendedor.html#a39280f4417c1a567dd77bcb73d738e69" target="_top" xlink:title="En base a un tipo de producto recibido, otorga todas las ofertas que tengan el mismo tipo.">
<polygon fill="white" stroke="black" points="199,-24.5 199,-54.5 365,-54.5 365,-24.5 199,-24.5"/>
<text text-anchor="start" x="207" y="-42.5" font-family="Helvetica,sans-Serif" font-size="10.00">Proyecto_Final.UserEmprendedor.</text>
<text text-anchor="middle" x="282" y="-31.5" font-family="Helvetica,sans-Serif" font-size="10.00">VerOfertasTipo</text>
</a>
</g>
</g>
<!-- Node1&#45;&gt;Node2 -->
<g id="edge1" class="edge">
<title>Node1&#45;&gt;Node2</title>
<path fill="none" stroke="midnightblue" d="M390.62,-39.5C382.2,-39.5 373.58,-39.5 365.06,-39.5"/>
<polygon fill="midnightblue" stroke="midnightblue" points="390.77,-43 400.77,-39.5 390.77,-36 390.77,-43"/>
</g>
<!-- Node3 -->
<g id="node3" class="node">
<title>Node3</title>
<g id="a_node3"><a xlink:href="classProyecto__Final_1_1UserEmprendedorTests.html#a185cbf0f5f41f93292da31d576a6af43" target="_top" xlink:title="Test para revisar si la clase es capaz de buscar ofertas mediante un tipo de producto ingresado que e...">
<polygon fill="white" stroke="black" points="0,-49.5 0,-79.5 163,-79.5 163,-49.5 0,-49.5"/>
<text text-anchor="start" x="8" y="-67.5" font-family="Helvetica,sans-Serif" font-size="10.00">Proyecto_Final.UserEmprendedor</text>
<text text-anchor="middle" x="81.5" y="-56.5" font-family="Helvetica,sans-Serif" font-size="10.00">Tests.VerOfertasTipoFailTest</text>
</a>
</g>
</g>
<!-- Node2&#45;&gt;Node3 -->
<g id="edge2" class="edge">
<title>Node2&#45;&gt;Node3</title>
<path fill="none" stroke="midnightblue" d="M188.78,-51.12C180.17,-52.2 171.5,-53.29 163.01,-54.36"/>
<polygon fill="midnightblue" stroke="midnightblue" points="189.35,-54.57 198.83,-49.85 188.47,-47.63 189.35,-54.57"/>
</g>
<!-- Node4 -->
<g id="node4" class="node">
<title>Node4</title>
<g id="a_node4"><a xlink:href="classProyecto__Final_1_1UserEmprendedorTests.html#af1faa9a1c18606dfee1e1ecb2841fafc" target="_top" xlink:title="Test para revisar si la clase es capaz de buscar ofertas mediante un tipo de producto ingresado que e...">
<polygon fill="white" stroke="black" points="0,-0.5 0,-30.5 163,-30.5 163,-0.5 0,-0.5"/>
<text text-anchor="start" x="8" y="-18.5" font-family="Helvetica,sans-Serif" font-size="10.00">Proyecto_Final.UserEmprendedor</text>
<text text-anchor="middle" x="81.5" y="-7.5" font-family="Helvetica,sans-Serif" font-size="10.00">Tests.VerOfertasTipoTest</text>
</a>
</g>
</g>
<!-- Node2&#45;&gt;Node4 -->
<g id="edge3" class="edge">
<title>Node2&#45;&gt;Node4</title>
<path fill="none" stroke="midnightblue" d="M188.78,-28.35C180.17,-27.31 171.5,-26.26 163.01,-25.23"/>
<polygon fill="midnightblue" stroke="midnightblue" points="188.48,-31.84 198.83,-29.57 189.32,-24.89 188.48,-31.84"/>
</g>
</g>
</svg>
