<?xml version="1.0" encoding="UTF-8" standalone="no"?>
<!DOCTYPE svg PUBLIC "-//W3C//DTD SVG 1.1//EN"
 "http://www.w3.org/Graphics/SVG/1.1/DTD/svg11.dtd">
<!-- Generated by graphviz version 2.49.3 (20211023.0002)
 -->
<!-- Title: Proyecto_Final.PublishHandler.InternalHandle Pages: 1 -->
<svg width="938pt" height="137pt"
 viewBox="0.00 0.00 938.00 137.00" xmlns="http://www.w3.org/2000/svg" xmlns:xlink="http://www.w3.org/1999/xlink">
<g id="graph0" class="graph" transform="scale(1 1) rotate(0) translate(4 133)">
<title>Proyecto_Final.PublishHandler.InternalHandle</title>
<polygon fill="white" stroke="transparent" points="-4,4 -4,-133 934,-133 934,4 -4,4"/>
<!-- Node1 -->
<g id="node1" class="node">
<title>Node1</title>
<g id="a_node1"><a xlink:title="Procesa el mensaje &quot;/publicar&quot; y retorna true; retorna false en caso contrario.">
<polygon fill="#bfbfbf" stroke="black" points="0,-49.5 0,-79.5 153,-79.5 153,-49.5 0,-49.5"/>
<text text-anchor="start" x="8" y="-67.5" font-family="Helvetica,sans-Serif" font-size="10.00">Proyecto_Final.PublishHandler.</text>
<text text-anchor="middle" x="76.5" y="-56.5" font-family="Helvetica,sans-Serif" font-size="10.00">InternalHandle</text>
</a>
</g>
</g>
<!-- Node2 -->
<g id="node2" class="node">
<title>Node2</title>
<g id="a_node2"><a xlink:href="classProyecto__Final_1_1BaseHandler.html#ad1e4feff8eb3219fdd3f19c8e76c4e81" target="_top" xlink:title="Determina si este &quot;handler&quot; puede procesar el mensaje. En la clase base se utiliza el array BaseHandl...">
<polygon fill="white" stroke="black" points="191.5,-98.5 191.5,-128.5 334.5,-128.5 334.5,-98.5 191.5,-98.5"/>
<text text-anchor="start" x="199.5" y="-116.5" font-family="Helvetica,sans-Serif" font-size="10.00">Proyecto_Final.BaseHandler.</text>
<text text-anchor="middle" x="263" y="-105.5" font-family="Helvetica,sans-Serif" font-size="10.00">CanHandle</text>
</a>
</g>
</g>
<!-- Node1&#45;&gt;Node2 -->
<g id="edge1" class="edge">
<title>Node1&#45;&gt;Node2</title>
<path fill="none" stroke="midnightblue" d="M134.11,-79.53C153.59,-84.71 175.58,-90.55 195.76,-95.91"/>
<polygon fill="midnightblue" stroke="midnightblue" points="194.93,-99.31 205.5,-98.49 196.73,-92.54 194.93,-99.31"/>
</g>
<!-- Node3 -->
<g id="node3" class="node">
<title>Node3</title>
<g id="a_node3"><a xlink:href="classProyecto__Final_1_1UserEmpresa.html#a281d3324e4fc157b938dc1d4a0a1f006" target="_top" xlink:title="Como empresa, quiero publicar una oferta de materiales reciclables o residuos, para que de esa forma ...">
<polygon fill="white" stroke="black" points="189.5,-49.5 189.5,-79.5 336.5,-79.5 336.5,-49.5 189.5,-49.5"/>
<text text-anchor="start" x="197.5" y="-67.5" font-family="Helvetica,sans-Serif" font-size="10.00">Proyecto_Final.UserEmpresa.</text>
<text text-anchor="middle" x="263" y="-56.5" font-family="Helvetica,sans-Serif" font-size="10.00">CrearOferta</text>
</a>
</g>
</g>
<!-- Node1&#45;&gt;Node3 -->
<g id="edge2" class="edge">
<title>Node1&#45;&gt;Node3</title>
<path fill="none" stroke="midnightblue" d="M153.08,-64.5C161.66,-64.5 170.44,-64.5 179.11,-64.5"/>
<polygon fill="midnightblue" stroke="midnightblue" points="179.22,-68 189.22,-64.5 179.22,-61 179.22,-68"/>
</g>
<!-- Node8 -->
<g id="node8" class="node">
<title>Node8</title>
<g id="a_node8"><a xlink:href="classUcu_1_1Poo_1_1Locations_1_1Client_1_1LocationApiClient.html#a420f94704f37c1aeed52761f6a650f9f" target="_top" xlink:title=" ">
<polygon fill="white" stroke="black" points="189,-0.5 189,-30.5 337,-30.5 337,-0.5 189,-0.5"/>
<text text-anchor="start" x="197" y="-18.5" font-family="Helvetica,sans-Serif" font-size="10.00">Ucu.Poo.Locations.Client.</text>
<text text-anchor="middle" x="263" y="-7.5" font-family="Helvetica,sans-Serif" font-size="10.00">LocationApiClient.GetLocation</text>
</a>
</g>
</g>
<!-- Node1&#45;&gt;Node8 -->
<g id="edge7" class="edge">
<title>Node1&#45;&gt;Node8</title>
<path fill="none" stroke="midnightblue" d="M134.11,-49.47C153.59,-44.29 175.58,-38.45 195.76,-33.09"/>
<polygon fill="midnightblue" stroke="midnightblue" points="196.73,-36.46 205.5,-30.51 194.93,-29.69 196.73,-36.46"/>
</g>
<!-- Node4 -->
<g id="node4" class="node">
<title>Node4</title>
<g id="a_node4"><a xlink:href="classProyecto__Final_1_1UserEmpresa.html#a39d58c8a2fbc7b08395014dbebb891e6" target="_top" xlink:title="Como empresa, quiero indicar un conjunto de palabras claves asociadas a la publicación de los materia...">
<polygon fill="white" stroke="black" points="387.5,-98.5 387.5,-128.5 534.5,-128.5 534.5,-98.5 387.5,-98.5"/>
<text text-anchor="start" x="395.5" y="-116.5" font-family="Helvetica,sans-Serif" font-size="10.00">Proyecto_Final.UserEmpresa.</text>
<text text-anchor="middle" x="461" y="-105.5" font-family="Helvetica,sans-Serif" font-size="10.00">CrearMsjClave</text>
</a>
</g>
</g>
<!-- Node3&#45;&gt;Node4 -->
<g id="edge3" class="edge">
<title>Node3&#45;&gt;Node4</title>
<path fill="none" stroke="midnightblue" d="M324.14,-79.53C345.02,-84.76 368.61,-90.65 390.21,-96.05"/>
<polygon fill="midnightblue" stroke="midnightblue" points="389.42,-99.46 399.98,-98.49 391.12,-92.67 389.42,-99.46"/>
</g>
<!-- Node7 -->
<g id="node7" class="node">
<title>Node7</title>
<g id="a_node7"><a xlink:href="classProyecto__Final_1_1UserEmpresa.html#ab2f62906e4c081e1618bceaf5b8e97e7" target="_top" xlink:title="Como empresa, quiero clasificar los materiales o residuos, indicar su cantidad y unidad,...">
<polygon fill="white" stroke="black" points="387.5,-49.5 387.5,-79.5 534.5,-79.5 534.5,-49.5 387.5,-49.5"/>
<text text-anchor="start" x="395.5" y="-67.5" font-family="Helvetica,sans-Serif" font-size="10.00">Proyecto_Final.UserEmpresa.</text>
<text text-anchor="middle" x="461" y="-56.5" font-family="Helvetica,sans-Serif" font-size="10.00">CrearProducto</text>
</a>
</g>
</g>
<!-- Node3&#45;&gt;Node7 -->
<g id="edge6" class="edge">
<title>Node3&#45;&gt;Node7</title>
<path fill="none" stroke="midnightblue" d="M336.7,-64.5C349.9,-64.5 363.75,-64.5 377.21,-64.5"/>
<polygon fill="midnightblue" stroke="midnightblue" points="377.41,-68 387.41,-64.5 377.41,-61 377.41,-68"/>
</g>
<!-- Node5 -->
<g id="node5" class="node">
<title>Node5</title>
<g id="a_node5"><a xlink:href="classProyecto__Final_1_1Empresa.html#aa68dbd17274482d7958f0897c9887b5b" target="_top" xlink:title="Agrega una palabra clave a una publicacion determinada.">
<polygon fill="white" stroke="black" points="585,-98.5 585,-128.5 746,-128.5 746,-98.5 585,-98.5"/>
<text text-anchor="start" x="593" y="-116.5" font-family="Helvetica,sans-Serif" font-size="10.00">Proyecto_Final.Empresa.Agregar</text>
<text text-anchor="middle" x="665.5" y="-105.5" font-family="Helvetica,sans-Serif" font-size="10.00">MsjClave</text>
</a>
</g>
</g>
<!-- Node4&#45;&gt;Node5 -->
<g id="edge4" class="edge">
<title>Node4&#45;&gt;Node5</title>
<path fill="none" stroke="midnightblue" d="M534.54,-113.5C547.56,-113.5 561.27,-113.5 574.71,-113.5"/>
<polygon fill="midnightblue" stroke="midnightblue" points="574.92,-117 584.92,-113.5 574.92,-110 574.92,-117"/>
</g>
<!-- Node6 -->
<g id="node6" class="node">
<title>Node6</title>
<g id="a_node6"><a xlink:href="classProyecto__Final_1_1Oferta.html#a21dcf683780c6862d89e5f3485d58d6f" target="_top" xlink:title="Agrega una palabra clave a la listas de palabras clave de la oferta.">
<polygon fill="white" stroke="black" points="782,-98.5 782,-128.5 930,-128.5 930,-98.5 782,-98.5"/>
<text text-anchor="start" x="790" y="-116.5" font-family="Helvetica,sans-Serif" font-size="10.00">Proyecto_Final.Oferta.Agregar</text>
<text text-anchor="middle" x="856" y="-105.5" font-family="Helvetica,sans-Serif" font-size="10.00">MsjClave</text>
</a>
</g>
</g>
<!-- Node5&#45;&gt;Node6 -->
<g id="edge5" class="edge">
<title>Node5&#45;&gt;Node6</title>
<path fill="none" stroke="midnightblue" d="M746.17,-113.5C754.6,-113.5 763.19,-113.5 771.66,-113.5"/>
<polygon fill="midnightblue" stroke="midnightblue" points="771.91,-117 781.91,-113.5 771.91,-110 771.91,-117"/>
</g>
<!-- Node9 -->
<g id="node9" class="node">
<title>Node9</title>
<g id="a_node9"><a xlink:href="classUcu_1_1Poo_1_1Locations_1_1Client_1_1LocationApiClient.html#a775052647014829c8b09dd91b0ff2762" target="_top" xlink:title="Obtiene las coordenadas de una dirección.">
<polygon fill="white" stroke="black" points="373,-0.5 373,-30.5 549,-30.5 549,-0.5 373,-0.5"/>
<text text-anchor="start" x="381" y="-18.5" font-family="Helvetica,sans-Serif" font-size="10.00">Ucu.Poo.Locations.Client.</text>
<text text-anchor="middle" x="461" y="-7.5" font-family="Helvetica,sans-Serif" font-size="10.00">LocationApiClient.GetLocationAsync</text>
</a>
</g>
</g>
<!-- Node8&#45;&gt;Node9 -->
<g id="edge8" class="edge">
<title>Node8&#45;&gt;Node9</title>
<path fill="none" stroke="midnightblue" d="M337.26,-15.5C345.62,-15.5 354.24,-15.5 362.85,-15.5"/>
<polygon fill="midnightblue" stroke="midnightblue" points="362.94,-19 372.94,-15.5 362.94,-12 362.94,-19"/>
</g>
</g>
</svg>
