<?xml version="1.0" encoding="UTF-8" standalone="no"?>
<!DOCTYPE svg PUBLIC "-//W3C//DTD SVG 1.1//EN"
 "http://www.w3.org/Graphics/SVG/1.1/DTD/svg11.dtd">
<!-- Generated by graphviz version 2.49.3 (20211023.0002)
 -->
<!-- Title: Proyecto_Final.UserEmprendedorTests.VerOfertasTipoFailTest Pages: 1 -->
<svg width="538pt" height="39pt"
 viewBox="0.00 0.00 538.00 39.00" xmlns="http://www.w3.org/2000/svg" xmlns:xlink="http://www.w3.org/1999/xlink">
<g id="graph0" class="graph" transform="scale(1 1) rotate(0) translate(4 35)">
<title>Proyecto_Final.UserEmprendedorTests.VerOfertasTipoFailTest</title>
<polygon fill="white" stroke="transparent" points="-4,4 -4,-35 534,-35 534,4 -4,4"/>
<!-- Node1 -->
<g id="node1" class="node">
<title>Node1</title>
<g id="a_node1"><a xlink:title="Test para revisar si la clase es capaz de buscar ofertas mediante un tipo de producto ingresado que e...">
<polygon fill="#bfbfbf" stroke="black" points="0,-0.5 0,-30.5 163,-30.5 163,-0.5 0,-0.5"/>
<text text-anchor="start" x="8" y="-18.5" font-family="Helvetica,sans-Serif" font-size="10.00">Proyecto_Final.UserEmprendedor</text>
<text text-anchor="middle" x="81.5" y="-7.5" font-family="Helvetica,sans-Serif" font-size="10.00">Tests.VerOfertasTipoFailTest</text>
</a>
</g>
</g>
<!-- Node2 -->
<g id="node2" class="node">
<title>Node2</title>
<g id="a_node2"><a xlink:href="classProyecto__Final_1_1UserEmprendedor.html#a39280f4417c1a567dd77bcb73d738e69" target="_top" xlink:title="En base a un tipo de producto recibido, otorga todas las ofertas que tengan el mismo tipo.">
<polygon fill="white" stroke="black" points="199,-0.5 199,-30.5 365,-30.5 365,-0.5 199,-0.5"/>
<text text-anchor="start" x="207" y="-18.5" font-family="Helvetica,sans-Serif" font-size="10.00">Proyecto_Final.UserEmprendedor.</text>
<text text-anchor="middle" x="282" y="-7.5" font-family="Helvetica,sans-Serif" font-size="10.00">VerOfertasTipo</text>
</a>
</g>
</g>
<!-- Node1&#45;&gt;Node2 -->
<g id="edge1" class="edge">
<title>Node1&#45;&gt;Node2</title>
<path fill="none" stroke="midnightblue" d="M163.24,-15.5C171.56,-15.5 180.05,-15.5 188.49,-15.5"/>
<polygon fill="midnightblue" stroke="midnightblue" points="188.72,-19 198.72,-15.5 188.72,-12 188.72,-19"/>
</g>
<!-- Node3 -->
<g id="node3" class="node">
<title>Node3</title>
<g id="a_node3"><a xlink:href="classProyecto__Final_1_1Buscador.html#a36d77cdb0cb8dd6d78238f48fff0e316" target="_top" xlink:title="En base a un tipo de producto recibido, otorga todas las ofertas que tengan el mismo tipo">
<polygon fill="white" stroke="black" points="401,-0.5 401,-30.5 530,-30.5 530,-0.5 401,-0.5"/>
<text text-anchor="start" x="409" y="-18.5" font-family="Helvetica,sans-Serif" font-size="10.00">Proyecto_Final.Buscador.</text>
<text text-anchor="middle" x="465.5" y="-7.5" font-family="Helvetica,sans-Serif" font-size="10.00">VerOfertasTipo</text>
</a>
</g>
</g>
<!-- Node2&#45;&gt;Node3 -->
<g id="edge2" class="edge">
<title>Node2&#45;&gt;Node3</title>
<path fill="none" stroke="midnightblue" d="M365.25,-15.5C373.72,-15.5 382.29,-15.5 390.66,-15.5"/>
<polygon fill="midnightblue" stroke="midnightblue" points="390.75,-19 400.75,-15.5 390.75,-12 390.75,-19"/>
</g>
</g>
</svg>
