<?xml version="1.0" encoding="UTF-8" standalone="no"?>
<!DOCTYPE svg PUBLIC "-//W3C//DTD SVG 1.1//EN"
 "http://www.w3.org/Graphics/SVG/1.1/DTD/svg11.dtd">
<!-- Generated by graphviz version 2.49.3 (20211023.0002)
 -->
<!-- Title: Proyecto_Final.Buscador.VerOfertasPalabraClave Pages: 1 -->
<!--zoomable 88 -->
<svg id="main" version="1.1" xmlns="http://www.w3.org/2000/svg" xmlns:xlink="http://www.w3.org/1999/xlink" xml:space="preserve" onload="init(evt)">
<style type="text/css"><![CDATA[
.edge:hover path { stroke: red; }
.edge:hover polygon { stroke: red; fill: red; }
]]></style>
<script type="text/javascript"><![CDATA[
var edges = document.getElementsByTagName('g');
if (edges && edges.length) {
  for (var i=0;i<edges.length;i++) {
    if (edges[i].id.substr(0,4)=='edge') {
      edges[i].setAttribute('class','edge');
    }
  }
}
]]></script>
        <defs>
                <circle id="rim" cx="0" cy="0" r="7"/>
                <circle id="rim2" cx="0" cy="0" r="3.5"/>
                <g id="zoomPlus">
                        <use xlink:href="#rim" fill="#404040">
                                <set attributeName="fill" to="#808080" begin="zoomplus.mouseover" end="zoomplus.mouseout"/>
                        </use>
                        <path d="M-4,0h8M0,-4v8" fill="none" stroke="white" stroke-width="1.5" pointer-events="none"/>
                </g>
                <g id="zoomMin">
                        <use xlink:href="#rim" fill="#404040">
                                <set attributeName="fill" to="#808080" begin="zoomminus.mouseover" end="zoomminus.mouseout"/>
                        </use>
                        <path d="M-4,0h8" fill="none" stroke="white" stroke-width="1.5" pointer-events="none"/>
                </g>
                <g id="dirArrow">
                        <path fill="none" stroke="white" stroke-width="1.5" d="M0,-3.0v7 M-2.5,-0.5L0,-3.0L2.5,-0.5"/>
                </g>
               <g id="resetDef">
                       <use xlink:href="#rim2" fill="#404040">
                               <set attributeName="fill" to="#808080" begin="reset.mouseover" end="reset.mouseout"/>
                       </use>
               </g>
        </defs>

<script type="text/javascript">
var viewWidth = 556;
var viewHeight = 88;
var sectionId = 'dynsection-1';
</script>
<script xlink:href="svgpan.js"/>
<svg id="graph" class="graph">
<g id="viewport">
<title>Proyecto_Final.Buscador.VerOfertasPalabraClave</title>
<polygon fill="white" stroke="transparent" points="-4,4 -4,-84 552,-84 552,4 -4,4"/>
<!-- Node1 -->
<g id="node1" class="node">
<title>Node1</title>
<g id="a_node1"><a xlink:title="En base a una palabra clave recibida, otorga todas las ofertas que tengan la misma palabra clave">
<polygon fill="#bfbfbf" stroke="black" points="419,-24.5 419,-54.5 548,-54.5 548,-24.5 419,-24.5"/>
<text text-anchor="start" x="427" y="-42.5" font-family="Helvetica,sans-Serif" font-size="10.00">Proyecto_Final.Buscador.</text>
<text text-anchor="middle" x="483.5" y="-31.5" font-family="Helvetica,sans-Serif" font-size="10.00">VerOfertasPalabraClave</text>
</a>
</g>
</g>
<!-- Node2 -->
<g id="node2" class="node">
<title>Node2</title>
<g id="a_node2"><a xlink:href="classProyecto__Final_1_1UserEmprendedor.html#abc662bcf45f5bb4c5235c421620b97ba" target="_top" xlink:title="En base a una palabra clave, busca todas las ofertas que la contengan.">
<polygon fill="white" stroke="black" points="217,-24.5 217,-54.5 383,-54.5 383,-24.5 217,-24.5"/>
<text text-anchor="start" x="225" y="-42.5" font-family="Helvetica,sans-Serif" font-size="10.00">Proyecto_Final.UserEmprendedor.</text>
<text text-anchor="middle" x="300" y="-31.5" font-family="Helvetica,sans-Serif" font-size="10.00">VerOfertasPalabraClave</text>
</a>
</g>
</g>
<!-- Node1&#45;&gt;Node2 -->
<g id="edge1" class="edge">
<title>Node1&#45;&gt;Node2</title>
<path fill="none" stroke="midnightblue" d="M408.62,-39.5C400.2,-39.5 391.58,-39.5 383.06,-39.5"/>
<polygon fill="midnightblue" stroke="midnightblue" points="408.77,-43 418.77,-39.5 408.77,-36 408.77,-43"/>
</g>
<!-- Node3 -->
<g id="node3" class="node">
<title>Node3</title>
<g id="a_node3"><a xlink:href="classProyecto__Final_1_1UserEmprendedorTests.html#ae7d773bae1185f8c4703cb58edd4b5b2" target="_top" xlink:title="Test para revisar si la clase es capaz de buscar ofertas mediante una palabra clave ingresada que exi...">
<polygon fill="white" stroke="black" points="9,-49.5 9,-79.5 172,-79.5 172,-49.5 9,-49.5"/>
<text text-anchor="start" x="17" y="-67.5" font-family="Helvetica,sans-Serif" font-size="10.00">Proyecto_Final.UserEmprendedor</text>
<text text-anchor="middle" x="90.5" y="-56.5" font-family="Helvetica,sans-Serif" font-size="10.00">Tests.VerOfertasPalabraClave</text>
</a>
</g>
</g>
<!-- Node2&#45;&gt;Node3 -->
<g id="edge2" class="edge">
<title>Node2&#45;&gt;Node3</title>
<path fill="none" stroke="midnightblue" d="M206.9,-50.6C195.35,-51.99 183.6,-53.4 172.24,-54.77"/>
<polygon fill="midnightblue" stroke="midnightblue" points="207.48,-54.05 216.99,-49.38 206.64,-47.1 207.48,-54.05"/>
</g>
<!-- Node4 -->
<g id="node4" class="node">
<title>Node4</title>
<g id="a_node4"><a xlink:href="classProyecto__Final_1_1UserEmprendedorTests.html#a38bad9121e8fa373a73fbaec830878fd" target="_top" xlink:title="Test para revisar si la clase es capaz de buscar ofertas mediante una palabra clave ingresada que no ...">
<polygon fill="white" stroke="black" points="0,-0.5 0,-30.5 181,-30.5 181,-0.5 0,-0.5"/>
<text text-anchor="start" x="8" y="-18.5" font-family="Helvetica,sans-Serif" font-size="10.00">Proyecto_Final.UserEmprendedor</text>
<text text-anchor="middle" x="90.5" y="-7.5" font-family="Helvetica,sans-Serif" font-size="10.00">Tests.VerOfertasPalabraClaveFailTest</text>
</a>
</g>
</g>
<!-- Node2&#45;&gt;Node4 -->
<g id="edge3" class="edge">
<title>Node2&#45;&gt;Node4</title>
<path fill="none" stroke="midnightblue" d="M206.97,-28.86C198.38,-27.86 189.68,-26.86 181.12,-25.87"/>
<polygon fill="midnightblue" stroke="midnightblue" points="206.65,-32.34 216.99,-30.01 207.46,-25.39 206.65,-32.34"/>
</g>
</g>
</svg>
        <g id="navigator" transform="translate(0 0)" fill="#404254">
                <rect fill="#f2f5e9" fill-opacity="0.5" stroke="#606060" stroke-width=".5" x="0" y="0" width="60" height="60"/>
                <use id="zoomplus" xlink:href="#zoomPlus" x="17" y="9" onmousedown="handleZoom(evt,'in')"/>
                <use id="zoomminus" xlink:href="#zoomMin" x="42" y="9" onmousedown="handleZoom(evt,'out')"/>
                <use id="reset" xlink:href="#resetDef" x="30" y="36" onmousedown="handleReset()"/>
                <g id="arrowUp" xlink:href="#dirArrow" transform="translate(30 24)" onmousedown="handlePan(0,-1)">
                  <use xlink:href="#rim" fill="#404040">
                        <set attributeName="fill" to="#808080" begin="arrowUp.mouseover" end="arrowUp.mouseout"/>
                  </use>
                  <path fill="none" stroke="white" stroke-width="1.5" d="M0,-3.0v7 M-2.5,-0.5L0,-3.0L2.5,-0.5"/>
                </g>
                <g id="arrowRight" xlink:href="#dirArrow" transform="rotate(90) translate(36 -43)" onmousedown="handlePan(1,0)">
                  <use xlink:href="#rim" fill="#404040">
                        <set attributeName="fill" to="#808080" begin="arrowRight.mouseover" end="arrowRight.mouseout"/>
                  </use>
                  <path fill="none" stroke="white" stroke-width="1.5" d="M0,-3.0v7 M-2.5,-0.5L0,-3.0L2.5,-0.5"/>
                </g>
                <g id="arrowDown" xlink:href="#dirArrow" transform="rotate(180) translate(-30 -48)" onmousedown="handlePan(0,1)">
                  <use xlink:href="#rim" fill="#404040">
                        <set attributeName="fill" to="#808080" begin="arrowDown.mouseover" end="arrowDown.mouseout"/>
                  </use>
                  <path fill="none" stroke="white" stroke-width="1.5" d="M0,-3.0v7 M-2.5,-0.5L0,-3.0L2.5,-0.5"/>
                </g>
                <g id="arrowLeft" xlink:href="#dirArrow" transform="rotate(270) translate(-36 17)" onmousedown="handlePan(-1,0)">
                  <use xlink:href="#rim" fill="#404040">
                        <set attributeName="fill" to="#808080" begin="arrowLeft.mouseover" end="arrowLeft.mouseout"/>
                  </use>
                  <path fill="none" stroke="white" stroke-width="1.5" d="M0,-3.0v7 M-2.5,-0.5L0,-3.0L2.5,-0.5"/>
                </g>
        </g>
        <svg viewBox="0 0 15 15" width="100%" height="30px" preserveAspectRatio="xMaxYMin meet">
         <g id="arrow_out" transform="scale(0.3 0.3)">
          <a xlink:href="classProyecto__Final_1_1Buscador_a006a52250da1997f883b1d649ccaa5f0_icgraph_org.svg" target="_base">
           <rect id="button" ry="5" rx="5" y="6" x="6" height="38" width="38"
                fill="#f2f5e9" fill-opacity="0.5" stroke="#606060" stroke-width="1.0"/>
           <path id="arrow"
             d="M 11.500037,31.436501 C 11.940474,20.09759 22.043105,11.32322 32.158766,21.979434 L 37.068811,17.246167 C 37.068811,17.246167 37.088388,32 37.088388,32 L 22.160133,31.978069 C 22.160133,31.978069 26.997745,27.140456 26.997745,27.140456 C 18.528582,18.264221 13.291696,25.230495 11.500037,31.436501 z"
             style="fill:#404040;"/>
          </a>
         </g>
        </svg>
</svg>
