<?xml version="1.0" encoding="UTF-8" standalone="no"?>
<!DOCTYPE svg PUBLIC "-//W3C//DTD SVG 1.1//EN"
 "http://www.w3.org/Graphics/SVG/1.1/DTD/svg11.dtd">
<!-- Generated by graphviz version 2.49.3 (20211023.0002)
 -->
<!-- Title: Proyecto_Final.SearchKeyWordsHandler Pages: 1 -->
<svg width="149pt" height="364pt"
 viewBox="0.00 0.00 149.00 364.00" xmlns="http://www.w3.org/2000/svg" xmlns:xlink="http://www.w3.org/1999/xlink">
<g id="graph0" class="graph" transform="scale(1 1) rotate(0) translate(4 360)">
<title>Proyecto_Final.SearchKeyWordsHandler</title>
<polygon fill="white" stroke="transparent" points="-4,4 -4,-360 145,-360 145,4 -4,4"/>
<!-- Node1 -->
<g id="node1" class="node">
<title>Node1</title>
<g id="a_node1"><a xlink:title="Un &quot;handler&quot; del patrón Chain of Responsibility que implementa el comando &quot;/buscar_palabra&quot;.">
<polygon fill="#bfbfbf" stroke="black" points="0,-0.5 0,-79.5 141,-79.5 141,-0.5 0,-0.5"/>
<text text-anchor="start" x="8" y="-67.5" font-family="Helvetica,sans-Serif" font-size="10.00">Proyecto_Final.SearchKey</text>
<text text-anchor="middle" x="70.5" y="-56.5" font-family="Helvetica,sans-Serif" font-size="10.00">WordsHandler</text>
<polyline fill="none" stroke="black" points="0,-49.5 141,-49.5 "/>
<text text-anchor="start" x="8" y="-37.5" font-family="Helvetica,sans-Serif" font-size="10.00">+ AllowedStatus</text>
<polyline fill="none" stroke="black" points="0,-30.5 141,-30.5 "/>
<text text-anchor="start" x="8" y="-18.5" font-family="Helvetica,sans-Serif" font-size="10.00">+ SearchKeyWordsHandler()</text>
<text text-anchor="start" x="8" y="-7.5" font-family="Helvetica,sans-Serif" font-size="10.00"># InternalHandle()</text>
</a>
</g>
</g>
<!-- Node2 -->
<g id="node2" class="node">
<title>Node2</title>
<g id="a_node2"><a xlink:href="classProyecto__Final_1_1BaseHandler.html" target="_top" xlink:title="Clase base para implementar el patrón Chain of Responsibility. En ese patrón se pasa un mensaje a tra...">
<polygon fill="white" stroke="black" points="24.5,-116.5 24.5,-250.5 116.5,-250.5 116.5,-116.5 24.5,-116.5"/>
<text text-anchor="middle" x="70.5" y="-238.5" font-family="Helvetica,sans-Serif" font-size="10.00">BaseHandler</text>
<polyline fill="none" stroke="black" points="24.5,-231.5 116.5,-231.5 "/>
<text text-anchor="start" x="32.5" y="-219.5" font-family="Helvetica,sans-Serif" font-size="10.00">+ Next</text>
<text text-anchor="start" x="32.5" y="-208.5" font-family="Helvetica,sans-Serif" font-size="10.00">+ Keywords</text>
<polyline fill="none" stroke="black" points="24.5,-201.5 116.5,-201.5 "/>
<text text-anchor="start" x="32.5" y="-189.5" font-family="Helvetica,sans-Serif" font-size="10.00">+ BaseHandler()</text>
<text text-anchor="start" x="32.5" y="-178.5" font-family="Helvetica,sans-Serif" font-size="10.00">+ BaseHandler()</text>
<text text-anchor="start" x="32.5" y="-167.5" font-family="Helvetica,sans-Serif" font-size="10.00">+ Handle()</text>
<text text-anchor="start" x="32.5" y="-156.5" font-family="Helvetica,sans-Serif" font-size="10.00">+ Cancel()</text>
<text text-anchor="start" x="32.5" y="-145.5" font-family="Helvetica,sans-Serif" font-size="10.00"># InternalHandle()</text>
<text text-anchor="start" x="32.5" y="-134.5" font-family="Helvetica,sans-Serif" font-size="10.00"># InternalCancel()</text>
<text text-anchor="start" x="32.5" y="-123.5" font-family="Helvetica,sans-Serif" font-size="10.00"># CanHandle()</text>
</a>
</g>
</g>
<!-- Node2&#45;&gt;Node1 -->
<g id="edge1" class="edge">
<title>Node2&#45;&gt;Node1</title>
<path fill="none" stroke="midnightblue" d="M70.5,-106.03C70.5,-96.95 70.5,-87.99 70.5,-79.76"/>
<polygon fill="none" stroke="midnightblue" points="67,-106.31 70.5,-116.31 74,-106.31 67,-106.31"/>
</g>
<!-- Node3 -->
<g id="node3" class="node">
<title>Node3</title>
<g id="a_node3"><a xlink:href="interfaceProyecto__Final_1_1IHandler.html" target="_top" xlink:title="Interfaz para implementar el patrón Chain of Responsibility. En ese patrón se pasa un mensaje a travé...">
<polygon fill="white" stroke="black" points="39.5,-287.5 39.5,-355.5 101.5,-355.5 101.5,-287.5 39.5,-287.5"/>
<text text-anchor="middle" x="70.5" y="-343.5" font-family="Helvetica,sans-Serif" font-size="10.00">IHandler</text>
<polyline fill="none" stroke="black" points="39.5,-336.5 101.5,-336.5 "/>
<text text-anchor="start" x="47.5" y="-324.5" font-family="Helvetica,sans-Serif" font-size="10.00">+ Next</text>
<polyline fill="none" stroke="black" points="39.5,-317.5 101.5,-317.5 "/>
<text text-anchor="start" x="47.5" y="-305.5" font-family="Helvetica,sans-Serif" font-size="10.00">+ Handle()</text>
<text text-anchor="start" x="47.5" y="-294.5" font-family="Helvetica,sans-Serif" font-size="10.00">+ Cancel()</text>
</a>
</g>
</g>
<!-- Node3&#45;&gt;Node2 -->
<g id="edge2" class="edge">
<title>Node3&#45;&gt;Node2</title>
<path fill="none" stroke="midnightblue" d="M70.5,-276.96C70.5,-268.57 70.5,-259.6 70.5,-250.68"/>
<polygon fill="none" stroke="midnightblue" points="67,-277.23 70.5,-287.23 74,-277.23 67,-277.23"/>
</g>
</g>
</svg>
