<?xml version="1.0" encoding="UTF-8" standalone="no"?>
<!DOCTYPE svg PUBLIC "-//W3C//DTD SVG 1.1//EN"
 "http://www.w3.org/Graphics/SVG/1.1/DTD/svg11.dtd">
<!-- Generated by graphviz version 2.49.3 (20211023.0002)
 -->
<!-- Title: Proyecto_Final.ExitHandler Pages: 1 -->
<svg width="143pt" height="353pt"
 viewBox="0.00 0.00 143.00 353.00" xmlns="http://www.w3.org/2000/svg" xmlns:xlink="http://www.w3.org/1999/xlink">
<g id="graph0" class="graph" transform="scale(1 1) rotate(0) translate(4 349)">
<title>Proyecto_Final.ExitHandler</title>
<polygon fill="white" stroke="transparent" points="-4,4 -4,-349 139,-349 139,4 -4,4"/>
<!-- Node1 -->
<g id="node1" class="node">
<title>Node1</title>
<g id="a_node1"><a xlink:title="Un &quot;handler&quot; del patrón Chain of Responsibility que implementa el comando &quot;/salir&quot;.">
<polygon fill="#bfbfbf" stroke="black" points="0,-0.5 0,-68.5 135,-68.5 135,-0.5 0,-0.5"/>
<text text-anchor="middle" x="67.5" y="-56.5" font-family="Helvetica,sans-Serif" font-size="10.00">Proyecto_Final.ExitHandler</text>
<polyline fill="none" stroke="black" points="0,-49.5 135,-49.5 "/>
<text text-anchor="middle" x="67.5" y="-37.5" font-family="Helvetica,sans-Serif" font-size="10.00"> </text>
<polyline fill="none" stroke="black" points="0,-30.5 135,-30.5 "/>
<text text-anchor="start" x="8" y="-18.5" font-family="Helvetica,sans-Serif" font-size="10.00">+ ExitHandler()</text>
<text text-anchor="start" x="8" y="-7.5" font-family="Helvetica,sans-Serif" font-size="10.00"># InternalHandle()</text>
</a>
</g>
</g>
<!-- Node2 -->
<g id="node2" class="node">
<title>Node2</title>
<g id="a_node2"><a xlink:href="classProyecto__Final_1_1BaseHandler.html" target="_top" xlink:title="Clase base para implementar el patrón Chain of Responsibility. En ese patrón se pasa un mensaje a tra...">
<polygon fill="white" stroke="black" points="21.5,-105.5 21.5,-239.5 113.5,-239.5 113.5,-105.5 21.5,-105.5"/>
<text text-anchor="middle" x="67.5" y="-227.5" font-family="Helvetica,sans-Serif" font-size="10.00">BaseHandler</text>
<polyline fill="none" stroke="black" points="21.5,-220.5 113.5,-220.5 "/>
<text text-anchor="start" x="29.5" y="-208.5" font-family="Helvetica,sans-Serif" font-size="10.00">+ Next</text>
<text text-anchor="start" x="29.5" y="-197.5" font-family="Helvetica,sans-Serif" font-size="10.00">+ Keywords</text>
<polyline fill="none" stroke="black" points="21.5,-190.5 113.5,-190.5 "/>
<text text-anchor="start" x="29.5" y="-178.5" font-family="Helvetica,sans-Serif" font-size="10.00">+ BaseHandler()</text>
<text text-anchor="start" x="29.5" y="-167.5" font-family="Helvetica,sans-Serif" font-size="10.00">+ BaseHandler()</text>
<text text-anchor="start" x="29.5" y="-156.5" font-family="Helvetica,sans-Serif" font-size="10.00">+ Handle()</text>
<text text-anchor="start" x="29.5" y="-145.5" font-family="Helvetica,sans-Serif" font-size="10.00">+ Cancel()</text>
<text text-anchor="start" x="29.5" y="-134.5" font-family="Helvetica,sans-Serif" font-size="10.00"># InternalHandle()</text>
<text text-anchor="start" x="29.5" y="-123.5" font-family="Helvetica,sans-Serif" font-size="10.00"># InternalCancel()</text>
<text text-anchor="start" x="29.5" y="-112.5" font-family="Helvetica,sans-Serif" font-size="10.00"># CanHandle()</text>
</a>
</g>
</g>
<!-- Node2&#45;&gt;Node1 -->
<g id="edge1" class="edge">
<title>Node2&#45;&gt;Node1</title>
<path fill="none" stroke="midnightblue" d="M67.5,-95.37C67.5,-86.08 67.5,-77 67.5,-68.83"/>
<polygon fill="none" stroke="midnightblue" points="64,-95.49 67.5,-105.49 71,-95.49 64,-95.49"/>
</g>
<!-- Node3 -->
<g id="node3" class="node">
<title>Node3</title>
<g id="a_node3"><a xlink:href="interfaceProyecto__Final_1_1IHandler.html" target="_top" xlink:title="Interfaz para implementar el patrón Chain of Responsibility. En ese patrón se pasa un mensaje a travé...">
<polygon fill="white" stroke="black" points="36.5,-276.5 36.5,-344.5 98.5,-344.5 98.5,-276.5 36.5,-276.5"/>
<text text-anchor="middle" x="67.5" y="-332.5" font-family="Helvetica,sans-Serif" font-size="10.00">IHandler</text>
<polyline fill="none" stroke="black" points="36.5,-325.5 98.5,-325.5 "/>
<text text-anchor="start" x="44.5" y="-313.5" font-family="Helvetica,sans-Serif" font-size="10.00">+ Next</text>
<polyline fill="none" stroke="black" points="36.5,-306.5 98.5,-306.5 "/>
<text text-anchor="start" x="44.5" y="-294.5" font-family="Helvetica,sans-Serif" font-size="10.00">+ Handle()</text>
<text text-anchor="start" x="44.5" y="-283.5" font-family="Helvetica,sans-Serif" font-size="10.00">+ Cancel()</text>
</a>
</g>
</g>
<!-- Node3&#45;&gt;Node2 -->
<g id="edge2" class="edge">
<title>Node3&#45;&gt;Node2</title>
<path fill="none" stroke="midnightblue" d="M67.5,-265.96C67.5,-257.57 67.5,-248.6 67.5,-239.68"/>
<polygon fill="none" stroke="midnightblue" points="64,-266.23 67.5,-276.23 71,-266.23 64,-266.23"/>
</g>
</g>
</svg>
