<?xml version="1.0" encoding="UTF-8" standalone="no"?>
<!DOCTYPE svg PUBLIC "-//W3C//DTD SVG 1.1//EN"
 "http://www.w3.org/Graphics/SVG/1.1/DTD/svg11.dtd">
<!-- Generated by graphviz version 2.49.3 (20211023.0002)
 -->
<!-- Title: Proyecto_Final.SearchZoneHandler.InternalHandle Pages: 1 -->
<svg width="908pt" height="88pt"
 viewBox="0.00 0.00 908.00 88.00" xmlns="http://www.w3.org/2000/svg" xmlns:xlink="http://www.w3.org/1999/xlink">
<g id="graph0" class="graph" transform="scale(1 1) rotate(0) translate(4 84)">
<title>Proyecto_Final.SearchZoneHandler.InternalHandle</title>
<polygon fill="white" stroke="transparent" points="-4,4 -4,-84 904,-84 904,4 -4,4"/>
<!-- Node1 -->
<g id="node1" class="node">
<title>Node1</title>
<g id="a_node1"><a xlink:title="Procesa el mensaje &quot;/buscar_zona&quot; y retorna true; retorna false en caso contrario.">
<polygon fill="#bfbfbf" stroke="black" points="0,-24.5 0,-54.5 137,-54.5 137,-24.5 0,-24.5"/>
<text text-anchor="start" x="8" y="-42.5" font-family="Helvetica,sans-Serif" font-size="10.00">Proyecto_Final.SearchZone</text>
<text text-anchor="middle" x="68.5" y="-31.5" font-family="Helvetica,sans-Serif" font-size="10.00">Handler.InternalHandle</text>
</a>
</g>
</g>
<!-- Node2 -->
<g id="node2" class="node">
<title>Node2</title>
<g id="a_node2"><a xlink:href="classProyecto__Final_1_1BaseHandler.html#ad1e4feff8eb3219fdd3f19c8e76c4e81" target="_top" xlink:title="Determina si este &quot;handler&quot; puede procesar el mensaje. En la clase base se utiliza el array BaseHandl...">
<polygon fill="white" stroke="black" points="184.5,-49.5 184.5,-79.5 327.5,-79.5 327.5,-49.5 184.5,-49.5"/>
<text text-anchor="start" x="192.5" y="-67.5" font-family="Helvetica,sans-Serif" font-size="10.00">Proyecto_Final.BaseHandler.</text>
<text text-anchor="middle" x="256" y="-56.5" font-family="Helvetica,sans-Serif" font-size="10.00">CanHandle</text>
</a>
</g>
</g>
<!-- Node1&#45;&gt;Node2 -->
<g id="edge1" class="edge">
<title>Node1&#45;&gt;Node2</title>
<path fill="none" stroke="midnightblue" d="M137.26,-48.63C149.22,-50.24 161.79,-51.94 174.08,-53.59"/>
<polygon fill="midnightblue" stroke="midnightblue" points="173.93,-57.11 184.31,-54.97 174.87,-50.17 173.93,-57.11"/>
</g>
<!-- Node3 -->
<g id="node3" class="node">
<title>Node3</title>
<g id="a_node3"><a xlink:href="classProyecto__Final_1_1UserEmprendedor.html#a9a77d8df6165ee77ae68dc7ff3ce39bd" target="_top" xlink:title="En base a la ubicación del Emprendedor, retorna una lista con todas las ofertas que se encuentren a u...">
<polygon fill="white" stroke="black" points="173,-0.5 173,-30.5 339,-30.5 339,-0.5 173,-0.5"/>
<text text-anchor="start" x="181" y="-18.5" font-family="Helvetica,sans-Serif" font-size="10.00">Proyecto_Final.UserEmprendedor.</text>
<text text-anchor="middle" x="256" y="-7.5" font-family="Helvetica,sans-Serif" font-size="10.00">VerOfertasUbicacion</text>
</a>
</g>
</g>
<!-- Node1&#45;&gt;Node3 -->
<g id="edge2" class="edge">
<title>Node1&#45;&gt;Node3</title>
<path fill="none" stroke="midnightblue" d="M137.26,-30.73C145.59,-29.66 154.21,-28.54 162.83,-27.43"/>
<polygon fill="midnightblue" stroke="midnightblue" points="163.45,-30.87 172.92,-26.12 162.55,-23.93 163.45,-30.87"/>
</g>
<!-- Node4 -->
<g id="node4" class="node">
<title>Node4</title>
<g id="a_node4"><a xlink:href="classProyecto__Final_1_1Buscador.html#a2c74e8d41cf6f6307a4dcae5d247f79b" target="_top" xlink:title="/// En base a la ubicación del Emprendedor, retorna una lista con todas las ofertas que se encuentren...">
<polygon fill="white" stroke="black" points="375,-0.5 375,-30.5 504,-30.5 504,-0.5 375,-0.5"/>
<text text-anchor="start" x="383" y="-18.5" font-family="Helvetica,sans-Serif" font-size="10.00">Proyecto_Final.Buscador.</text>
<text text-anchor="middle" x="439.5" y="-7.5" font-family="Helvetica,sans-Serif" font-size="10.00">VerOfertasUbicacion</text>
</a>
</g>
</g>
<!-- Node3&#45;&gt;Node4 -->
<g id="edge3" class="edge">
<title>Node3&#45;&gt;Node4</title>
<path fill="none" stroke="midnightblue" d="M339.25,-15.5C347.72,-15.5 356.29,-15.5 364.66,-15.5"/>
<polygon fill="midnightblue" stroke="midnightblue" points="364.75,-19 374.75,-15.5 364.75,-12 364.75,-19"/>
</g>
<!-- Node5 -->
<g id="node5" class="node">
<title>Node5</title>
<g id="a_node5"><a xlink:href="classUcu_1_1Poo_1_1Locations_1_1Client_1_1LocationApiClient.html#a420f94704f37c1aeed52761f6a650f9f" target="_top" xlink:title=" ">
<polygon fill="white" stroke="black" points="540,-0.5 540,-30.5 688,-30.5 688,-0.5 540,-0.5"/>
<text text-anchor="start" x="548" y="-18.5" font-family="Helvetica,sans-Serif" font-size="10.00">Ucu.Poo.Locations.Client.</text>
<text text-anchor="middle" x="614" y="-7.5" font-family="Helvetica,sans-Serif" font-size="10.00">LocationApiClient.GetLocation</text>
</a>
</g>
</g>
<!-- Node4&#45;&gt;Node5 -->
<g id="edge4" class="edge">
<title>Node4&#45;&gt;Node5</title>
<path fill="none" stroke="midnightblue" d="M504.24,-15.5C512.59,-15.5 521.24,-15.5 529.85,-15.5"/>
<polygon fill="midnightblue" stroke="midnightblue" points="529.91,-19 539.91,-15.5 529.91,-12 529.91,-19"/>
</g>
<!-- Node6 -->
<g id="node6" class="node">
<title>Node6</title>
<g id="a_node6"><a xlink:href="classUcu_1_1Poo_1_1Locations_1_1Client_1_1LocationApiClient.html#a775052647014829c8b09dd91b0ff2762" target="_top" xlink:title="Obtiene las coordenadas de una dirección.">
<polygon fill="white" stroke="black" points="724,-0.5 724,-30.5 900,-30.5 900,-0.5 724,-0.5"/>
<text text-anchor="start" x="732" y="-18.5" font-family="Helvetica,sans-Serif" font-size="10.00">Ucu.Poo.Locations.Client.</text>
<text text-anchor="middle" x="812" y="-7.5" font-family="Helvetica,sans-Serif" font-size="10.00">LocationApiClient.GetLocationAsync</text>
</a>
</g>
</g>
<!-- Node5&#45;&gt;Node6 -->
<g id="edge5" class="edge">
<title>Node5&#45;&gt;Node6</title>
<path fill="none" stroke="midnightblue" d="M688.26,-15.5C696.62,-15.5 705.24,-15.5 713.85,-15.5"/>
<polygon fill="midnightblue" stroke="midnightblue" points="713.94,-19 723.94,-15.5 713.94,-12 713.94,-19"/>
</g>
</g>
</svg>
