<?xml version="1.0" encoding="UTF-8" standalone="no"?>
<!DOCTYPE svg PUBLIC "-//W3C//DTD SVG 1.1//EN"
 "http://www.w3.org/Graphics/SVG/1.1/DTD/svg11.dtd">
<!-- Generated by graphviz version 2.49.3 (20211023.0002)
 -->
<!-- Title: Proyecto_Final.UserAdmin Pages: 1 -->
<svg width="141pt" height="182pt"
 viewBox="0.00 0.00 141.00 182.00" xmlns="http://www.w3.org/2000/svg" xmlns:xlink="http://www.w3.org/1999/xlink">
<g id="graph0" class="graph" transform="scale(1 1) rotate(0) translate(4 178)">
<title>Proyecto_Final.UserAdmin</title>
<polygon fill="white" stroke="transparent" points="-4,4 -4,-178 137,-178 137,4 -4,4"/>
<!-- Node1 -->
<g id="node1" class="node">
<title>Node1</title>
<g id="a_node1"><a xlink:title="Esta clase representa a los administradores del programa. La única función de esta clase es proveer a...">
<polygon fill="#bfbfbf" stroke="black" points="0,-0.5 0,-79.5 133,-79.5 133,-0.5 0,-0.5"/>
<text text-anchor="middle" x="66.5" y="-67.5" font-family="Helvetica,sans-Serif" font-size="10.00">Proyecto_Final.UserAdmin</text>
<polyline fill="none" stroke="black" points="0,-60.5 133,-60.5 "/>
<text text-anchor="start" x="8" y="-48.5" font-family="Helvetica,sans-Serif" font-size="10.00">+ Id</text>
<text text-anchor="start" x="8" y="-37.5" font-family="Helvetica,sans-Serif" font-size="10.00">+ Nombre</text>
<polyline fill="none" stroke="black" points="0,-30.5 133,-30.5 "/>
<text text-anchor="start" x="8" y="-18.5" font-family="Helvetica,sans-Serif" font-size="10.00">+ UserAdmin()</text>
<text text-anchor="start" x="8" y="-7.5" font-family="Helvetica,sans-Serif" font-size="10.00">+ InvitarEmpresa()</text>
</a>
</g>
</g>
<!-- Node2 -->
<g id="node2" class="node">
<title>Node2</title>
<g id="a_node2"><a xlink:href="interfaceProyecto__Final_1_1IUser.html" target="_top" xlink:title="Esta interfaz se utiliza para agrupar todas las clases usuario dentro de un solo tipo,...">
<polygon fill="white" stroke="black" points="47,-116.5 47,-173.5 86,-173.5 86,-116.5 47,-116.5"/>
<text text-anchor="middle" x="66.5" y="-161.5" font-family="Helvetica,sans-Serif" font-size="10.00">IUser</text>
<polyline fill="none" stroke="black" points="47,-154.5 86,-154.5 "/>
<text text-anchor="start" x="55" y="-142.5" font-family="Helvetica,sans-Serif" font-size="10.00">+ Id</text>
<polyline fill="none" stroke="black" points="47,-135.5 86,-135.5 "/>
<text text-anchor="middle" x="66.5" y="-123.5" font-family="Helvetica,sans-Serif" font-size="10.00"> </text>
</a>
</g>
</g>
<!-- Node2&#45;&gt;Node1 -->
<g id="edge1" class="edge">
<title>Node2&#45;&gt;Node1</title>
<path fill="none" stroke="midnightblue" d="M66.5,-106.16C66.5,-97.47 66.5,-88.23 66.5,-79.52"/>
<polygon fill="none" stroke="midnightblue" points="63,-106.4 66.5,-116.4 70,-106.4 63,-106.4"/>
</g>
</g>
</svg>
