<?xml version="1.0" encoding="UTF-8" standalone="no"?>
<!DOCTYPE svg PUBLIC "-//W3C//DTD SVG 1.1//EN"
 "http://www.w3.org/Graphics/SVG/1.1/DTD/svg11.dtd">
<!-- Generated by graphviz version 2.49.3 (20211023.0002)
 -->
<!-- Title: Proyecto_Final.IdGenerator.GenerateToken Pages: 1 -->
<svg width="498pt" height="137pt"
 viewBox="0.00 0.00 498.00 137.00" xmlns="http://www.w3.org/2000/svg" xmlns:xlink="http://www.w3.org/1999/xlink">
<g id="graph0" class="graph" transform="scale(1 1) rotate(0) translate(4 133)">
<title>Proyecto_Final.IdGenerator.GenerateToken</title>
<polygon fill="white" stroke="transparent" points="-4,4 -4,-133 494,-133 494,4 -4,4"/>
<!-- Node1 -->
<g id="node1" class="node">
<title>Node1</title>
<g id="a_node1"><a xlink:title="Genera un token.">
<polygon fill="#bfbfbf" stroke="black" points="352,-49.5 352,-79.5 490,-79.5 490,-49.5 352,-49.5"/>
<text text-anchor="start" x="360" y="-67.5" font-family="Helvetica,sans-Serif" font-size="10.00">Proyecto_Final.IdGenerator.</text>
<text text-anchor="middle" x="421" y="-56.5" font-family="Helvetica,sans-Serif" font-size="10.00">GenerateToken</text>
</a>
</g>
</g>
<!-- Node2 -->
<g id="node2" class="node">
<title>Node2</title>
<g id="a_node2"><a xlink:href="classProyecto__Final_1_1UserAdmin.html#a368b406a34b2a11014e52c49599c57b8" target="_top" xlink:title="Genera un token de invitacion para ser enviado y lo almacena para su verificacion.">
<polygon fill="white" stroke="black" points="180,-49.5 180,-79.5 316,-79.5 316,-49.5 180,-49.5"/>
<text text-anchor="start" x="188" y="-67.5" font-family="Helvetica,sans-Serif" font-size="10.00">Proyecto_Final.UserAdmin.</text>
<text text-anchor="middle" x="248" y="-56.5" font-family="Helvetica,sans-Serif" font-size="10.00">InvitarEmpresa</text>
</a>
</g>
</g>
<!-- Node1&#45;&gt;Node2 -->
<g id="edge1" class="edge">
<title>Node1&#45;&gt;Node2</title>
<path fill="none" stroke="midnightblue" d="M341.86,-64.5C333.22,-64.5 324.48,-64.5 316,-64.5"/>
<polygon fill="midnightblue" stroke="midnightblue" points="341.92,-68 351.92,-64.5 341.92,-61 341.92,-68"/>
</g>
<!-- Node3 -->
<g id="node3" class="node">
<title>Node3</title>
<g id="a_node3"><a xlink:href="classProyecto__Final_1_1InviteHandler.html#ab3f0d667fac3ac6eed0ef74c68e1e4aa" target="_top" xlink:title="Procesa el mensaje &quot;/invitar&quot; y retorna true; retorna false en caso contrario.">
<polygon fill="white" stroke="black" points="0.5,-98.5 0.5,-128.5 143.5,-128.5 143.5,-98.5 0.5,-98.5"/>
<text text-anchor="start" x="8.5" y="-116.5" font-family="Helvetica,sans-Serif" font-size="10.00">Proyecto_Final.InviteHandler.</text>
<text text-anchor="middle" x="72" y="-105.5" font-family="Helvetica,sans-Serif" font-size="10.00">InternalHandle</text>
</a>
</g>
</g>
<!-- Node2&#45;&gt;Node3 -->
<g id="edge2" class="edge">
<title>Node2&#45;&gt;Node3</title>
<path fill="none" stroke="midnightblue" d="M183.72,-82.32C164.93,-87.61 144.55,-93.35 126.45,-98.45"/>
<polygon fill="midnightblue" stroke="midnightblue" points="184.7,-85.68 193.37,-79.6 182.8,-78.94 184.7,-85.68"/>
</g>
<!-- Node4 -->
<g id="node4" class="node">
<title>Node4</title>
<g id="a_node4"><a xlink:href="classProyecto__Final_1_1AdminTests.html#a30d2096b644937554d19b085f2fea03c" target="_top" xlink:title="Test para revisar si se genera correctamente un código de 10 letras.">
<polygon fill="white" stroke="black" points="2,-49.5 2,-79.5 142,-79.5 142,-49.5 2,-49.5"/>
<text text-anchor="start" x="10" y="-67.5" font-family="Helvetica,sans-Serif" font-size="10.00">Proyecto_Final.AdminTests.</text>
<text text-anchor="middle" x="72" y="-56.5" font-family="Helvetica,sans-Serif" font-size="10.00">InvitarEmpresaTest</text>
</a>
</g>
</g>
<!-- Node2&#45;&gt;Node4 -->
<g id="edge3" class="edge">
<title>Node2&#45;&gt;Node4</title>
<path fill="none" stroke="midnightblue" d="M169.5,-64.5C160.38,-64.5 151.11,-64.5 142.11,-64.5"/>
<polygon fill="midnightblue" stroke="midnightblue" points="169.73,-68 179.73,-64.5 169.73,-61 169.73,-68"/>
</g>
<!-- Node5 -->
<g id="node5" class="node">
<title>Node5</title>
<g id="a_node5"><a xlink:href="classProyecto__Final_1_1UserEmpresaTests.html#ad293c04d1136239e84df812939e30fe5" target="_top" xlink:title="Test para revisar si se genera correctamente un código de 10 letras.">
<polygon fill="white" stroke="black" points="0,-0.5 0,-30.5 144,-30.5 144,-0.5 0,-0.5"/>
<text text-anchor="start" x="8" y="-18.5" font-family="Helvetica,sans-Serif" font-size="10.00">Proyecto_Final.UserEmpresa</text>
<text text-anchor="middle" x="72" y="-7.5" font-family="Helvetica,sans-Serif" font-size="10.00">Tests.InvitarEmpresaTest</text>
</a>
</g>
</g>
<!-- Node2&#45;&gt;Node5 -->
<g id="edge4" class="edge">
<title>Node2&#45;&gt;Node5</title>
<path fill="none" stroke="midnightblue" d="M183.72,-46.68C164.93,-41.39 144.55,-35.65 126.45,-30.55"/>
<polygon fill="midnightblue" stroke="midnightblue" points="182.8,-50.06 193.37,-49.4 184.7,-43.32 182.8,-50.06"/>
</g>
</g>
</svg>
