<?xml version="1.0" encoding="UTF-8" standalone="no"?>
<!DOCTYPE svg PUBLIC "-//W3C//DTD SVG 1.1//EN"
 "http://www.w3.org/Graphics/SVG/1.1/DTD/svg11.dtd">
<!-- Generated by graphviz version 2.49.3 (20211023.0002)
 -->
<!-- Title: Graphical Class Hierarchy Pages: 1 -->
<svg width="507pt" height="815pt"
 viewBox="0.00 0.00 507.00 814.50" xmlns="http://www.w3.org/2000/svg" xmlns:xlink="http://www.w3.org/1999/xlink">
<g id="graph0" class="graph" transform="scale(1 1) rotate(0) translate(4 810.5)">
<title>Graphical Class Hierarchy</title>
<polygon fill="white" stroke="transparent" points="-4,4 -4,-810.5 503,-810.5 503,4 -4,4"/>
<!-- Node0 -->
<g id="node1" class="node">
<title>Node0</title>
<g id="a_node1"><a xlink:href="interfaceProyecto__Final_1_1IHandler.html" target="_top" xlink:title="Interfaz para implementar el patrón Chain of Responsibility. En ese patrón se pasa un mensaje a travé...">
<polygon fill="white" stroke="black" points="0,-405.5 0,-424.5 120,-424.5 120,-405.5 0,-405.5"/>
<text text-anchor="middle" x="60" y="-412.5" font-family="Helvetica,sans-Serif" font-size="10.00">Proyecto_Final.IHandler</text>
</a>
</g>
</g>
<!-- Node1 -->
<g id="node2" class="node">
<title>Node1</title>
<g id="a_node2"><a xlink:href="classProyecto__Final_1_1BaseHandler.html" target="_top" xlink:title="Clase base para implementar el patrón Chain of Responsibility. En ese patrón se pasa un mensaje a tra...">
<polygon fill="white" stroke="black" points="156,-405.5 156,-424.5 296,-424.5 296,-405.5 156,-405.5"/>
<text text-anchor="middle" x="226" y="-412.5" font-family="Helvetica,sans-Serif" font-size="10.00">Proyecto_Final.BaseHandler</text>
</a>
</g>
</g>
<!-- Node0&#45;&gt;Node1 -->
<g id="edge1" class="edge">
<title>Node0&#45;&gt;Node1</title>
<path fill="none" stroke="midnightblue" d="M130.37,-415C138.8,-415 147.41,-415 155.84,-415"/>
<polygon fill="midnightblue" stroke="midnightblue" points="130.21,-411.5 120.21,-415 130.21,-418.5 130.21,-411.5"/>
</g>
<!-- Node2 -->
<g id="node3" class="node">
<title>Node2</title>
<g id="a_node3"><a xlink:href="classProyecto__Final_1_1AddAuthorizationHandler.html" target="_top" xlink:title="Un &quot;handler&quot; del patrón Chain of Responsibility que implementa el comando &quot;authorization&quot;.">
<polygon fill="white" stroke="black" points="336,-776 336,-806 495,-806 495,-776 336,-776"/>
<text text-anchor="start" x="344" y="-794" font-family="Helvetica,sans-Serif" font-size="10.00">Proyecto_Final.AddAuthorization</text>
<text text-anchor="middle" x="415.5" y="-783" font-family="Helvetica,sans-Serif" font-size="10.00">Handler</text>
</a>
</g>
</g>
<!-- Node1&#45;&gt;Node2 -->
<g id="edge2" class="edge">
<title>Node1&#45;&gt;Node2</title>
<path fill="none" stroke="midnightblue" d="M226.74,-435.07C227.11,-494.64 236.56,-672.2 332,-767 335.49,-770.47 339.46,-773.44 343.71,-775.99"/>
<polygon fill="midnightblue" stroke="midnightblue" points="230.24,-434.79 226.77,-424.79 223.24,-434.78 230.24,-434.79"/>
</g>
<!-- Node3 -->
<g id="node4" class="node">
<title>Node3</title>
<g id="a_node4"><a xlink:href="classProyecto__Final_1_1AddKeyWordHandler.html" target="_top" xlink:title="Un &quot;handler&quot; del patrón Chain of Responsibility que implementa el comando &quot;/agregar_palabra&quot;.">
<polygon fill="white" stroke="black" points="344,-727 344,-757 487,-757 487,-727 344,-727"/>
<text text-anchor="start" x="352" y="-745" font-family="Helvetica,sans-Serif" font-size="10.00">Proyecto_Final.AddKeyWord</text>
<text text-anchor="middle" x="415.5" y="-734" font-family="Helvetica,sans-Serif" font-size="10.00">Handler</text>
</a>
</g>
</g>
<!-- Node1&#45;&gt;Node3 -->
<g id="edge3" class="edge">
<title>Node1&#45;&gt;Node3</title>
<path fill="none" stroke="midnightblue" d="M227.94,-434.98C231.57,-488.66 249.01,-637.3 332,-717 335.99,-720.84 340.56,-724.08 345.44,-726.84"/>
<polygon fill="midnightblue" stroke="midnightblue" points="231.42,-434.54 227.35,-424.77 224.44,-434.95 231.42,-434.54"/>
</g>
<!-- Node4 -->
<g id="node5" class="node">
<title>Node4</title>
<g id="a_node5"><a xlink:href="classProyecto__Final_1_1CommandsHandler.html" target="_top" xlink:title="Un &quot;handler&quot; del patrón Chain of Responsibility que implementa el comando &quot;/comandos&quot;.">
<polygon fill="white" stroke="black" points="332,-688.5 332,-707.5 499,-707.5 499,-688.5 332,-688.5"/>
<text text-anchor="middle" x="415.5" y="-695.5" font-family="Helvetica,sans-Serif" font-size="10.00">Proyecto_Final.CommandsHandler</text>
</a>
</g>
</g>
<!-- Node1&#45;&gt;Node4 -->
<g id="edge4" class="edge">
<title>Node1&#45;&gt;Node4</title>
<path fill="none" stroke="midnightblue" d="M228.74,-434.73C234.19,-484.02 255.43,-613.28 332,-679 336.46,-682.83 341.54,-685.93 346.94,-688.42"/>
<polygon fill="midnightblue" stroke="midnightblue" points="232.22,-434.34 227.74,-424.74 225.25,-435.04 232.22,-434.34"/>
</g>
<!-- Node5 -->
<g id="node6" class="node">
<title>Node5</title>
<g id="a_node6"><a xlink:href="classProyecto__Final_1_1EndOfferHandler.html" target="_top" xlink:title="Un &quot;handler&quot; del patrón Chain of Responsibility que implementa el comando &quot;Publicar&quot;.">
<polygon fill="white" stroke="black" points="338,-650.5 338,-669.5 493,-669.5 493,-650.5 338,-650.5"/>
<text text-anchor="middle" x="415.5" y="-657.5" font-family="Helvetica,sans-Serif" font-size="10.00">Proyecto_Final.EndOfferHandler</text>
</a>
</g>
</g>
<!-- Node1&#45;&gt;Node5 -->
<g id="edge5" class="edge">
<title>Node1&#45;&gt;Node5</title>
<path fill="none" stroke="midnightblue" d="M230.16,-434.53C238.36,-478.64 264.6,-586.37 332,-641 336.68,-644.79 341.98,-647.86 347.58,-650.33"/>
<polygon fill="midnightblue" stroke="midnightblue" points="233.58,-433.78 228.41,-424.54 226.69,-434.99 233.58,-433.78"/>
</g>
<!-- Node6 -->
<g id="node7" class="node">
<title>Node6</title>
<g id="a_node7"><a xlink:href="classProyecto__Final_1_1ExitHandler.html" target="_top" xlink:title="Un &quot;handler&quot; del patrón Chain of Responsibility que implementa el comando &quot;/salir&quot;.">
<polygon fill="white" stroke="black" points="348,-612.5 348,-631.5 483,-631.5 483,-612.5 348,-612.5"/>
<text text-anchor="middle" x="415.5" y="-619.5" font-family="Helvetica,sans-Serif" font-size="10.00">Proyecto_Final.ExitHandler</text>
</a>
</g>
</g>
<!-- Node1&#45;&gt;Node6 -->
<g id="edge6" class="edge">
<title>Node1&#45;&gt;Node6</title>
<path fill="none" stroke="midnightblue" d="M232.15,-434.62C243.36,-473.26 273.77,-559.29 332,-603 337.17,-606.88 343,-609.99 349.11,-612.48"/>
<polygon fill="midnightblue" stroke="midnightblue" points="235.43,-433.34 229.38,-424.64 228.69,-435.21 235.43,-433.34"/>
</g>
<!-- Node7 -->
<g id="node8" class="node">
<title>Node7</title>
<g id="a_node8"><a xlink:href="classProyecto__Final_1_1GoodByeHandler.html" target="_top" xlink:title="Un &quot;handler&quot; del patrón Chain of Responsibility que implementa los comandos &quot;/chau&quot; y &quot;/adiós&quot;.">
<polygon fill="white" stroke="black" points="336.5,-574.5 336.5,-593.5 494.5,-593.5 494.5,-574.5 336.5,-574.5"/>
<text text-anchor="middle" x="415.5" y="-581.5" font-family="Helvetica,sans-Serif" font-size="10.00">Proyecto_Final.GoodByeHandler</text>
</a>
</g>
</g>
<!-- Node1&#45;&gt;Node7 -->
<g id="edge7" class="edge">
<title>Node1&#45;&gt;Node7</title>
<path fill="none" stroke="midnightblue" d="M234.85,-434.17C249.13,-466.51 282.51,-531.63 332,-565 337.73,-568.86 344.13,-571.95 350.77,-574.41"/>
<polygon fill="midnightblue" stroke="midnightblue" points="237.89,-432.38 230.75,-424.56 231.45,-435.13 237.89,-432.38"/>
</g>
<!-- Node8 -->
<g id="node9" class="node">
<title>Node8</title>
<g id="a_node9"><a xlink:href="classProyecto__Final_1_1HelloHandler.html" target="_top" xlink:title="Un &quot;handler&quot; del patrón Chain of Responsibility que implementa el comando &quot;/hola&quot;.">
<polygon fill="white" stroke="black" points="345.5,-536.5 345.5,-555.5 485.5,-555.5 485.5,-536.5 345.5,-536.5"/>
<text text-anchor="middle" x="415.5" y="-543.5" font-family="Helvetica,sans-Serif" font-size="10.00">Proyecto_Final.HelloHandler</text>
</a>
</g>
</g>
<!-- Node1&#45;&gt;Node8 -->
<g id="edge8" class="edge">
<title>Node1&#45;&gt;Node8</title>
<path fill="none" stroke="midnightblue" d="M238.78,-433.17C256.09,-458.32 290.82,-503.31 332,-527 338.75,-530.88 346.25,-533.97 353.88,-536.43"/>
<polygon fill="midnightblue" stroke="midnightblue" points="241.5,-430.94 233.03,-424.59 235.69,-434.84 241.5,-430.94"/>
</g>
<!-- Node9 -->
<g id="node10" class="node">
<title>Node9</title>
<g id="a_node10"><a xlink:href="classProyecto__Final_1_1InviteHandler.html" target="_top" xlink:title="Un &quot;handler&quot; del patrón Chain of Responsibility que implementa el comando &quot;/invitar&quot;.">
<polygon fill="white" stroke="black" points="345.5,-498.5 345.5,-517.5 485.5,-517.5 485.5,-498.5 345.5,-498.5"/>
<text text-anchor="middle" x="415.5" y="-505.5" font-family="Helvetica,sans-Serif" font-size="10.00">Proyecto_Final.InviteHandler</text>
</a>
</g>
</g>
<!-- Node1&#45;&gt;Node9 -->
<g id="edge9" class="edge">
<title>Node1&#45;&gt;Node9</title>
<path fill="none" stroke="midnightblue" d="M245.13,-431.14C265.06,-448.03 298.68,-474.12 332,-489 340.59,-492.84 350.04,-495.94 359.38,-498.44"/>
<polygon fill="midnightblue" stroke="midnightblue" points="247.33,-428.41 237.47,-424.52 242.75,-433.71 247.33,-428.41"/>
</g>
<!-- Node10 -->
<g id="node11" class="node">
<title>Node10</title>
<g id="a_node11"><a xlink:href="classProyecto__Final_1_1MaterialsConsumedHandler.html" target="_top" xlink:title="Un &quot;handler&quot; del patrón Chain of Responsibility que implementa el comando &quot;/materiales_consumidos&quot;.">
<polygon fill="white" stroke="black" points="353,-449 353,-479 478,-479 478,-449 353,-449"/>
<text text-anchor="start" x="361" y="-467" font-family="Helvetica,sans-Serif" font-size="10.00">Proyecto_Final.Materials</text>
<text text-anchor="middle" x="415.5" y="-456" font-family="Helvetica,sans-Serif" font-size="10.00">ConsumedHandler</text>
</a>
</g>
</g>
<!-- Node1&#45;&gt;Node10 -->
<g id="edge10" class="edge">
<title>Node1&#45;&gt;Node10</title>
<path fill="none" stroke="midnightblue" d="M273.31,-427.1C298.59,-433.71 330.11,-441.95 356.96,-448.96"/>
<polygon fill="midnightblue" stroke="midnightblue" points="274.16,-423.71 263.6,-424.56 272.39,-430.48 274.16,-423.71"/>
</g>
<!-- Node11 -->
<g id="node12" class="node">
<title>Node11</title>
<g id="a_node12"><a xlink:href="classProyecto__Final_1_1PeriodOfTimeHandler.html" target="_top" xlink:title="Un &quot;handler&quot; del patrón Chain of Responsibility que implementa el comando &quot;/ventas&quot;.">
<polygon fill="white" stroke="black" points="344,-400 344,-430 487,-430 487,-400 344,-400"/>
<text text-anchor="start" x="352" y="-418" font-family="Helvetica,sans-Serif" font-size="10.00">Proyecto_Final.PeriodOfTime</text>
<text text-anchor="middle" x="415.5" y="-407" font-family="Helvetica,sans-Serif" font-size="10.00">Handler</text>
</a>
</g>
</g>
<!-- Node1&#45;&gt;Node11 -->
<g id="edge11" class="edge">
<title>Node1&#45;&gt;Node11</title>
<path fill="none" stroke="midnightblue" d="M306.35,-415C318.77,-415 331.53,-415 343.74,-415"/>
<polygon fill="midnightblue" stroke="midnightblue" points="306.02,-411.5 296.02,-415 306.02,-418.5 306.02,-411.5"/>
</g>
<!-- Node12 -->
<g id="node13" class="node">
<title>Node12</title>
<g id="a_node13"><a xlink:href="classProyecto__Final_1_1PhotoHandler.html" target="_top" xlink:title="Un &quot;handler&quot; del patrón Chain of Responsibility que implementa el comando &quot;foto&quot;.">
<polygon fill="white" stroke="black" points="344,-361.5 344,-380.5 487,-380.5 487,-361.5 344,-361.5"/>
<text text-anchor="middle" x="415.5" y="-368.5" font-family="Helvetica,sans-Serif" font-size="10.00">Proyecto_Final.PhotoHandler</text>
</a>
</g>
</g>
<!-- Node1&#45;&gt;Node12 -->
<g id="edge12" class="edge">
<title>Node1&#45;&gt;Node12</title>
<path fill="none" stroke="midnightblue" d="M277.61,-403.12C307.81,-396.04 345.66,-387.16 373.89,-380.53"/>
<polygon fill="midnightblue" stroke="midnightblue" points="276.62,-399.76 267.68,-405.45 278.22,-406.58 276.62,-399.76"/>
</g>
<!-- Node13 -->
<g id="node14" class="node">
<title>Node13</title>
<g id="a_node14"><a xlink:href="classProyecto__Final_1_1PublishHandler.html" target="_top" xlink:title="Un &quot;handler&quot; del patrón Chain of Responsibility que implementa el comando &quot;/publicar&quot;.">
<polygon fill="white" stroke="black" points="340.5,-323.5 340.5,-342.5 490.5,-342.5 490.5,-323.5 340.5,-323.5"/>
<text text-anchor="middle" x="415.5" y="-330.5" font-family="Helvetica,sans-Serif" font-size="10.00">Proyecto_Final.PublishHandler</text>
</a>
</g>
</g>
<!-- Node1&#45;&gt;Node13 -->
<g id="edge13" class="edge">
<title>Node1&#45;&gt;Node13</title>
<path fill="none" stroke="midnightblue" d="M248.16,-399.57C268.65,-385.3 301.09,-364.47 332,-352 341.41,-348.21 351.73,-345.08 361.8,-342.53"/>
<polygon fill="midnightblue" stroke="midnightblue" points="246.02,-396.79 239.88,-405.42 250.07,-402.5 246.02,-396.79"/>
</g>
<!-- Node14 -->
<g id="node15" class="node">
<title>Node14</title>
<g id="a_node15"><a xlink:href="classProyecto__Final_1_1RecurrenciaHandler.html" target="_top" xlink:title="Un &quot;handler&quot; del patrón Chain of Responsibility que implementa el comando &quot;/buscar_recurrencia&quot;.">
<polygon fill="white" stroke="black" points="347,-274 347,-304 484,-304 484,-274 347,-274"/>
<text text-anchor="start" x="355" y="-292" font-family="Helvetica,sans-Serif" font-size="10.00">Proyecto_Final.Recurrencia</text>
<text text-anchor="middle" x="415.5" y="-281" font-family="Helvetica,sans-Serif" font-size="10.00">Handler</text>
</a>
</g>
</g>
<!-- Node1&#45;&gt;Node14 -->
<g id="edge14" class="edge">
<title>Node1&#45;&gt;Node14</title>
<path fill="none" stroke="midnightblue" d="M240.76,-397.37C259.2,-374.88 294.05,-336.24 332,-314 338.46,-310.22 345.54,-306.96 352.75,-304.16"/>
<polygon fill="midnightblue" stroke="midnightblue" points="237.84,-395.41 234.31,-405.39 243.3,-399.79 237.84,-395.41"/>
</g>
<!-- Node15 -->
<g id="node16" class="node">
<title>Node15</title>
<g id="a_node16"><a xlink:href="classProyecto__Final_1_1RegisterHandler.html" target="_top" xlink:title="Un &quot;handler&quot; del patrón Chain of Responsibility que implementa el comando &quot;/registro&quot;.">
<polygon fill="white" stroke="black" points="338.5,-235.5 338.5,-254.5 492.5,-254.5 492.5,-235.5 338.5,-235.5"/>
<text text-anchor="middle" x="415.5" y="-242.5" font-family="Helvetica,sans-Serif" font-size="10.00">Proyecto_Final.RegisterHandler</text>
</a>
</g>
</g>
<!-- Node1&#45;&gt;Node15 -->
<g id="edge15" class="edge">
<title>Node1&#45;&gt;Node15</title>
<path fill="none" stroke="midnightblue" d="M234.89,-395.89C249.23,-363.64 282.7,-298.65 332,-265 338.33,-260.68 345.49,-257.29 352.89,-254.63"/>
<polygon fill="midnightblue" stroke="midnightblue" points="231.51,-394.91 230.77,-405.48 237.94,-397.67 231.51,-394.91"/>
</g>
<!-- Node16 -->
<g id="node17" class="node">
<title>Node16</title>
<g id="a_node17"><a xlink:href="classProyecto__Final_1_1SearchCategoryHandler.html" target="_top" xlink:title="Un &quot;handler&quot; del patrón Chain of Responsibility que implementa el comando &quot;/buscar_categoria&quot;.">
<polygon fill="white" stroke="black" points="338,-186 338,-216 493,-216 493,-186 338,-186"/>
<text text-anchor="start" x="346" y="-204" font-family="Helvetica,sans-Serif" font-size="10.00">Proyecto_Final.SearchCategory</text>
<text text-anchor="middle" x="415.5" y="-193" font-family="Helvetica,sans-Serif" font-size="10.00">Handler</text>
</a>
</g>
</g>
<!-- Node1&#45;&gt;Node16 -->
<g id="edge16" class="edge">
<title>Node1&#45;&gt;Node16</title>
<path fill="none" stroke="midnightblue" d="M232.38,-395.62C244,-357.37 275.1,-271.91 332,-226 336.78,-222.15 342.14,-218.89 347.78,-216.13"/>
<polygon fill="midnightblue" stroke="midnightblue" points="228.94,-394.9 229.5,-405.48 235.66,-396.86 228.94,-394.9"/>
</g>
<!-- Node17 -->
<g id="node18" class="node">
<title>Node17</title>
<g id="a_node18"><a xlink:href="classProyecto__Final_1_1SearchKeyWordsHandler.html" target="_top" xlink:title="Un &quot;handler&quot; del patrón Chain of Responsibility que implementa el comando &quot;/buscar_palabra&quot;.">
<polygon fill="white" stroke="black" points="349,-137 349,-167 482,-167 482,-137 349,-137"/>
<text text-anchor="start" x="357" y="-155" font-family="Helvetica,sans-Serif" font-size="10.00">Proyecto_Final.SearchKey</text>
<text text-anchor="middle" x="415.5" y="-144" font-family="Helvetica,sans-Serif" font-size="10.00">WordsHandler</text>
</a>
</g>
</g>
<!-- Node1&#45;&gt;Node17 -->
<g id="edge17" class="edge">
<title>Node1&#45;&gt;Node17</title>
<path fill="none" stroke="midnightblue" d="M230.05,-395.08C238.08,-349.54 264.05,-237.17 332,-177 336.93,-172.63 342.6,-169.03 348.62,-166.06"/>
<polygon fill="midnightblue" stroke="midnightblue" points="226.56,-394.7 228.38,-405.14 233.47,-395.85 226.56,-394.7"/>
</g>
<!-- Node18 -->
<g id="node19" class="node">
<title>Node18</title>
<g id="a_node19"><a xlink:href="classProyecto__Final_1_1SearchZoneHandler.html" target="_top" xlink:title="Un &quot;handler&quot; del patrón Chain of Responsibility que implementa el comando &quot;/buscar_zona&quot;.">
<polygon fill="white" stroke="black" points="347,-88 347,-118 484,-118 484,-88 347,-88"/>
<text text-anchor="start" x="355" y="-106" font-family="Helvetica,sans-Serif" font-size="10.00">Proyecto_Final.SearchZone</text>
<text text-anchor="middle" x="415.5" y="-95" font-family="Helvetica,sans-Serif" font-size="10.00">Handler</text>
</a>
</g>
</g>
<!-- Node1&#45;&gt;Node18 -->
<g id="edge18" class="edge">
<title>Node1&#45;&gt;Node18</title>
<path fill="none" stroke="midnightblue" d="M228.33,-395.32C232.91,-343.69 252.41,-203.21 332,-128 336.35,-123.89 341.36,-120.45 346.71,-117.58"/>
<polygon fill="midnightblue" stroke="midnightblue" points="224.83,-395.19 227.53,-405.44 231.81,-395.75 224.83,-395.19"/>
</g>
<!-- Node19 -->
<g id="node20" class="node">
<title>Node19</title>
<g id="a_node20"><a xlink:href="classProyecto__Final_1_1ShowInterestInOfferHandler.html" target="_top" xlink:title="Un &quot;handler&quot; del patrón Chain of Responsibility que implementa el comando &quot;Publicar&quot;.">
<polygon fill="white" stroke="black" points="345,-39 345,-69 486,-69 486,-39 345,-39"/>
<text text-anchor="start" x="353" y="-57" font-family="Helvetica,sans-Serif" font-size="10.00">Proyecto_Final.ShowInterest</text>
<text text-anchor="middle" x="415.5" y="-46" font-family="Helvetica,sans-Serif" font-size="10.00">InOfferHandler</text>
</a>
</g>
</g>
<!-- Node1&#45;&gt;Node19 -->
<g id="edge19" class="edge">
<title>Node1&#45;&gt;Node19</title>
<path fill="none" stroke="midnightblue" d="M227.12,-395.13C228.59,-337.62 240.84,-169.37 332,-79 335.93,-75.1 340.45,-71.81 345.31,-69.02"/>
<polygon fill="midnightblue" stroke="midnightblue" points="223.62,-395.32 226.95,-405.38 230.62,-395.44 223.62,-395.32"/>
</g>
<!-- Node20 -->
<g id="node21" class="node">
<title>Node20</title>
<g id="a_node21"><a xlink:href="classProyecto__Final_1_1StartHandler.html" target="_top" xlink:title="Un &quot;handler&quot; del patrón Chain of Responsibility que implementa el comando &quot;/start&quot;.">
<polygon fill="white" stroke="black" points="346,-0.5 346,-19.5 485,-19.5 485,-0.5 346,-0.5"/>
<text text-anchor="middle" x="415.5" y="-7.5" font-family="Helvetica,sans-Serif" font-size="10.00">Proyecto_Final.StartHandler</text>
</a>
</g>
</g>
<!-- Node1&#45;&gt;Node20 -->
<g id="edge20" class="edge">
<title>Node1&#45;&gt;Node20</title>
<path fill="none" stroke="midnightblue" d="M229.76,-394.96C239.99,-323.47 278,-82.49 332,-30 336.44,-25.69 341.64,-22.25 347.24,-19.52"/>
<polygon fill="midnightblue" stroke="midnightblue" points="226.24,-394.87 228.31,-405.26 233.17,-395.84 226.24,-394.87"/>
</g>
</g>
</svg>
