<?xml version="1.0" encoding="UTF-8" standalone="no"?>
<!DOCTYPE svg PUBLIC "-//W3C//DTD SVG 1.1//EN"
 "http://www.w3.org/Graphics/SVG/1.1/DTD/svg11.dtd">
<!-- Generated by graphviz version 2.49.3 (20211023.0002)
 -->
<!-- Title: Graphical Class Hierarchy Pages: 1 -->
<svg width="314pt" height="104pt"
 viewBox="0.00 0.00 314.00 104.00" xmlns="http://www.w3.org/2000/svg" xmlns:xlink="http://www.w3.org/1999/xlink">
<g id="graph0" class="graph" transform="scale(1 1) rotate(0) translate(4 100)">
<title>Graphical Class Hierarchy</title>
<polygon fill="white" stroke="transparent" points="-4,4 -4,-100 310,-100 310,4 -4,4"/>
<!-- Node0 -->
<g id="node1" class="node">
<title>Node0</title>
<g id="a_node1"><a xlink:href="interfaceProyecto__Final_1_1IUser.html" target="_top" xlink:title="Esta interfaz se utiliza para agrupar todas las clases usuario dentro de un solo tipo,...">
<polygon fill="white" stroke="black" points="0,-38.5 0,-57.5 107,-57.5 107,-38.5 0,-38.5"/>
<text text-anchor="middle" x="53.5" y="-45.5" font-family="Helvetica,sans-Serif" font-size="10.00">Proyecto_Final.IUser</text>
</a>
</g>
</g>
<!-- Node1 -->
<g id="node2" class="node">
<title>Node1</title>
<g id="a_node2"><a xlink:href="classProyecto__Final_1_1UserAdmin.html" target="_top" xlink:title="Esta clase representa a los administradores del programa. La única función de esta clase es proveer a...">
<polygon fill="white" stroke="black" points="158,-76.5 158,-95.5 291,-95.5 291,-76.5 158,-76.5"/>
<text text-anchor="middle" x="224.5" y="-83.5" font-family="Helvetica,sans-Serif" font-size="10.00">Proyecto_Final.UserAdmin</text>
</a>
</g>
</g>
<!-- Node0&#45;&gt;Node1 -->
<g id="edge1" class="edge">
<title>Node0&#45;&gt;Node1</title>
<path fill="none" stroke="midnightblue" d="M107.09,-59.82C130.91,-65.18 158.71,-71.43 181.16,-76.48"/>
<polygon fill="midnightblue" stroke="midnightblue" points="107.67,-56.37 97.15,-57.59 106.13,-63.2 107.67,-56.37"/>
</g>
<!-- Node2 -->
<g id="node3" class="node">
<title>Node2</title>
<g id="a_node3"><a xlink:href="classProyecto__Final_1_1UserEmprendedor.html" target="_top" xlink:title="Esta clase representa a los usuarios emprendedores en el sistema. La función de esta clase es la de r...">
<polygon fill="white" stroke="black" points="143,-38.5 143,-57.5 306,-57.5 306,-38.5 143,-38.5"/>
<text text-anchor="middle" x="224.5" y="-45.5" font-family="Helvetica,sans-Serif" font-size="10.00">Proyecto_Final.UserEmprendedor</text>
</a>
</g>
</g>
<!-- Node0&#45;&gt;Node2 -->
<g id="edge2" class="edge">
<title>Node0&#45;&gt;Node2</title>
<path fill="none" stroke="midnightblue" d="M117.08,-48C125.45,-48 134.13,-48 142.75,-48"/>
<polygon fill="midnightblue" stroke="midnightblue" points="117.05,-44.5 107.05,-48 117.05,-51.5 117.05,-44.5"/>
</g>
<!-- Node3 -->
<g id="node4" class="node">
<title>Node3</title>
<g id="a_node4"><a xlink:href="classProyecto__Final_1_1UserEmpresa.html" target="_top" xlink:title="Esta clase representa al usuario de la Empresa. La función de esta clase es la de representar a un us...">
<polygon fill="white" stroke="black" points="152.5,-0.5 152.5,-19.5 296.5,-19.5 296.5,-0.5 152.5,-0.5"/>
<text text-anchor="middle" x="224.5" y="-7.5" font-family="Helvetica,sans-Serif" font-size="10.00">Proyecto_Final.UserEmpresa</text>
</a>
</g>
</g>
<!-- Node0&#45;&gt;Node3 -->
<g id="edge3" class="edge">
<title>Node0&#45;&gt;Node3</title>
<path fill="none" stroke="midnightblue" d="M107.09,-36.18C130.91,-30.82 158.71,-24.57 181.16,-19.52"/>
<polygon fill="midnightblue" stroke="midnightblue" points="106.13,-32.8 97.15,-38.41 107.67,-39.63 106.13,-32.8"/>
</g>
</g>
</svg>
