<?xml version="1.0" encoding="UTF-8" standalone="no"?>
<!DOCTYPE svg PUBLIC "-//W3C//DTD SVG 1.1//EN"
 "http://www.w3.org/Graphics/SVG/1.1/DTD/svg11.dtd">
<!-- Generated by graphviz version 2.49.3 (20211023.0002)
 -->
<!-- Title: Proyecto_Final.IUser Pages: 1 -->
<svg width="485pt" height="281pt"
 viewBox="0.00 0.00 484.50 281.00" xmlns="http://www.w3.org/2000/svg" xmlns:xlink="http://www.w3.org/1999/xlink">
<g id="graph0" class="graph" transform="scale(1 1) rotate(0) translate(4 277)">
<title>Proyecto_Final.IUser</title>
<polygon fill="white" stroke="transparent" points="-4,4 -4,-277 480.5,-277 480.5,4 -4,4"/>
<!-- Node1 -->
<g id="node1" class="node">
<title>Node1</title>
<g id="a_node1"><a xlink:title="Esta interfaz se utiliza para agrupar todas las clases usuario dentro de un solo tipo,...">
<polygon fill="#bfbfbf" stroke="black" points="179,-215.5 179,-272.5 286,-272.5 286,-215.5 179,-215.5"/>
<text text-anchor="middle" x="232.5" y="-260.5" font-family="Helvetica,sans-Serif" font-size="10.00">Proyecto_Final.IUser</text>
<polyline fill="none" stroke="black" points="179,-253.5 286,-253.5 "/>
<text text-anchor="start" x="187" y="-241.5" font-family="Helvetica,sans-Serif" font-size="10.00">+ Id</text>
<polyline fill="none" stroke="black" points="179,-234.5 286,-234.5 "/>
<text text-anchor="middle" x="232.5" y="-222.5" font-family="Helvetica,sans-Serif" font-size="10.00"> </text>
</a>
</g>
</g>
<!-- Node2 -->
<g id="node2" class="node">
<title>Node2</title>
<g id="a_node2"><a xlink:href="classProyecto__Final_1_1UserAdmin.html" target="_top" xlink:title="Esta clase representa a los administradores del programa. La única función de esta clase es proveer a...">
<polygon fill="white" stroke="black" points="0,-50 0,-129 133,-129 133,-50 0,-50"/>
<text text-anchor="middle" x="66.5" y="-117" font-family="Helvetica,sans-Serif" font-size="10.00">Proyecto_Final.UserAdmin</text>
<polyline fill="none" stroke="black" points="0,-110 133,-110 "/>
<text text-anchor="start" x="8" y="-98" font-family="Helvetica,sans-Serif" font-size="10.00">+ Id</text>
<text text-anchor="start" x="8" y="-87" font-family="Helvetica,sans-Serif" font-size="10.00">+ Nombre</text>
<polyline fill="none" stroke="black" points="0,-80 133,-80 "/>
<text text-anchor="start" x="8" y="-68" font-family="Helvetica,sans-Serif" font-size="10.00">+ UserAdmin()</text>
<text text-anchor="start" x="8" y="-57" font-family="Helvetica,sans-Serif" font-size="10.00">+ InvitarEmpresa()</text>
</a>
</g>
</g>
<!-- Node1&#45;&gt;Node2 -->
<g id="edge1" class="edge">
<title>Node1&#45;&gt;Node2</title>
<path fill="none" stroke="midnightblue" d="M180.14,-209.59C167.01,-200.31 153.31,-189.79 141.5,-179 125,-163.92 108.7,-145.28 95.54,-129"/>
<polygon fill="none" stroke="midnightblue" points="178.44,-212.67 188.66,-215.5 182.44,-206.92 178.44,-212.67"/>
</g>
<!-- Node3 -->
<g id="node3" class="node">
<title>Node3</title>
<g id="a_node3"><a xlink:href="classProyecto__Final_1_1UserEmprendedor.html" target="_top" xlink:title="Esta clase representa a los usuarios emprendedores en el sistema. La función de esta clase es la de r...">
<polygon fill="white" stroke="black" points="151,-0.5 151,-178.5 314,-178.5 314,-0.5 151,-0.5"/>
<text text-anchor="middle" x="232.5" y="-166.5" font-family="Helvetica,sans-Serif" font-size="10.00">Proyecto_Final.UserEmprendedor</text>
<polyline fill="none" stroke="black" points="151,-159.5 314,-159.5 "/>
<text text-anchor="start" x="159" y="-147.5" font-family="Helvetica,sans-Serif" font-size="10.00">+ Id</text>
<text text-anchor="start" x="159" y="-136.5" font-family="Helvetica,sans-Serif" font-size="10.00">+ Nombre</text>
<text text-anchor="start" x="159" y="-125.5" font-family="Helvetica,sans-Serif" font-size="10.00">+ Emprendedor</text>
<polyline fill="none" stroke="black" points="151,-118.5 314,-118.5 "/>
<text text-anchor="start" x="159" y="-106.5" font-family="Helvetica,sans-Serif" font-size="10.00">+ UserEmprendedor()</text>
<text text-anchor="start" x="159" y="-95.5" font-family="Helvetica,sans-Serif" font-size="10.00">+ UserEmprendedor()</text>
<text text-anchor="start" x="159" y="-84.5" font-family="Helvetica,sans-Serif" font-size="10.00">+ AgregarHabilitacion()</text>
<text text-anchor="start" x="159" y="-73.5" font-family="Helvetica,sans-Serif" font-size="10.00">+ AgregarRubro()</text>
<text text-anchor="start" x="159" y="-62.5" font-family="Helvetica,sans-Serif" font-size="10.00">+ AgregarEspecializacion()</text>
<text text-anchor="start" x="159" y="-51.5" font-family="Helvetica,sans-Serif" font-size="10.00">+ EliminarEspecializacion()</text>
<text text-anchor="start" x="159" y="-40.5" font-family="Helvetica,sans-Serif" font-size="10.00">+ VerificarConsumo()</text>
<text text-anchor="start" x="159" y="-29.5" font-family="Helvetica,sans-Serif" font-size="10.00">+ VerOfertasPalabraClave()</text>
<text text-anchor="start" x="159" y="-18.5" font-family="Helvetica,sans-Serif" font-size="10.00">+ VerOfertasUbicacion()</text>
<text text-anchor="start" x="159" y="-7.5" font-family="Helvetica,sans-Serif" font-size="10.00">+ VerOfertasTipo()</text>
</a>
</g>
</g>
<!-- Node1&#45;&gt;Node3 -->
<g id="edge2" class="edge">
<title>Node1&#45;&gt;Node3</title>
<path fill="none" stroke="midnightblue" d="M232.5,-205.37C232.5,-197.09 232.5,-187.98 232.5,-178.62"/>
<polygon fill="none" stroke="midnightblue" points="229,-205.38 232.5,-215.38 236,-205.38 229,-205.38"/>
</g>
<!-- Node4 -->
<g id="node4" class="node">
<title>Node4</title>
<g id="a_node4"><a xlink:href="classProyecto__Final_1_1UserEmpresa.html" target="_top" xlink:title="Esta clase representa al usuario de la Empresa. La función de esta clase es la de representar a un us...">
<polygon fill="white" stroke="black" points="332.5,-0.5 332.5,-178.5 476.5,-178.5 476.5,-0.5 332.5,-0.5"/>
<text text-anchor="middle" x="404.5" y="-166.5" font-family="Helvetica,sans-Serif" font-size="10.00">Proyecto_Final.UserEmpresa</text>
<polyline fill="none" stroke="black" points="332.5,-159.5 476.5,-159.5 "/>
<text text-anchor="start" x="340.5" y="-147.5" font-family="Helvetica,sans-Serif" font-size="10.00">+ Id</text>
<text text-anchor="start" x="340.5" y="-136.5" font-family="Helvetica,sans-Serif" font-size="10.00">+ Nombre</text>
<text text-anchor="start" x="340.5" y="-125.5" font-family="Helvetica,sans-Serif" font-size="10.00">+ Empresa</text>
<polyline fill="none" stroke="black" points="332.5,-118.5 476.5,-118.5 "/>
<text text-anchor="start" x="340.5" y="-106.5" font-family="Helvetica,sans-Serif" font-size="10.00">+ UserEmpresa()</text>
<text text-anchor="start" x="340.5" y="-95.5" font-family="Helvetica,sans-Serif" font-size="10.00">+ UserEmpresa()</text>
<text text-anchor="start" x="340.5" y="-84.5" font-family="Helvetica,sans-Serif" font-size="10.00">+ AgregarRubro()</text>
<text text-anchor="start" x="340.5" y="-73.5" font-family="Helvetica,sans-Serif" font-size="10.00">+ CrearEmpresa()</text>
<text text-anchor="start" x="340.5" y="-62.5" font-family="Helvetica,sans-Serif" font-size="10.00">+ CrearMsjClave()</text>
<text text-anchor="start" x="340.5" y="-51.5" font-family="Helvetica,sans-Serif" font-size="10.00">+ CrearOferta()</text>
<text text-anchor="start" x="340.5" y="-40.5" font-family="Helvetica,sans-Serif" font-size="10.00">+ CrearProducto()</text>
<text text-anchor="start" x="340.5" y="-29.5" font-family="Helvetica,sans-Serif" font-size="10.00">+ ConcretarOferta()</text>
<text text-anchor="start" x="340.5" y="-18.5" font-family="Helvetica,sans-Serif" font-size="10.00">+ VerificarVentas()</text>
<text text-anchor="start" x="340.5" y="-7.5" font-family="Helvetica,sans-Serif" font-size="10.00">+ CheckBuyers()</text>
</a>
</g>
</g>
<!-- Node1&#45;&gt;Node4 -->
<g id="edge3" class="edge">
<title>Node1&#45;&gt;Node4</title>
<path fill="none" stroke="midnightblue" d="M284.58,-209.27C297.71,-200 311.48,-189.57 323.5,-179 326.47,-176.39 329.45,-173.67 332.41,-170.89"/>
<polygon fill="none" stroke="midnightblue" points="282.28,-206.61 276.07,-215.19 286.28,-212.36 282.28,-206.61"/>
</g>
</g>
</svg>
