<?xml version="1.0" encoding="UTF-8" standalone="no"?>
<!DOCTYPE svg PUBLIC "-//W3C//DTD SVG 1.1//EN"
 "http://www.w3.org/Graphics/SVG/1.1/DTD/svg11.dtd">
<!-- Generated by graphviz version 2.49.3 (20211023.0002)
 -->
<!-- Title: Proyecto_Final.IHandler Pages: 1 -->
<svg width="3131pt" height="364pt"
 viewBox="0.00 0.00 3131.00 364.00" xmlns="http://www.w3.org/2000/svg" xmlns:xlink="http://www.w3.org/1999/xlink">
<g id="graph0" class="graph" transform="scale(1 1) rotate(0) translate(4 360)">
<title>Proyecto_Final.IHandler</title>
<polygon fill="white" stroke="transparent" points="-4,4 -4,-360 3127,-360 3127,4 -4,4"/>
<!-- Node1 -->
<g id="node1" class="node">
<title>Node1</title>
<g id="a_node1"><a xlink:title="Interfaz para implementar el patrón Chain of Responsibility. En ese patrón se pasa un mensaje a travé...">
<polygon fill="#bfbfbf" stroke="black" points="1522.5,-287.5 1522.5,-355.5 1642.5,-355.5 1642.5,-287.5 1522.5,-287.5"/>
<text text-anchor="middle" x="1582.5" y="-343.5" font-family="Helvetica,sans-Serif" font-size="10.00">Proyecto_Final.IHandler</text>
<polyline fill="none" stroke="black" points="1522.5,-336.5 1642.5,-336.5 "/>
<text text-anchor="start" x="1530.5" y="-324.5" font-family="Helvetica,sans-Serif" font-size="10.00">+ Next</text>
<polyline fill="none" stroke="black" points="1522.5,-317.5 1642.5,-317.5 "/>
<text text-anchor="start" x="1530.5" y="-305.5" font-family="Helvetica,sans-Serif" font-size="10.00">+ Handle()</text>
<text text-anchor="start" x="1530.5" y="-294.5" font-family="Helvetica,sans-Serif" font-size="10.00">+ Cancel()</text>
</a>
</g>
</g>
<!-- Node2 -->
<g id="node2" class="node">
<title>Node2</title>
<g id="a_node2"><a xlink:href="classProyecto__Final_1_1BaseHandler.html" target="_top" xlink:title="Clase base para implementar el patrón Chain of Responsibility. En ese patrón se pasa un mensaje a tra...">
<polygon fill="white" stroke="black" points="1512.5,-116.5 1512.5,-250.5 1652.5,-250.5 1652.5,-116.5 1512.5,-116.5"/>
<text text-anchor="middle" x="1582.5" y="-238.5" font-family="Helvetica,sans-Serif" font-size="10.00">Proyecto_Final.BaseHandler</text>
<polyline fill="none" stroke="black" points="1512.5,-231.5 1652.5,-231.5 "/>
<text text-anchor="start" x="1520.5" y="-219.5" font-family="Helvetica,sans-Serif" font-size="10.00">+ Next</text>
<text text-anchor="start" x="1520.5" y="-208.5" font-family="Helvetica,sans-Serif" font-size="10.00">+ Keywords</text>
<polyline fill="none" stroke="black" points="1512.5,-201.5 1652.5,-201.5 "/>
<text text-anchor="start" x="1520.5" y="-189.5" font-family="Helvetica,sans-Serif" font-size="10.00">+ BaseHandler()</text>
<text text-anchor="start" x="1520.5" y="-178.5" font-family="Helvetica,sans-Serif" font-size="10.00">+ BaseHandler()</text>
<text text-anchor="start" x="1520.5" y="-167.5" font-family="Helvetica,sans-Serif" font-size="10.00">+ Handle()</text>
<text text-anchor="start" x="1520.5" y="-156.5" font-family="Helvetica,sans-Serif" font-size="10.00">+ Cancel()</text>
<text text-anchor="start" x="1520.5" y="-145.5" font-family="Helvetica,sans-Serif" font-size="10.00"># InternalHandle()</text>
<text text-anchor="start" x="1520.5" y="-134.5" font-family="Helvetica,sans-Serif" font-size="10.00"># InternalCancel()</text>
<text text-anchor="start" x="1520.5" y="-123.5" font-family="Helvetica,sans-Serif" font-size="10.00"># CanHandle()</text>
</a>
</g>
</g>
<!-- Node1&#45;&gt;Node2 -->
<g id="edge1" class="edge">
<title>Node1&#45;&gt;Node2</title>
<path fill="none" stroke="midnightblue" d="M1582.5,-276.96C1582.5,-268.57 1582.5,-259.6 1582.5,-250.68"/>
<polygon fill="none" stroke="midnightblue" points="1579,-277.23 1582.5,-287.23 1586,-277.23 1579,-277.23"/>
</g>
<!-- Node3 -->
<g id="node3" class="node">
<title>Node3</title>
<g id="a_node3"><a xlink:href="classProyecto__Final_1_1AddAuthorizationHandler.html" target="_top" xlink:title="Un &quot;handler&quot; del patrón Chain of Responsibility que implementa el comando &quot;authorization&quot;.">
<polygon fill="white" stroke="black" points="0,-0.5 0,-79.5 159,-79.5 159,-0.5 0,-0.5"/>
<text text-anchor="start" x="8" y="-67.5" font-family="Helvetica,sans-Serif" font-size="10.00">Proyecto_Final.AddAuthorization</text>
<text text-anchor="middle" x="79.5" y="-56.5" font-family="Helvetica,sans-Serif" font-size="10.00">Handler</text>
<polyline fill="none" stroke="black" points="0,-49.5 159,-49.5 "/>
<text text-anchor="start" x="8" y="-37.5" font-family="Helvetica,sans-Serif" font-size="10.00">+ AllowedStatus</text>
<polyline fill="none" stroke="black" points="0,-30.5 159,-30.5 "/>
<text text-anchor="start" x="8" y="-18.5" font-family="Helvetica,sans-Serif" font-size="10.00">+ AddAuthorizationHandler()</text>
<text text-anchor="start" x="8" y="-7.5" font-family="Helvetica,sans-Serif" font-size="10.00"># InternalHandle()</text>
</a>
</g>
</g>
<!-- Node2&#45;&gt;Node3 -->
<g id="edge2" class="edge">
<title>Node2&#45;&gt;Node3</title>
<path fill="none" stroke="midnightblue" d="M1502.34,-180.31C1242.19,-172.65 423.5,-143.94 167.5,-80 164.74,-79.31 161.97,-78.54 159.18,-77.71"/>
<polygon fill="none" stroke="midnightblue" points="1502.37,-183.82 1512.47,-180.61 1502.57,-176.82 1502.37,-183.82"/>
</g>
<!-- Node4 -->
<g id="node4" class="node">
<title>Node4</title>
<g id="a_node4"><a xlink:href="classProyecto__Final_1_1AddKeyWordHandler.html" target="_top" xlink:title="Un &quot;handler&quot; del patrón Chain of Responsibility que implementa el comando &quot;/agregar_palabra&quot;.">
<polygon fill="white" stroke="black" points="177,-0.5 177,-79.5 320,-79.5 320,-0.5 177,-0.5"/>
<text text-anchor="start" x="185" y="-67.5" font-family="Helvetica,sans-Serif" font-size="10.00">Proyecto_Final.AddKeyWord</text>
<text text-anchor="middle" x="248.5" y="-56.5" font-family="Helvetica,sans-Serif" font-size="10.00">Handler</text>
<polyline fill="none" stroke="black" points="177,-49.5 320,-49.5 "/>
<text text-anchor="start" x="185" y="-37.5" font-family="Helvetica,sans-Serif" font-size="10.00">+ AllowedStatus</text>
<polyline fill="none" stroke="black" points="177,-30.5 320,-30.5 "/>
<text text-anchor="start" x="185" y="-18.5" font-family="Helvetica,sans-Serif" font-size="10.00">+ AddKeyWordHandler()</text>
<text text-anchor="start" x="185" y="-7.5" font-family="Helvetica,sans-Serif" font-size="10.00"># InternalHandle()</text>
</a>
</g>
</g>
<!-- Node2&#45;&gt;Node4 -->
<g id="edge3" class="edge">
<title>Node2&#45;&gt;Node4</title>
<path fill="none" stroke="midnightblue" d="M1502.07,-179.82C1261.63,-171.18 551.23,-141.06 328.5,-80 325.82,-79.26 323.12,-78.44 320.41,-77.54"/>
<polygon fill="none" stroke="midnightblue" points="1502.02,-183.32 1512.13,-180.18 1502.26,-176.32 1502.02,-183.32"/>
</g>
<!-- Node5 -->
<g id="node5" class="node">
<title>Node5</title>
<g id="a_node5"><a xlink:href="classProyecto__Final_1_1CommandsHandler.html" target="_top" xlink:title="Un &quot;handler&quot; del patrón Chain of Responsibility que implementa el comando &quot;/comandos&quot;.">
<polygon fill="white" stroke="black" points="338,-6 338,-74 505,-74 505,-6 338,-6"/>
<text text-anchor="middle" x="421.5" y="-62" font-family="Helvetica,sans-Serif" font-size="10.00">Proyecto_Final.CommandsHandler</text>
<polyline fill="none" stroke="black" points="338,-55 505,-55 "/>
<text text-anchor="middle" x="421.5" y="-43" font-family="Helvetica,sans-Serif" font-size="10.00"> </text>
<polyline fill="none" stroke="black" points="338,-36 505,-36 "/>
<text text-anchor="start" x="346" y="-24" font-family="Helvetica,sans-Serif" font-size="10.00">+ CommandsHandler()</text>
<text text-anchor="start" x="346" y="-13" font-family="Helvetica,sans-Serif" font-size="10.00"># InternalHandle()</text>
</a>
</g>
</g>
<!-- Node2&#45;&gt;Node5 -->
<g id="edge4" class="edge">
<title>Node2&#45;&gt;Node5</title>
<path fill="none" stroke="midnightblue" d="M1502.3,-183.08C1322.42,-182.61 874.27,-171.46 513.5,-80 507.03,-78.36 500.42,-76.33 493.86,-74.07"/>
<polygon fill="none" stroke="midnightblue" points="1502.46,-186.58 1512.47,-183.1 1502.47,-179.58 1502.46,-186.58"/>
</g>
<!-- Node6 -->
<g id="node6" class="node">
<title>Node6</title>
<g id="a_node6"><a xlink:href="classProyecto__Final_1_1EndOfferHandler.html" target="_top" xlink:title="Un &quot;handler&quot; del patrón Chain of Responsibility que implementa el comando &quot;Publicar&quot;.">
<polygon fill="white" stroke="black" points="523,-6 523,-74 678,-74 678,-6 523,-6"/>
<text text-anchor="middle" x="600.5" y="-62" font-family="Helvetica,sans-Serif" font-size="10.00">Proyecto_Final.EndOfferHandler</text>
<polyline fill="none" stroke="black" points="523,-55 678,-55 "/>
<text text-anchor="start" x="531" y="-43" font-family="Helvetica,sans-Serif" font-size="10.00">+ AllowedStatus</text>
<polyline fill="none" stroke="black" points="523,-36 678,-36 "/>
<text text-anchor="start" x="531" y="-24" font-family="Helvetica,sans-Serif" font-size="10.00">+ EndOfferHandler()</text>
<text text-anchor="start" x="531" y="-13" font-family="Helvetica,sans-Serif" font-size="10.00"># InternalHandle()</text>
</a>
</g>
</g>
<!-- Node2&#45;&gt;Node6 -->
<g id="edge5" class="edge">
<title>Node2&#45;&gt;Node6</title>
<path fill="none" stroke="midnightblue" d="M1502.08,-181.63C1343.28,-178.1 979.43,-161.02 686.5,-80 680.5,-78.34 674.38,-76.31 668.32,-74.06"/>
<polygon fill="none" stroke="midnightblue" points="1502.17,-185.13 1512.24,-181.84 1502.32,-178.13 1502.17,-185.13"/>
</g>
<!-- Node7 -->
<g id="node7" class="node">
<title>Node7</title>
<g id="a_node7"><a xlink:href="classProyecto__Final_1_1ExitHandler.html" target="_top" xlink:title="Un &quot;handler&quot; del patrón Chain of Responsibility que implementa el comando &quot;/salir&quot;.">
<polygon fill="white" stroke="black" points="696,-6 696,-74 831,-74 831,-6 696,-6"/>
<text text-anchor="middle" x="763.5" y="-62" font-family="Helvetica,sans-Serif" font-size="10.00">Proyecto_Final.ExitHandler</text>
<polyline fill="none" stroke="black" points="696,-55 831,-55 "/>
<text text-anchor="middle" x="763.5" y="-43" font-family="Helvetica,sans-Serif" font-size="10.00"> </text>
<polyline fill="none" stroke="black" points="696,-36 831,-36 "/>
<text text-anchor="start" x="704" y="-24" font-family="Helvetica,sans-Serif" font-size="10.00">+ ExitHandler()</text>
<text text-anchor="start" x="704" y="-13" font-family="Helvetica,sans-Serif" font-size="10.00"># InternalHandle()</text>
</a>
</g>
</g>
<!-- Node2&#45;&gt;Node7 -->
<g id="edge6" class="edge">
<title>Node2&#45;&gt;Node7</title>
<path fill="none" stroke="midnightblue" d="M1502.2,-180.07C1364.01,-173.99 1073.59,-152.88 840.5,-80 835.21,-78.35 829.84,-76.35 824.52,-74.16"/>
<polygon fill="none" stroke="midnightblue" points="1502.15,-183.57 1512.29,-180.5 1502.45,-176.58 1502.15,-183.57"/>
</g>
<!-- Node8 -->
<g id="node8" class="node">
<title>Node8</title>
<g id="a_node8"><a xlink:href="classProyecto__Final_1_1GoodByeHandler.html" target="_top" xlink:title="Un &quot;handler&quot; del patrón Chain of Responsibility que implementa los comandos &quot;/chau&quot; y &quot;/adiós&quot;.">
<polygon fill="white" stroke="black" points="849.5,-6 849.5,-74 1007.5,-74 1007.5,-6 849.5,-6"/>
<text text-anchor="middle" x="928.5" y="-62" font-family="Helvetica,sans-Serif" font-size="10.00">Proyecto_Final.GoodByeHandler</text>
<polyline fill="none" stroke="black" points="849.5,-55 1007.5,-55 "/>
<text text-anchor="middle" x="928.5" y="-43" font-family="Helvetica,sans-Serif" font-size="10.00"> </text>
<polyline fill="none" stroke="black" points="849.5,-36 1007.5,-36 "/>
<text text-anchor="start" x="857.5" y="-24" font-family="Helvetica,sans-Serif" font-size="10.00">+ GoodByeHandler()</text>
<text text-anchor="start" x="857.5" y="-13" font-family="Helvetica,sans-Serif" font-size="10.00"># InternalHandle()</text>
</a>
</g>
</g>
<!-- Node2&#45;&gt;Node8 -->
<g id="edge7" class="edge">
<title>Node2&#45;&gt;Node8</title>
<path fill="none" stroke="midnightblue" d="M1502.29,-174.07C1391.29,-161.04 1185.43,-131.92 1016.5,-80 1010.91,-78.28 1005.2,-76.3 999.52,-74.17"/>
<polygon fill="none" stroke="midnightblue" points="1502.07,-177.57 1512.4,-175.24 1502.87,-170.61 1502.07,-177.57"/>
</g>
<!-- Node9 -->
<g id="node9" class="node">
<title>Node9</title>
<g id="a_node9"><a xlink:href="classProyecto__Final_1_1HelloHandler.html" target="_top" xlink:title="Un &quot;handler&quot; del patrón Chain of Responsibility que implementa el comando &quot;/hola&quot;.">
<polygon fill="white" stroke="black" points="1025.5,-6 1025.5,-74 1165.5,-74 1165.5,-6 1025.5,-6"/>
<text text-anchor="middle" x="1095.5" y="-62" font-family="Helvetica,sans-Serif" font-size="10.00">Proyecto_Final.HelloHandler</text>
<polyline fill="none" stroke="black" points="1025.5,-55 1165.5,-55 "/>
<text text-anchor="middle" x="1095.5" y="-43" font-family="Helvetica,sans-Serif" font-size="10.00"> </text>
<polyline fill="none" stroke="black" points="1025.5,-36 1165.5,-36 "/>
<text text-anchor="start" x="1033.5" y="-24" font-family="Helvetica,sans-Serif" font-size="10.00">+ HelloHandler()</text>
<text text-anchor="start" x="1033.5" y="-13" font-family="Helvetica,sans-Serif" font-size="10.00"># InternalHandle()</text>
</a>
</g>
</g>
<!-- Node2&#45;&gt;Node9 -->
<g id="edge8" class="edge">
<title>Node2&#45;&gt;Node9</title>
<path fill="none" stroke="midnightblue" d="M1502.29,-167.61C1418.9,-150.91 1285.33,-120.75 1174.5,-80 1169.62,-78.21 1164.64,-76.2 1159.68,-74.07"/>
<polygon fill="none" stroke="midnightblue" points="1501.71,-171.06 1512.2,-169.57 1503.08,-164.19 1501.71,-171.06"/>
</g>
<!-- Node10 -->
<g id="node10" class="node">
<title>Node10</title>
<g id="a_node10"><a xlink:href="classProyecto__Final_1_1InviteHandler.html" target="_top" xlink:title="Un &quot;handler&quot; del patrón Chain of Responsibility que implementa el comando &quot;/invitar&quot;.">
<polygon fill="white" stroke="black" points="1183.5,-6 1183.5,-74 1323.5,-74 1323.5,-6 1183.5,-6"/>
<text text-anchor="middle" x="1253.5" y="-62" font-family="Helvetica,sans-Serif" font-size="10.00">Proyecto_Final.InviteHandler</text>
<polyline fill="none" stroke="black" points="1183.5,-55 1323.5,-55 "/>
<text text-anchor="start" x="1191.5" y="-43" font-family="Helvetica,sans-Serif" font-size="10.00">+ AllowedStatus</text>
<polyline fill="none" stroke="black" points="1183.5,-36 1323.5,-36 "/>
<text text-anchor="start" x="1191.5" y="-24" font-family="Helvetica,sans-Serif" font-size="10.00">+ InviteHandler()</text>
<text text-anchor="start" x="1191.5" y="-13" font-family="Helvetica,sans-Serif" font-size="10.00"># InternalHandle()</text>
</a>
</g>
</g>
<!-- Node2&#45;&gt;Node10 -->
<g id="edge9" class="edge">
<title>Node2&#45;&gt;Node10</title>
<path fill="none" stroke="midnightblue" d="M1503.08,-151.57C1453.64,-131.92 1388.94,-105.46 1332.5,-80 1328.32,-78.11 1324.03,-76.13 1319.72,-74.11"/>
<polygon fill="none" stroke="midnightblue" points="1501.85,-154.85 1512.44,-155.29 1504.43,-148.35 1501.85,-154.85"/>
</g>
<!-- Node11 -->
<g id="node11" class="node">
<title>Node11</title>
<g id="a_node11"><a xlink:href="classProyecto__Final_1_1MaterialsConsumedHandler.html" target="_top" xlink:title="Un &quot;handler&quot; del patrón Chain of Responsibility que implementa el comando &quot;/materiales_consumidos&quot;.">
<polygon fill="white" stroke="black" points="1342,-0.5 1342,-79.5 1493,-79.5 1493,-0.5 1342,-0.5"/>
<text text-anchor="start" x="1350" y="-67.5" font-family="Helvetica,sans-Serif" font-size="10.00">Proyecto_Final.Materials</text>
<text text-anchor="middle" x="1417.5" y="-56.5" font-family="Helvetica,sans-Serif" font-size="10.00">ConsumedHandler</text>
<polyline fill="none" stroke="black" points="1342,-49.5 1493,-49.5 "/>
<text text-anchor="start" x="1350" y="-37.5" font-family="Helvetica,sans-Serif" font-size="10.00">+ AllowedStatus</text>
<polyline fill="none" stroke="black" points="1342,-30.5 1493,-30.5 "/>
<text text-anchor="start" x="1350" y="-18.5" font-family="Helvetica,sans-Serif" font-size="10.00">+ MaterialsConsumedHandler()</text>
<text text-anchor="start" x="1350" y="-7.5" font-family="Helvetica,sans-Serif" font-size="10.00"># InternalHandle()</text>
</a>
</g>
</g>
<!-- Node2&#45;&gt;Node11 -->
<g id="edge10" class="edge">
<title>Node2&#45;&gt;Node11</title>
<path fill="none" stroke="midnightblue" d="M1504.12,-115.29C1489.81,-103.01 1475.34,-90.6 1462.42,-79.53"/>
<polygon fill="none" stroke="midnightblue" points="1502.18,-118.23 1512.05,-122.08 1506.73,-112.91 1502.18,-118.23"/>
</g>
<!-- Node12 -->
<g id="node12" class="node">
<title>Node12</title>
<g id="a_node12"><a xlink:href="classProyecto__Final_1_1PeriodOfTimeHandler.html" target="_top" xlink:title="Un &quot;handler&quot; del patrón Chain of Responsibility que implementa el comando &quot;/ventas&quot;.">
<polygon fill="white" stroke="black" points="1511,-0.5 1511,-79.5 1654,-79.5 1654,-0.5 1511,-0.5"/>
<text text-anchor="start" x="1519" y="-67.5" font-family="Helvetica,sans-Serif" font-size="10.00">Proyecto_Final.PeriodOfTime</text>
<text text-anchor="middle" x="1582.5" y="-56.5" font-family="Helvetica,sans-Serif" font-size="10.00">Handler</text>
<polyline fill="none" stroke="black" points="1511,-49.5 1654,-49.5 "/>
<text text-anchor="start" x="1519" y="-37.5" font-family="Helvetica,sans-Serif" font-size="10.00">+ AllowedStatus</text>
<polyline fill="none" stroke="black" points="1511,-30.5 1654,-30.5 "/>
<text text-anchor="start" x="1519" y="-18.5" font-family="Helvetica,sans-Serif" font-size="10.00">+ PeriodOfTimeHandler()</text>
<text text-anchor="start" x="1519" y="-7.5" font-family="Helvetica,sans-Serif" font-size="10.00"># InternalHandle()</text>
</a>
</g>
</g>
<!-- Node2&#45;&gt;Node12 -->
<g id="edge11" class="edge">
<title>Node2&#45;&gt;Node12</title>
<path fill="none" stroke="midnightblue" d="M1582.5,-106.03C1582.5,-96.95 1582.5,-87.99 1582.5,-79.76"/>
<polygon fill="none" stroke="midnightblue" points="1579,-106.31 1582.5,-116.31 1586,-106.31 1579,-106.31"/>
</g>
<!-- Node13 -->
<g id="node13" class="node">
<title>Node13</title>
<g id="a_node13"><a xlink:href="classProyecto__Final_1_1PhotoHandler.html" target="_top" xlink:title="Un &quot;handler&quot; del patrón Chain of Responsibility que implementa el comando &quot;foto&quot;.">
<polygon fill="white" stroke="black" points="1672,-6 1672,-74 1815,-74 1815,-6 1672,-6"/>
<text text-anchor="middle" x="1743.5" y="-62" font-family="Helvetica,sans-Serif" font-size="10.00">Proyecto_Final.PhotoHandler</text>
<polyline fill="none" stroke="black" points="1672,-55 1815,-55 "/>
<text text-anchor="middle" x="1743.5" y="-43" font-family="Helvetica,sans-Serif" font-size="10.00"> </text>
<polyline fill="none" stroke="black" points="1672,-36 1815,-36 "/>
<text text-anchor="start" x="1680" y="-24" font-family="Helvetica,sans-Serif" font-size="10.00">+ PhotoHandler()</text>
<text text-anchor="start" x="1680" y="-13" font-family="Helvetica,sans-Serif" font-size="10.00"># InternalHandle()</text>
</a>
</g>
</g>
<!-- Node2&#45;&gt;Node13 -->
<g id="edge12" class="edge">
<title>Node2&#45;&gt;Node13</title>
<path fill="none" stroke="midnightblue" d="M1660.4,-114.03C1676.24,-100.11 1692.22,-86.07 1705.87,-74.07"/>
<polygon fill="none" stroke="midnightblue" points="1657.85,-111.62 1652.65,-120.85 1662.47,-116.88 1657.85,-111.62"/>
</g>
<!-- Node14 -->
<g id="node14" class="node">
<title>Node14</title>
<g id="a_node14"><a xlink:href="classProyecto__Final_1_1PublishHandler.html" target="_top" xlink:title="Un &quot;handler&quot; del patrón Chain of Responsibility que implementa el comando &quot;/publicar&quot;.">
<polygon fill="white" stroke="black" points="1833.5,-6 1833.5,-74 1983.5,-74 1983.5,-6 1833.5,-6"/>
<text text-anchor="middle" x="1908.5" y="-62" font-family="Helvetica,sans-Serif" font-size="10.00">Proyecto_Final.PublishHandler</text>
<polyline fill="none" stroke="black" points="1833.5,-55 1983.5,-55 "/>
<text text-anchor="start" x="1841.5" y="-43" font-family="Helvetica,sans-Serif" font-size="10.00">+ AllowedStatus</text>
<polyline fill="none" stroke="black" points="1833.5,-36 1983.5,-36 "/>
<text text-anchor="start" x="1841.5" y="-24" font-family="Helvetica,sans-Serif" font-size="10.00">+ PublishHandler()</text>
<text text-anchor="start" x="1841.5" y="-13" font-family="Helvetica,sans-Serif" font-size="10.00"># InternalHandle()</text>
</a>
</g>
</g>
<!-- Node2&#45;&gt;Node14 -->
<g id="edge13" class="edge">
<title>Node2&#45;&gt;Node14</title>
<path fill="none" stroke="midnightblue" d="M1661.95,-149.65C1709.32,-129.87 1770.54,-103.94 1824.5,-80 1828.76,-78.11 1833.14,-76.15 1837.54,-74.15"/>
<polygon fill="none" stroke="midnightblue" points="1660.55,-146.44 1652.67,-153.52 1663.24,-152.9 1660.55,-146.44"/>
</g>
<!-- Node15 -->
<g id="node15" class="node">
<title>Node15</title>
<g id="a_node15"><a xlink:href="classProyecto__Final_1_1RecurrenciaHandler.html" target="_top" xlink:title="Un &quot;handler&quot; del patrón Chain of Responsibility que implementa el comando &quot;/buscar_recurrencia&quot;.">
<polygon fill="white" stroke="black" points="2002,-0.5 2002,-79.5 2139,-79.5 2139,-0.5 2002,-0.5"/>
<text text-anchor="start" x="2010" y="-67.5" font-family="Helvetica,sans-Serif" font-size="10.00">Proyecto_Final.Recurrencia</text>
<text text-anchor="middle" x="2070.5" y="-56.5" font-family="Helvetica,sans-Serif" font-size="10.00">Handler</text>
<polyline fill="none" stroke="black" points="2002,-49.5 2139,-49.5 "/>
<text text-anchor="start" x="2010" y="-37.5" font-family="Helvetica,sans-Serif" font-size="10.00">+ AllowedStatus</text>
<polyline fill="none" stroke="black" points="2002,-30.5 2139,-30.5 "/>
<text text-anchor="start" x="2010" y="-18.5" font-family="Helvetica,sans-Serif" font-size="10.00">+ RecurrenciaHandler()</text>
<text text-anchor="start" x="2010" y="-7.5" font-family="Helvetica,sans-Serif" font-size="10.00"># InternalHandle()</text>
</a>
</g>
</g>
<!-- Node2&#45;&gt;Node15 -->
<g id="edge14" class="edge">
<title>Node2&#45;&gt;Node15</title>
<path fill="none" stroke="midnightblue" d="M1662.78,-167.84C1746.58,-151.3 1881.08,-121.22 1992.5,-80 1995.62,-78.84 1998.79,-77.6 2001.96,-76.29"/>
<polygon fill="none" stroke="midnightblue" points="1661.96,-164.44 1652.81,-169.8 1663.3,-171.31 1661.96,-164.44"/>
</g>
<!-- Node16 -->
<g id="node16" class="node">
<title>Node16</title>
<g id="a_node16"><a xlink:href="classProyecto__Final_1_1RegisterHandler.html" target="_top" xlink:title="Un &quot;handler&quot; del patrón Chain of Responsibility que implementa el comando &quot;/registro&quot;.">
<polygon fill="white" stroke="black" points="2157.5,-6 2157.5,-74 2311.5,-74 2311.5,-6 2157.5,-6"/>
<text text-anchor="middle" x="2234.5" y="-62" font-family="Helvetica,sans-Serif" font-size="10.00">Proyecto_Final.RegisterHandler</text>
<polyline fill="none" stroke="black" points="2157.5,-55 2311.5,-55 "/>
<text text-anchor="start" x="2165.5" y="-43" font-family="Helvetica,sans-Serif" font-size="10.00">+ AllowedStatus</text>
<polyline fill="none" stroke="black" points="2157.5,-36 2311.5,-36 "/>
<text text-anchor="start" x="2165.5" y="-24" font-family="Helvetica,sans-Serif" font-size="10.00">+ RegisterHandler()</text>
<text text-anchor="start" x="2165.5" y="-13" font-family="Helvetica,sans-Serif" font-size="10.00"># InternalHandle()</text>
</a>
</g>
</g>
<!-- Node2&#45;&gt;Node16 -->
<g id="edge15" class="edge">
<title>Node2&#45;&gt;Node16</title>
<path fill="none" stroke="midnightblue" d="M1662.78,-174.28C1773.85,-161.49 1979.79,-132.64 2148.5,-80 2154.13,-78.24 2159.88,-76.21 2165.61,-74.01"/>
<polygon fill="none" stroke="midnightblue" points="1662.2,-170.82 1652.65,-175.43 1662.99,-177.78 1662.2,-170.82"/>
</g>
<!-- Node17 -->
<g id="node17" class="node">
<title>Node17</title>
<g id="a_node17"><a xlink:href="classProyecto__Final_1_1SearchCategoryHandler.html" target="_top" xlink:title="Un &quot;handler&quot; del patrón Chain of Responsibility que implementa el comando &quot;/buscar_categoria&quot;.">
<polygon fill="white" stroke="black" points="2330,-0.5 2330,-79.5 2485,-79.5 2485,-0.5 2330,-0.5"/>
<text text-anchor="start" x="2338" y="-67.5" font-family="Helvetica,sans-Serif" font-size="10.00">Proyecto_Final.SearchCategory</text>
<text text-anchor="middle" x="2407.5" y="-56.5" font-family="Helvetica,sans-Serif" font-size="10.00">Handler</text>
<polyline fill="none" stroke="black" points="2330,-49.5 2485,-49.5 "/>
<text text-anchor="start" x="2338" y="-37.5" font-family="Helvetica,sans-Serif" font-size="10.00">+ AllowedStatus</text>
<polyline fill="none" stroke="black" points="2330,-30.5 2485,-30.5 "/>
<text text-anchor="start" x="2338" y="-18.5" font-family="Helvetica,sans-Serif" font-size="10.00">+ SearchCategoryHandler()</text>
<text text-anchor="start" x="2338" y="-7.5" font-family="Helvetica,sans-Serif" font-size="10.00"># InternalHandle()</text>
</a>
</g>
</g>
<!-- Node2&#45;&gt;Node17 -->
<g id="edge16" class="edge">
<title>Node2&#45;&gt;Node17</title>
<path fill="none" stroke="midnightblue" d="M1662.55,-178.8C1799.68,-170.83 2087.32,-146.98 2320.5,-80 2323.52,-79.13 2326.58,-78.18 2329.64,-77.15"/>
<polygon fill="none" stroke="midnightblue" points="1662.32,-175.31 1652.54,-179.37 1662.72,-182.3 1662.32,-175.31"/>
</g>
<!-- Node18 -->
<g id="node18" class="node">
<title>Node18</title>
<g id="a_node18"><a xlink:href="classProyecto__Final_1_1SearchKeyWordsHandler.html" target="_top" xlink:title="Un &quot;handler&quot; del patrón Chain of Responsibility que implementa el comando &quot;/buscar_palabra&quot;.">
<polygon fill="white" stroke="black" points="2503,-0.5 2503,-79.5 2644,-79.5 2644,-0.5 2503,-0.5"/>
<text text-anchor="start" x="2511" y="-67.5" font-family="Helvetica,sans-Serif" font-size="10.00">Proyecto_Final.SearchKey</text>
<text text-anchor="middle" x="2573.5" y="-56.5" font-family="Helvetica,sans-Serif" font-size="10.00">WordsHandler</text>
<polyline fill="none" stroke="black" points="2503,-49.5 2644,-49.5 "/>
<text text-anchor="start" x="2511" y="-37.5" font-family="Helvetica,sans-Serif" font-size="10.00">+ AllowedStatus</text>
<polyline fill="none" stroke="black" points="2503,-30.5 2644,-30.5 "/>
<text text-anchor="start" x="2511" y="-18.5" font-family="Helvetica,sans-Serif" font-size="10.00">+ SearchKeyWordsHandler()</text>
<text text-anchor="start" x="2511" y="-7.5" font-family="Helvetica,sans-Serif" font-size="10.00"># InternalHandle()</text>
</a>
</g>
</g>
<!-- Node2&#45;&gt;Node18 -->
<g id="edge17" class="edge">
<title>Node2&#45;&gt;Node18</title>
<path fill="none" stroke="midnightblue" d="M1663.07,-182.7C1824.32,-181.1 2196.78,-167.3 2494.5,-80 2497.29,-79.18 2500.1,-78.27 2502.91,-77.28"/>
<polygon fill="none" stroke="midnightblue" points="1662.72,-179.2 1652.75,-182.79 1662.78,-186.2 1662.72,-179.2"/>
</g>
<!-- Node19 -->
<g id="node19" class="node">
<title>Node19</title>
<g id="a_node19"><a xlink:href="classProyecto__Final_1_1SearchZoneHandler.html" target="_top" xlink:title="Un &quot;handler&quot; del patrón Chain of Responsibility que implementa el comando &quot;/buscar_zona&quot;.">
<polygon fill="white" stroke="black" points="2662,-0.5 2662,-79.5 2799,-79.5 2799,-0.5 2662,-0.5"/>
<text text-anchor="start" x="2670" y="-67.5" font-family="Helvetica,sans-Serif" font-size="10.00">Proyecto_Final.SearchZone</text>
<text text-anchor="middle" x="2730.5" y="-56.5" font-family="Helvetica,sans-Serif" font-size="10.00">Handler</text>
<polyline fill="none" stroke="black" points="2662,-49.5 2799,-49.5 "/>
<text text-anchor="start" x="2670" y="-37.5" font-family="Helvetica,sans-Serif" font-size="10.00">+ AllowedStatus</text>
<polyline fill="none" stroke="black" points="2662,-30.5 2799,-30.5 "/>
<text text-anchor="start" x="2670" y="-18.5" font-family="Helvetica,sans-Serif" font-size="10.00">+ SearchZoneHandler()</text>
<text text-anchor="start" x="2670" y="-7.5" font-family="Helvetica,sans-Serif" font-size="10.00"># InternalHandle()</text>
</a>
</g>
</g>
<!-- Node2&#45;&gt;Node19 -->
<g id="edge18" class="edge">
<title>Node2&#45;&gt;Node19</title>
<path fill="none" stroke="midnightblue" d="M1662.9,-178.68C1878.77,-167.82 2467.28,-133.98 2653.5,-80 2656.23,-79.21 2658.99,-78.32 2661.74,-77.35"/>
<polygon fill="none" stroke="midnightblue" points="1662.41,-175.2 1652.6,-179.2 1662.76,-182.19 1662.41,-175.2"/>
</g>
<!-- Node20 -->
<g id="node20" class="node">
<title>Node20</title>
<g id="a_node20"><a xlink:href="classProyecto__Final_1_1ShowInterestInOfferHandler.html" target="_top" xlink:title="Un &quot;handler&quot; del patrón Chain of Responsibility que implementa el comando &quot;Publicar&quot;.">
<polygon fill="white" stroke="black" points="2817,-0.5 2817,-79.5 2966,-79.5 2966,-0.5 2817,-0.5"/>
<text text-anchor="start" x="2825" y="-67.5" font-family="Helvetica,sans-Serif" font-size="10.00">Proyecto_Final.ShowInterest</text>
<text text-anchor="middle" x="2891.5" y="-56.5" font-family="Helvetica,sans-Serif" font-size="10.00">InOfferHandler</text>
<polyline fill="none" stroke="black" points="2817,-49.5 2966,-49.5 "/>
<text text-anchor="start" x="2825" y="-37.5" font-family="Helvetica,sans-Serif" font-size="10.00">+ AllowedStatus</text>
<polyline fill="none" stroke="black" points="2817,-30.5 2966,-30.5 "/>
<text text-anchor="start" x="2825" y="-18.5" font-family="Helvetica,sans-Serif" font-size="10.00">+ ShowInterestInOfferHandler()</text>
<text text-anchor="start" x="2825" y="-7.5" font-family="Helvetica,sans-Serif" font-size="10.00"># InternalHandle()</text>
</a>
</g>
</g>
<!-- Node2&#45;&gt;Node20 -->
<g id="edge19" class="edge">
<title>Node2&#45;&gt;Node20</title>
<path fill="none" stroke="midnightblue" d="M1663.1,-179.49C1899.99,-170.06 2590.95,-138.18 2808.5,-80 2811.27,-79.26 2814.06,-78.43 2816.85,-77.53"/>
<polygon fill="none" stroke="midnightblue" points="1662.7,-176 1652.84,-179.9 1662.97,-183 1662.7,-176"/>
</g>
<!-- Node21 -->
<g id="node21" class="node">
<title>Node21</title>
<g id="a_node21"><a xlink:href="classProyecto__Final_1_1StartHandler.html" target="_top" xlink:title="Un &quot;handler&quot; del patrón Chain of Responsibility que implementa el comando &quot;/start&quot;.">
<polygon fill="white" stroke="black" points="2984,-6 2984,-74 3123,-74 3123,-6 2984,-6"/>
<text text-anchor="middle" x="3053.5" y="-62" font-family="Helvetica,sans-Serif" font-size="10.00">Proyecto_Final.StartHandler</text>
<polyline fill="none" stroke="black" points="2984,-55 3123,-55 "/>
<text text-anchor="middle" x="3053.5" y="-43" font-family="Helvetica,sans-Serif" font-size="10.00"> </text>
<polyline fill="none" stroke="black" points="2984,-36 3123,-36 "/>
<text text-anchor="start" x="2992" y="-24" font-family="Helvetica,sans-Serif" font-size="10.00">+ StartHandler()</text>
<text text-anchor="start" x="2992" y="-13" font-family="Helvetica,sans-Serif" font-size="10.00"># InternalHandle()</text>
</a>
</g>
</g>
<!-- Node2&#45;&gt;Node21 -->
<g id="edge20" class="edge">
<title>Node2&#45;&gt;Node21</title>
<path fill="none" stroke="midnightblue" d="M1662.87,-180.68C1920.81,-174.19 2725.46,-148.81 2975.5,-80 2981.34,-78.39 2987.26,-76.34 2993.09,-74.01"/>
<polygon fill="none" stroke="midnightblue" points="1662.74,-177.18 1652.83,-180.93 1662.91,-184.18 1662.74,-177.18"/>
</g>
</g>
</svg>
